<svg xmlns="http://www.w3.org/2000/svg" width="960" height="560" viewBox="0 0 960 560" role="img" aria-label="辛普森悖论分组和总体成功率对比">
  <rect width="960" height="560" fill="#ffffff"/>
  <text x="480" y="52" text-anchor="middle" font-family="PingFang SC, Microsoft YaHei, Arial, sans-serif" font-size="30" font-weight="700" fill="#243238">分组内 A 更好，合并后 B 更好</text>
  <line x1="104" y1="460" x2="760" y2="460" stroke="#8a9699" stroke-width="2"/>
  <line x1="104" y1="122" x2="104" y2="460" stroke="#8a9699" stroke-width="2"/>
  <g font-family="PingFang SC, Microsoft YaHei, Arial, sans-serif" font-size="18" fill="#607174">
    <text x="74" y="464" text-anchor="end">0%</text>
    <text x="74" y="382" text-anchor="end">25%</text>
    <text x="74" y="300" text-anchor="end">50%</text>
    <text x="74" y="218" text-anchor="end">75%</text>
    <text x="74" y="136" text-anchor="end">100%</text>
  </g>
  <g stroke="#e3e8e8" stroke-width="1">
    <line x1="104" y1="378" x2="760" y2="378"/>
    <line x1="104" y1="296" x2="760" y2="296"/>
    <line x1="104" y1="214" x2="760" y2="214"/>
    <line x1="104" y1="132" x2="760" y2="132"/>
  </g>
  <g>
    <rect x="170" y="154" width="56" height="306" rx="7" fill="#3f7cac"/>
    <rect x="242" y="176" width="56" height="284" rx="7" fill="#d9795f"/>
    <text x="198" y="143" text-anchor="middle" font-family="Arial, sans-serif" font-size="18" fill="#243238">93.1%</text>
    <text x="270" y="165" text-anchor="middle" font-family="Arial, sans-serif" font-size="18" fill="#243238">86.7%</text>
    <text x="234" y="500" text-anchor="middle" font-family="PingFang SC, Microsoft YaHei, Arial, sans-serif" font-size="22" fill="#243238">轻症</text>
  </g>
  <g>
    <rect x="380" y="220" width="56" height="240" rx="7" fill="#3f7cac"/>
    <rect x="452" y="235" width="56" height="225" rx="7" fill="#d9795f"/>
    <text x="408" y="209" text-anchor="middle" font-family="Arial, sans-serif" font-size="18" fill="#243238">73.0%</text>
    <text x="480" y="224" text-anchor="middle" font-family="Arial, sans-serif" font-size="18" fill="#243238">68.8%</text>
    <text x="444" y="500" text-anchor="middle" font-family="PingFang SC, Microsoft YaHei, Arial, sans-serif" font-size="22" fill="#243238">重症</text>
  </g>
  <g>
    <rect x="590" y="204" width="56" height="256" rx="7" fill="#3f7cac"/>
    <rect x="662" y="189" width="56" height="271" rx="7" fill="#d9795f"/>
    <text x="618" y="193" text-anchor="middle" font-family="Arial, sans-serif" font-size="18" fill="#243238">78.0%</text>
    <text x="690" y="178" text-anchor="middle" font-family="Arial, sans-serif" font-size="18" fill="#243238">82.6%</text>
    <text x="654" y="500" text-anchor="middle" font-family="PingFang SC, Microsoft YaHei, Arial, sans-serif" font-size="22" fill="#243238">总体</text>
  </g>
  <g font-family="PingFang SC, Microsoft YaHei, Arial, sans-serif" font-size="20" fill="#243238">
    <rect x="346" y="84" width="22" height="22" rx="4" fill="#3f7cac"/>
    <text x="380" y="103">方案 A</text>
    <rect x="486" y="84" width="22" height="22" rx="4" fill="#d9795f"/>
    <text x="520" y="103">方案 B</text>
  </g>
</svg>
