<svg xmlns="http://www.w3.org/2000/svg" width="1600" height="900" viewBox="0 0 1600 900">
  <defs>
    <linearGradient id="bg" x1="0" y1="0" x2="1" y2="1">
      <stop offset="0%" stop-color="#f7efe2"/>
      <stop offset="100%" stop-color="#e8f0ea"/>
    </linearGradient>
    <filter id="shadow" x="-20%" y="-20%" width="140%" height="140%">
      <feDropShadow dx="0" dy="14" stdDeviation="18" flood-color="#31423c" flood-opacity="0.18"/>
    </filter>
  </defs>
  <rect width="1600" height="900" fill="url(#bg)"/>
  <circle cx="1320" cy="130" r="180" fill="#ffffff" opacity="0.35"/>
  <circle cx="220" cy="760" r="240" fill="#ffffff" opacity="0.28"/>

  <text x="800" y="105" text-anchor="middle" font-family="Arial, sans-serif" font-size="54" font-weight="700" fill="#1d352f">读懂 FLOPs 与算力利用率</text>
  <text x="800" y="160" text-anchor="middle" font-family="Arial, sans-serif" font-size="28" fill="#52615d">FLOPs · MFU · HFU · GPU Utilization</text>

  <g filter="url(#shadow)">
    <rect x="135" y="280" width="290" height="270" rx="18" fill="#fdfaf4"/>
    <text x="280" y="250" text-anchor="middle" font-family="Arial, sans-serif" font-size="30" font-weight="700" fill="#1d352f">模型计算量</text>
    <g stroke="#ffffff" stroke-width="4">
      <rect x="180" y="325" width="88" height="88" fill="#4f86c6"/>
      <rect x="272" y="325" width="88" height="88" fill="#7fa9d5"/>
      <rect x="180" y="417" width="88" height="88" fill="#7fa9d5"/>
      <rect x="272" y="417" width="88" height="88" fill="#4f86c6"/>
      <rect x="322" y="355" width="58" height="58" fill="#55a06f" opacity="0.85"/>
      <rect x="322" y="445" width="58" height="58" fill="#55a06f" opacity="0.85"/>
    </g>
    <text x="280" y="596" text-anchor="middle" font-family="Arial, sans-serif" font-size="26" fill="#284f45">FLOPs</text>
  </g>

  <path d="M455 410 C545 380, 595 380, 685 410" fill="none" stroke="#d59b2a" stroke-width="10" stroke-linecap="round"/>
  <polygon points="675,385 724,420 666,436" fill="#d59b2a"/>

  <g filter="url(#shadow)">
    <rect x="690" y="275" width="320" height="300" rx="22" fill="#253832"/>
    <rect x="760" y="345" width="180" height="160" rx="10" fill="#3d514a" stroke="#c5d1ca" stroke-width="6"/>
    <g stroke="#70837b" stroke-width="2">
      <line x1="805" y1="345" x2="805" y2="505"/>
      <line x1="850" y1="345" x2="850" y2="505"/>
      <line x1="895" y1="345" x2="895" y2="505"/>
      <line x1="760" y1="385" x2="940" y2="385"/>
      <line x1="760" y1="425" x2="940" y2="425"/>
      <line x1="760" y1="465" x2="940" y2="465"/>
    </g>
    <g stroke="#d9b45d" stroke-width="5" stroke-linecap="round">
      <line x1="710" y1="320" x2="740" y2="320"/>
      <line x1="960" y1="320" x2="990" y2="320"/>
      <line x1="710" y1="530" x2="740" y2="530"/>
      <line x1="960" y1="530" x2="990" y2="530"/>
    </g>
    <text x="850" y="626" text-anchor="middle" font-family="Arial, sans-serif" font-size="26" fill="#284f45">GPU Peak FLOP/s</text>
  </g>

  <path d="M1035 410 C1120 380, 1175 380, 1255 410" fill="none" stroke="#d59b2a" stroke-width="10" stroke-linecap="round"/>
  <polygon points="1245,385 1294,420 1236,436" fill="#d59b2a"/>

  <g filter="url(#shadow)">
    <rect x="1230" y="285" width="250" height="250" rx="22" fill="#fdfaf4"/>
    <text x="1355" y="250" text-anchor="middle" font-family="Arial, sans-serif" font-size="30" font-weight="700" fill="#1d352f">有效利用</text>
    <circle cx="1355" cy="410" r="83" fill="#f4ead7" stroke="#7b8b84" stroke-width="8"/>
    <path d="M1295 430 A65 65 0 0 1 1410 365" fill="none" stroke="#55a06f" stroke-width="18" stroke-linecap="round"/>
    <path d="M1410 365 A65 65 0 0 1 1420 430" fill="none" stroke="#d59b2a" stroke-width="18" stroke-linecap="round"/>
    <line x1="1355" y1="410" x2="1404" y2="377" stroke="#263b34" stroke-width="8" stroke-linecap="round"/>
    <circle cx="1355" cy="410" r="9" fill="#263b34"/>
    <text x="1355" y="596" text-anchor="middle" font-family="Arial, sans-serif" font-size="26" fill="#284f45">MFU</text>
  </g>

  <g font-family="Arial, sans-serif" fill="#52615d" font-size="23" text-anchor="middle">
    <text x="280" y="705">模型要做的有效浮点运算</text>
    <text x="850" y="705">硬件在对应精度下的理论上限</text>
    <text x="1355" y="705">有效计算吞吐占峰值的比例</text>
  </g>
</svg>
