<svg xmlns="http://www.w3.org/2000/svg" width="920" height="560" viewBox="0 0 920 560" role="img" aria-label="ELU activation curve"><style>.bg{fill:#ffffff}.grid{stroke:#e5e7eb;stroke-width:1}.axis{stroke:#9ca3af;stroke-width:1.4}.tick{font:16px -apple-system,BlinkMacSystemFont,'Segoe UI',Arial,sans-serif;fill:#64748b}.title{font:700 30px -apple-system,BlinkMacSystemFont,'Segoe UI',Arial,sans-serif;fill:#111827}.sub{font:18px -apple-system,BlinkMacSystemFont,'Segoe UI',Arial,sans-serif;fill:#475569}.label{font:17px -apple-system,BlinkMacSystemFont,'Segoe UI',Arial,sans-serif;fill:#475569}.curve{fill:none;stroke:#d97706;stroke-width:5;stroke-linecap:round;stroke-linejoin:round}</style><rect class="bg" width="100%" height="100%"/><text x="80" y="46" class="title">ELU</text><text x="80" y="72" class="sub">alpha = 1</text><line x1="160.4" y1="86" x2="160.4" y2="490" class="grid"/><text x="160.4" y="520" class="tick" text-anchor="middle">-4</text>
<line x1="321.2" y1="86" x2="321.2" y2="490" class="grid"/><text x="321.2" y="520" class="tick" text-anchor="middle">-2</text>
<line x1="482" y1="86" x2="482" y2="490" class="grid"/><text x="482" y="520" class="tick" text-anchor="middle">0</text>
<line x1="642.8" y1="86" x2="642.8" y2="490" class="grid"/><text x="642.8" y="520" class="tick" text-anchor="middle">2</text>
<line x1="803.6" y1="86" x2="803.6" y2="490" class="grid"/><text x="803.6" y="520" class="tick" text-anchor="middle">4</text>
<line x1="80" y1="466.7816091954023" x2="884" y2="466.7816091954023" class="grid"/><text x="62" y="471.7816091954023" class="tick" text-anchor="end">-2</text>
<line x1="80" y1="373.9080459770115" x2="884" y2="373.9080459770115" class="grid"/><text x="62" y="378.9080459770115" class="tick" text-anchor="end">0</text>
<line x1="80" y1="281.0344827586207" x2="884" y2="281.0344827586207" class="grid"/><text x="62" y="286.0344827586207" class="tick" text-anchor="end">2</text>
<line x1="80" y1="188.16091954022983" x2="884" y2="188.16091954022983" class="grid"/><text x="62" y="193.16091954022983" class="tick" text-anchor="end">4</text>
<line x1="80" y1="95.28735632183907" x2="884" y2="95.28735632183907" class="grid"/><text x="62" y="100.28735632183907" class="tick" text-anchor="end">6</text><line x1="80" y1="373.9080459770115" x2="884" y2="373.9080459770115" class="axis"/><line x1="482" y1="86" x2="482" y2="490" class="axis"/><path d="M80.00,420.03 L81.01,420.03 L82.01,420.02 L83.01,420.02 L84.02,420.02 L85.03,420.01 L86.03,420.01 L87.04,420.00 L88.04,420.00 L89.04,419.99 L90.05,419.99 L91.06,419.99 L92.06,419.98 L93.06,419.98 L94.07,419.97 L95.08,419.97 L96.08,419.96 L97.09,419.96 L98.09,419.95 L99.09,419.95 L100.10,419.94 L101.11,419.94 L102.11,419.93 L103.11,419.93 L104.12,419.92 L105.13,419.92 L106.13,419.91 L107.14,419.91 L108.14,419.90 L109.14,419.90 L110.15,419.89 L111.16,419.88 L112.16,419.88 L113.16,419.87 L114.17,419.87 L115.17,419.86 L116.18,419.85 L117.19,419.85 L118.19,419.84 L119.19,419.84 L120.20,419.83 L121.21,419.82 L122.21,419.82 L123.21,419.81 L124.22,419.80 L125.22,419.80 L126.23,419.79 L127.24,419.78 L128.24,419.77 L129.25,419.77 L130.25,419.76 L131.25,419.75 L132.26,419.75 L133.26,419.74 L134.27,419.73 L135.28,419.72 L136.28,419.71 L137.29,419.71 L138.29,419.70 L139.29,419.69 L140.30,419.68 L141.31,419.67 L142.31,419.67 L143.31,419.66 L144.32,419.65 L145.32,419.64 L146.33,419.63 L147.34,419.62 L148.34,419.61 L149.34,419.60 L150.35,419.59 L151.36,419.58 L152.36,419.58 L153.36,419.57 L154.37,419.56 L155.38,419.55 L156.38,419.54 L157.39,419.53 L158.39,419.52 L159.39,419.50 L160.40,419.49 L161.41,419.48 L162.41,419.47 L163.42,419.46 L164.42,419.45 L165.43,419.44 L166.43,419.43 L167.44,419.42 L168.44,419.40 L169.44,419.39 L170.45,419.38 L171.46,419.37 L172.46,419.36 L173.47,419.34 L174.47,419.33 L175.47,419.32 L176.48,419.31 L177.49,419.29 L178.49,419.28 L179.50,419.27 L180.50,419.25 L181.51,419.24 L182.51,419.23 L183.51,419.21 L184.52,419.20 L185.53,419.18 L186.53,419.17 L187.53,419.15 L188.54,419.14 L189.54,419.12 L190.55,419.11 L191.56,419.09 L192.56,419.08 L193.56,419.06 L194.57,419.04 L195.57,419.03 L196.58,419.01 L197.58,418.99 L198.59,418.98 L199.59,418.96 L200.60,418.94 L201.61,418.92 L202.61,418.91 L203.62,418.89 L204.62,418.87 L205.63,418.85 L206.63,418.83 L207.63,418.81 L208.64,418.80 L209.64,418.78 L210.65,418.76 L211.66,418.74 L212.66,418.72 L213.67,418.70 L214.67,418.67 L215.68,418.65 L216.68,418.63 L217.69,418.61 L218.69,418.59 L219.69,418.57 L220.70,418.54 L221.71,418.52 L222.71,418.50 L223.72,418.48 L224.72,418.45 L225.72,418.43 L226.73,418.40 L227.73,418.38 L228.74,418.35 L229.74,418.33 L230.75,418.30 L231.76,418.28 L232.76,418.25 L233.77,418.23 L234.77,418.20 L235.78,418.17 L236.78,418.15 L237.78,418.12 L238.79,418.09 L239.79,418.06 L240.80,418.03 L241.81,418.00 L242.81,417.97 L243.81,417.94 L244.82,417.91 L245.82,417.88 L246.83,417.85 L247.83,417.82 L248.84,417.79 L249.84,417.76 L250.85,417.73 L251.86,417.69 L252.86,417.66 L253.87,417.62 L254.87,417.59 L255.88,417.56 L256.88,417.52 L257.88,417.49 L258.89,417.45 L259.89,417.41 L260.90,417.38 L261.90,417.34 L262.91,417.30 L263.92,417.26 L264.92,417.22 L265.93,417.18 L266.93,417.15 L267.94,417.10 L268.94,417.06 L269.94,417.02 L270.95,416.98 L271.96,416.94 L272.96,416.90 L273.97,416.85 L274.97,416.81 L275.98,416.76 L276.98,416.72 L277.99,416.67 L278.99,416.63 L280.00,416.58 L281.00,416.53 L282.00,416.49 L283.01,416.44 L284.01,416.39 L285.02,416.34 L286.02,416.29 L287.03,416.24 L288.03,416.18 L289.04,416.13 L290.04,416.08 L291.05,416.03 L292.06,415.97 L293.06,415.92 L294.06,415.86 L295.07,415.80 L296.07,415.75 L297.08,415.69 L298.08,415.63 L299.09,415.57 L300.10,415.51 L301.10,415.45 L302.11,415.39 L303.11,415.33 L304.12,415.26 L305.12,415.20 L306.13,415.13 L307.13,415.07 L308.13,415.00 L309.14,414.94 L310.14,414.87 L311.15,414.80 L312.15,414.73 L313.16,414.66 L314.17,414.59 L315.17,414.51 L316.18,414.44 L317.18,414.37 L318.19,414.29 L319.19,414.22 L320.19,414.14 L321.20,414.06 L322.21,413.98 L323.21,413.90 L324.22,413.82 L325.22,413.74 L326.23,413.65 L327.23,413.57 L328.24,413.49 L329.24,413.40 L330.25,413.31 L331.25,413.22 L332.25,413.13 L333.26,413.04 L334.26,412.95 L335.27,412.86 L336.27,412.76 L337.28,412.67 L338.28,412.57 L339.29,412.47 L340.29,412.38 L341.30,412.28 L342.31,412.17 L343.31,412.07 L344.31,411.97 L345.32,411.86 L346.32,411.75 L347.33,411.65 L348.33,411.54 L349.34,411.43 L350.34,411.31 L351.35,411.20 L352.36,411.09 L353.36,410.97 L354.37,410.85 L355.37,410.73 L356.38,410.61 L357.38,410.49 L358.38,410.36 L359.39,410.24 L360.39,410.11 L361.40,409.98 L362.41,409.85 L363.41,409.72 L364.42,409.59 L365.42,409.45 L366.43,409.32 L367.43,409.18 L368.44,409.04 L369.44,408.89 L370.44,408.75 L371.45,408.60 L372.46,408.46 L373.46,408.31 L374.47,408.16 L375.47,408.00 L376.48,407.85 L377.48,407.69 L378.48,407.53 L379.49,407.37 L380.50,407.21 L381.50,407.04 L382.50,406.87 L383.51,406.70 L384.52,406.53 L385.52,406.36 L386.52,406.18 L387.53,406.00 L388.53,405.82 L389.54,405.64 L390.54,405.46 L391.55,405.27 L392.56,405.08 L393.56,404.89 L394.56,404.69 L395.57,404.50 L396.57,404.30 L397.58,404.09 L398.58,403.89 L399.59,403.68 L400.59,403.47 L401.60,403.26 L402.61,403.05 L403.61,402.83 L404.61,402.61 L405.62,402.39 L406.63,402.16 L407.63,401.93 L408.64,401.70 L409.64,401.47 L410.64,401.23 L411.65,400.99 L412.66,400.74 L413.66,400.50 L414.66,400.25 L415.67,399.99 L416.68,399.74 L417.68,399.48 L418.69,399.22 L419.69,398.95 L420.69,398.68 L421.70,398.41 L422.71,398.13 L423.71,397.85 L424.71,397.57 L425.72,397.29 L426.73,396.99 L427.73,396.70 L428.74,396.40 L429.74,396.10 L430.75,395.80 L431.75,395.49 L432.75,395.18 L433.76,394.86 L434.76,394.54 L435.77,394.21 L436.77,393.89 L437.78,393.55 L438.79,393.22 L439.79,392.87 L440.79,392.53 L441.80,392.18 L442.81,391.83 L443.81,391.47 L444.81,391.10 L445.82,390.74 L446.82,390.36 L447.83,389.99 L448.84,389.60 L449.84,389.22 L450.84,388.83 L451.85,388.43 L452.86,388.03 L453.86,387.62 L454.86,387.21 L455.87,386.79 L456.88,386.37 L457.88,385.94 L458.89,385.51 L459.89,385.07 L460.89,384.63 L461.90,384.18 L462.91,383.72 L463.91,383.26 L464.91,382.80 L465.92,382.33 L466.93,381.85 L467.93,381.36 L468.94,380.87 L469.94,380.38 L470.94,379.87 L471.95,379.36 L472.96,378.85 L473.96,378.33 L474.96,377.80 L475.97,377.26 L476.98,376.72 L477.98,376.17 L478.99,375.62 L479.99,375.05 L481.00,374.48 L482.00,373.91 L483.00,373.33 L484.01,372.75 L485.01,372.17 L486.02,371.59 L487.02,371.01 L488.03,370.43 L489.04,369.84 L490.04,369.26 L491.04,368.68 L492.05,368.10 L493.06,367.52 L494.06,366.94 L495.06,366.36 L496.07,365.78 L497.08,365.20 L498.08,364.62 L499.08,364.04 L500.09,363.46 L501.09,362.88 L502.10,362.30 L503.11,361.72 L504.11,361.14 L505.11,360.56 L506.12,359.98 L507.13,359.40 L508.13,358.82 L509.14,358.24 L510.14,357.66 L511.14,357.07 L512.15,356.49 L513.15,355.91 L514.16,355.33 L515.16,354.75 L516.17,354.17 L517.17,353.59 L518.18,353.01 L519.18,352.43 L520.19,351.85 L521.19,351.27 L522.20,350.69 L523.21,350.11 L524.21,349.53 L525.21,348.95 L526.22,348.37 L527.23,347.79 L528.23,347.21 L529.24,346.63 L530.24,346.05 L531.25,345.47 L532.25,344.89 L533.25,344.30 L534.26,343.72 L535.26,343.14 L536.27,342.56 L537.27,341.98 L538.28,341.40 L539.29,340.82 L540.29,340.24 L541.29,339.66 L542.30,339.08 L543.31,338.50 L544.31,337.92 L545.32,337.34 L546.32,336.76 L547.33,336.18 L548.33,335.60 L549.34,335.02 L550.34,334.44 L551.35,333.86 L552.35,333.28 L553.36,332.70 L554.36,332.11 L555.37,331.53 L556.37,330.95 L557.38,330.37 L558.38,329.79 L559.38,329.21 L560.39,328.63 L561.39,328.05 L562.40,327.47 L563.40,326.89 L564.41,326.31 L565.41,325.73 L566.42,325.15 L567.42,324.57 L568.43,323.99 L569.43,323.41 L570.44,322.83 L571.44,322.25 L572.45,321.67 L573.46,321.09 L574.46,320.51 L575.46,319.93 L576.47,319.34 L577.48,318.76 L578.48,318.18 L579.49,317.60 L580.49,317.02 L581.50,316.44 L582.50,315.86 L583.50,315.28 L584.51,314.70 L585.51,314.12 L586.52,313.54 L587.52,312.96 L588.53,312.38 L589.54,311.80 L590.54,311.22 L591.54,310.64 L592.55,310.06 L593.56,309.48 L594.56,308.90 L595.56,308.32 L596.57,307.74 L597.58,307.16 L598.58,306.57 L599.59,305.99 L600.59,305.41 L601.59,304.83 L602.60,304.25 L603.61,303.67 L604.61,303.09 L605.62,302.51 L606.62,301.93 L607.63,301.35 L608.63,300.77 L609.63,300.19 L610.64,299.61 L611.64,299.03 L612.65,298.45 L613.66,297.87 L614.66,297.29 L615.66,296.71 L616.67,296.13 L617.67,295.55 L618.68,294.97 L619.69,294.39 L620.69,293.80 L621.69,293.22 L622.70,292.64 L623.71,292.06 L624.71,291.48 L625.71,290.90 L626.72,290.32 L627.73,289.74 L628.73,289.16 L629.74,288.58 L630.74,288.00 L631.75,287.42 L632.75,286.84 L633.75,286.26 L634.76,285.68 L635.76,285.10 L636.77,284.52 L637.77,283.94 L638.78,283.36 L639.79,282.78 L640.79,282.20 L641.79,281.61 L642.80,281.03 L643.81,280.45 L644.81,279.87 L645.81,279.29 L646.82,278.71 L647.83,278.13 L648.83,277.55 L649.84,276.97 L650.84,276.39 L651.84,275.81 L652.85,275.23 L653.86,274.65 L654.86,274.07 L655.87,273.49 L656.87,272.91 L657.88,272.33 L658.88,271.75 L659.88,271.17 L660.89,270.59 L661.89,270.01 L662.90,269.43 L663.91,268.84 L664.91,268.26 L665.91,267.68 L666.92,267.10 L667.92,266.52 L668.93,265.94 L669.94,265.36 L670.94,264.78 L671.94,264.20 L672.95,263.62 L673.96,263.04 L674.96,262.46 L675.96,261.88 L676.97,261.30 L677.98,260.72 L678.98,260.14 L679.99,259.56 L680.99,258.98 L682.00,258.40 L683.00,257.82 L684.00,257.24 L685.01,256.66 L686.01,256.07 L687.02,255.49 L688.02,254.91 L689.03,254.33 L690.04,253.75 L691.04,253.17 L692.04,252.59 L693.05,252.01 L694.06,251.43 L695.06,250.85 L696.06,250.27 L697.07,249.69 L698.08,249.11 L699.08,248.53 L700.09,247.95 L701.09,247.37 L702.09,246.79 L703.10,246.21 L704.11,245.63 L705.11,245.05 L706.12,244.47 L707.12,243.89 L708.13,243.30 L709.13,242.72 L710.13,242.14 L711.14,241.56 L712.14,240.98 L713.15,240.40 L714.16,239.82 L715.16,239.24 L716.16,238.66 L717.17,238.08 L718.17,237.50 L719.18,236.92 L720.19,236.34 L721.19,235.76 L722.19,235.18 L723.20,234.60 L724.20,234.02 L725.21,233.44 L726.21,232.86 L727.22,232.28 L728.23,231.70 L729.23,231.11 L730.24,230.53 L731.24,229.95 L732.25,229.37 L733.25,228.79 L734.25,228.21 L735.26,227.63 L736.26,227.05 L737.27,226.47 L738.27,225.89 L739.28,225.31 L740.29,224.73 L741.29,224.15 L742.30,223.57 L743.30,222.99 L744.30,222.41 L745.31,221.83 L746.31,221.25 L747.32,220.67 L748.33,220.09 L749.33,219.51 L750.34,218.93 L751.34,218.34 L752.35,217.76 L753.35,217.18 L754.35,216.60 L755.36,216.02 L756.37,215.44 L757.37,214.86 L758.38,214.28 L759.38,213.70 L760.38,213.12 L761.39,212.54 L762.40,211.96 L763.40,211.38 L764.40,210.80 L765.41,210.22 L766.41,209.64 L767.42,209.06 L768.42,208.48 L769.43,207.90 L770.44,207.32 L771.44,206.74 L772.45,206.16 L773.45,205.57 L774.45,204.99 L775.46,204.41 L776.46,203.83 L777.47,203.25 L778.48,202.67 L779.48,202.09 L780.49,201.51 L781.49,200.93 L782.50,200.35 L783.50,199.77 L784.50,199.19 L785.51,198.61 L786.51,198.03 L787.52,197.45 L788.52,196.87 L789.53,196.29 L790.54,195.71 L791.54,195.13 L792.55,194.55 L793.55,193.97 L794.55,193.39 L795.56,192.80 L796.56,192.22 L797.57,191.64 L798.58,191.06 L799.58,190.48 L800.59,189.90 L801.59,189.32 L802.60,188.74 L803.60,188.16 L804.60,187.58 L805.61,187.00 L806.62,186.42 L807.62,185.84 L808.63,185.26 L809.63,184.68 L810.63,184.10 L811.64,183.52 L812.65,182.94 L813.65,182.36 L814.65,181.78 L815.66,181.20 L816.66,180.61 L817.67,180.03 L818.67,179.45 L819.68,178.87 L820.69,178.29 L821.69,177.71 L822.70,177.13 L823.70,176.55 L824.70,175.97 L825.71,175.39 L826.71,174.81 L827.72,174.23 L828.73,173.65 L829.73,173.07 L830.74,172.49 L831.74,171.91 L832.75,171.33 L833.75,170.75 L834.75,170.17 L835.76,169.59 L836.76,169.01 L837.77,168.43 L838.77,167.84 L839.78,167.26 L840.79,166.68 L841.79,166.10 L842.80,165.52 L843.80,164.94 L844.80,164.36 L845.81,163.78 L846.81,163.20 L847.82,162.62 L848.83,162.04 L849.83,161.46 L850.84,160.88 L851.84,160.30 L852.85,159.72 L853.85,159.14 L854.85,158.56 L855.86,157.98 L856.87,157.40 L857.87,156.82 L858.88,156.24 L859.88,155.66 L860.88,155.07 L861.89,154.49 L862.90,153.91 L863.90,153.33 L864.90,152.75 L865.91,152.17 L866.91,151.59 L867.92,151.01 L868.92,150.43 L869.93,149.85 L870.94,149.27 L871.94,148.69 L872.95,148.11 L873.95,147.53 L874.95,146.95 L875.96,146.37 L876.96,145.79 L877.97,145.21 L878.98,144.63 L879.98,144.05 L880.99,143.47 L881.99,142.89 L883.00,142.30 L884.00,141.72" class="curve"/><text x="460" y="538" class="label" text-anchor="middle">x</text><text x="28" y="280" class="label" transform="rotate(-90 28 280)" text-anchor="middle">f(x)</text></svg>