<svg xmlns="http://www.w3.org/2000/svg" width="920" height="560" viewBox="0 0 920 560" role="img" aria-label="GELU activation curve"><style>.bg{fill:#ffffff}.grid{stroke:#e5e7eb;stroke-width:1}.axis{stroke:#9ca3af;stroke-width:1.4}.tick{font:16px -apple-system,BlinkMacSystemFont,'Segoe UI',Arial,sans-serif;fill:#64748b}.title{font:700 30px -apple-system,BlinkMacSystemFont,'Segoe UI',Arial,sans-serif;fill:#111827}.sub{font:18px -apple-system,BlinkMacSystemFont,'Segoe UI',Arial,sans-serif;fill:#475569}.label{font:17px -apple-system,BlinkMacSystemFont,'Segoe UI',Arial,sans-serif;fill:#475569}.curve{fill:none;stroke:#9333ea;stroke-width:5;stroke-linecap:round;stroke-linejoin:round}</style><rect class="bg" width="100%" height="100%"/><text x="80" y="46" class="title">GELU</text><text x="80" y="72" class="sub">smooth stochastic gate intuition</text><line x1="160.4" y1="86" x2="160.4" y2="490" class="grid"/><text x="160.4" y="520" class="tick" text-anchor="middle">-4</text>
<line x1="321.2" y1="86" x2="321.2" y2="490" class="grid"/><text x="321.2" y="520" class="tick" text-anchor="middle">-2</text>
<line x1="482" y1="86" x2="482" y2="490" class="grid"/><text x="482" y="520" class="tick" text-anchor="middle">0</text>
<line x1="642.8" y1="86" x2="642.8" y2="490" class="grid"/><text x="642.8" y="520" class="tick" text-anchor="middle">2</text>
<line x1="803.6" y1="86" x2="803.6" y2="490" class="grid"/><text x="803.6" y="520" class="tick" text-anchor="middle">4</text>
<line x1="80" y1="466.7816091954023" x2="884" y2="466.7816091954023" class="grid"/><text x="62" y="471.7816091954023" class="tick" text-anchor="end">-2</text>
<line x1="80" y1="373.9080459770115" x2="884" y2="373.9080459770115" class="grid"/><text x="62" y="378.9080459770115" class="tick" text-anchor="end">0</text>
<line x1="80" y1="281.0344827586207" x2="884" y2="281.0344827586207" class="grid"/><text x="62" y="286.0344827586207" class="tick" text-anchor="end">2</text>
<line x1="80" y1="188.16091954022983" x2="884" y2="188.16091954022983" class="grid"/><text x="62" y="193.16091954022983" class="tick" text-anchor="end">4</text>
<line x1="80" y1="95.28735632183907" x2="884" y2="95.28735632183907" class="grid"/><text x="62" y="100.28735632183907" class="tick" text-anchor="end">6</text><line x1="80" y1="373.9080459770115" x2="884" y2="373.9080459770115" class="axis"/><line x1="482" y1="86" x2="482" y2="490" class="axis"/><path d="M80.00,373.91 L81.01,373.91 L82.01,373.91 L83.01,373.91 L84.02,373.91 L85.03,373.91 L86.03,373.91 L87.04,373.91 L88.04,373.91 L89.04,373.91 L90.05,373.91 L91.06,373.91 L92.06,373.91 L93.06,373.91 L94.07,373.91 L95.08,373.91 L96.08,373.91 L97.09,373.91 L98.09,373.91 L99.09,373.91 L100.10,373.91 L101.11,373.91 L102.11,373.91 L103.11,373.91 L104.12,373.91 L105.13,373.91 L106.13,373.91 L107.14,373.91 L108.14,373.91 L109.14,373.91 L110.15,373.91 L111.16,373.91 L112.16,373.91 L113.16,373.91 L114.17,373.91 L115.17,373.91 L116.18,373.91 L117.19,373.91 L118.19,373.91 L119.19,373.91 L120.20,373.91 L121.21,373.91 L122.21,373.91 L123.21,373.91 L124.22,373.91 L125.22,373.91 L126.23,373.91 L127.24,373.91 L128.24,373.91 L129.25,373.91 L130.25,373.91 L131.25,373.91 L132.26,373.91 L133.26,373.91 L134.27,373.91 L135.28,373.91 L136.28,373.91 L137.29,373.91 L138.29,373.91 L139.29,373.91 L140.30,373.91 L141.31,373.91 L142.31,373.91 L143.31,373.91 L144.32,373.91 L145.32,373.91 L146.33,373.91 L147.34,373.91 L148.34,373.91 L149.34,373.91 L150.35,373.91 L151.36,373.91 L152.36,373.91 L153.36,373.91 L154.37,373.91 L155.38,373.91 L156.38,373.91 L157.39,373.91 L158.39,373.91 L159.39,373.91 L160.40,373.91 L161.41,373.91 L162.41,373.91 L163.42,373.91 L164.42,373.91 L165.43,373.91 L166.43,373.91 L167.44,373.91 L168.44,373.91 L169.44,373.91 L170.45,373.91 L171.46,373.91 L172.46,373.91 L173.47,373.91 L174.47,373.92 L175.47,373.92 L176.48,373.92 L177.49,373.92 L178.49,373.92 L179.50,373.92 L180.50,373.92 L181.51,373.92 L182.51,373.92 L183.51,373.92 L184.52,373.92 L185.53,373.92 L186.53,373.92 L187.53,373.92 L188.54,373.92 L189.54,373.92 L190.55,373.93 L191.56,373.93 L192.56,373.93 L193.56,373.93 L194.57,373.93 L195.57,373.93 L196.58,373.93 L197.58,373.93 L198.59,373.93 L199.59,373.94 L200.60,373.94 L201.61,373.94 L202.61,373.94 L203.62,373.94 L204.62,373.94 L205.63,373.94 L206.63,373.95 L207.63,373.95 L208.64,373.95 L209.64,373.95 L210.65,373.95 L211.66,373.96 L212.66,373.96 L213.67,373.96 L214.67,373.96 L215.68,373.97 L216.68,373.97 L217.69,373.97 L218.69,373.97 L219.69,373.98 L220.70,373.98 L221.71,373.98 L222.71,373.99 L223.72,373.99 L224.72,373.99 L225.72,374.00 L226.73,374.00 L227.73,374.01 L228.74,374.01 L229.74,374.02 L230.75,374.02 L231.76,374.03 L232.76,374.03 L233.77,374.04 L234.77,374.04 L235.78,374.05 L236.78,374.05 L237.78,374.06 L238.79,374.06 L239.79,374.07 L240.80,374.08 L241.81,374.08 L242.81,374.09 L243.81,374.10 L244.82,374.11 L245.82,374.11 L246.83,374.12 L247.83,374.13 L248.84,374.14 L249.84,374.15 L250.85,374.16 L251.86,374.17 L252.86,374.18 L253.87,374.19 L254.87,374.20 L255.88,374.21 L256.88,374.22 L257.88,374.23 L258.89,374.24 L259.89,374.25 L260.90,374.27 L261.90,374.28 L262.91,374.29 L263.92,374.31 L264.92,374.32 L265.93,374.34 L266.93,374.35 L267.94,374.37 L268.94,374.38 L269.94,374.40 L270.95,374.41 L271.96,374.43 L272.96,374.45 L273.97,374.47 L274.97,374.49 L275.98,374.51 L276.98,374.52 L277.99,374.54 L278.99,374.57 L280.00,374.59 L281.00,374.61 L282.00,374.63 L283.01,374.65 L284.01,374.68 L285.02,374.70 L286.02,374.73 L287.03,374.75 L288.03,374.78 L289.04,374.80 L290.04,374.83 L291.05,374.86 L292.06,374.89 L293.06,374.92 L294.06,374.94 L295.07,374.98 L296.07,375.01 L297.08,375.04 L298.08,375.07 L299.09,375.10 L300.10,375.14 L301.10,375.17 L302.11,375.21 L303.11,375.24 L304.12,375.28 L305.12,375.32 L306.13,375.35 L307.13,375.39 L308.13,375.43 L309.14,375.47 L310.14,375.51 L311.15,375.56 L312.15,375.60 L313.16,375.64 L314.17,375.69 L315.17,375.73 L316.18,375.78 L317.18,375.82 L318.19,375.87 L319.19,375.92 L320.19,375.97 L321.20,376.02 L322.21,376.07 L323.21,376.12 L324.22,376.17 L325.22,376.22 L326.23,376.28 L327.23,376.33 L328.24,376.39 L329.24,376.44 L330.25,376.50 L331.25,376.55 L332.25,376.61 L333.26,376.67 L334.26,376.73 L335.27,376.79 L336.27,376.85 L337.28,376.91 L338.28,376.98 L339.29,377.04 L340.29,377.10 L341.30,377.17 L342.31,377.23 L343.31,377.30 L344.31,377.37 L345.32,377.43 L346.32,377.50 L347.33,377.57 L348.33,377.64 L349.34,377.71 L350.34,377.78 L351.35,377.85 L352.36,377.92 L353.36,377.99 L354.37,378.06 L355.37,378.13 L356.38,378.20 L357.38,378.28 L358.38,378.35 L359.39,378.42 L360.39,378.50 L361.40,378.57 L362.41,378.65 L363.41,378.72 L364.42,378.79 L365.42,378.87 L366.43,378.94 L367.43,379.02 L368.44,379.09 L369.44,379.17 L370.44,379.24 L371.45,379.32 L372.46,379.39 L373.46,379.47 L374.47,379.54 L375.47,379.62 L376.48,379.69 L377.48,379.76 L378.48,379.84 L379.49,379.91 L380.50,379.98 L381.50,380.05 L382.50,380.12 L383.51,380.19 L384.52,380.26 L385.52,380.33 L386.52,380.40 L387.53,380.47 L388.53,380.53 L389.54,380.60 L390.54,380.66 L391.55,380.72 L392.56,380.79 L393.56,380.85 L394.56,380.91 L395.57,380.96 L396.57,381.02 L397.58,381.08 L398.58,381.13 L399.59,381.18 L400.59,381.23 L401.60,381.28 L402.61,381.33 L403.61,381.38 L404.61,381.42 L405.62,381.46 L406.63,381.50 L407.63,381.54 L408.64,381.57 L409.64,381.61 L410.64,381.64 L411.65,381.67 L412.66,381.69 L413.66,381.71 L414.66,381.74 L415.67,381.75 L416.68,381.77 L417.68,381.78 L418.69,381.79 L419.69,381.80 L420.69,381.80 L421.70,381.80 L422.71,381.80 L423.71,381.80 L424.71,381.79 L425.72,381.78 L426.73,381.76 L427.73,381.74 L428.74,381.72 L429.74,381.69 L430.75,381.66 L431.75,381.63 L432.75,381.59 L433.76,381.55 L434.76,381.51 L435.77,381.46 L436.77,381.40 L437.78,381.35 L438.79,381.28 L439.79,381.22 L440.79,381.15 L441.80,381.07 L442.81,380.99 L443.81,380.91 L444.81,380.82 L445.82,380.73 L446.82,380.63 L447.83,380.53 L448.84,380.42 L449.84,380.31 L450.84,380.19 L451.85,380.07 L452.86,379.94 L453.86,379.81 L454.86,379.67 L455.87,379.53 L456.88,379.38 L457.88,379.23 L458.89,379.07 L459.89,378.91 L460.89,378.74 L461.90,378.57 L462.91,378.39 L463.91,378.20 L464.91,378.01 L465.92,377.82 L466.93,377.61 L467.93,377.41 L468.94,377.19 L469.94,376.98 L470.94,376.75 L471.95,376.52 L472.96,376.29 L473.96,376.04 L474.96,375.80 L475.97,375.55 L476.98,375.29 L477.98,375.02 L478.99,374.75 L479.99,374.48 L481.00,374.20 L482.00,373.91 L483.00,373.61 L484.01,373.32 L485.01,373.01 L486.02,372.70 L487.02,372.38 L488.03,372.06 L489.04,371.73 L490.04,371.40 L491.04,371.06 L492.05,370.72 L493.06,370.37 L494.06,370.01 L495.06,369.65 L496.07,369.28 L497.08,368.91 L498.08,368.53 L499.08,368.14 L500.09,367.75 L501.09,367.36 L502.10,366.96 L503.11,366.55 L504.11,366.14 L505.11,365.72 L506.12,365.30 L507.13,364.87 L508.13,364.44 L509.14,364.00 L510.14,363.56 L511.14,363.11 L512.15,362.66 L513.15,362.20 L514.16,361.73 L515.16,361.27 L516.17,360.79 L517.17,360.31 L518.18,359.83 L519.18,359.34 L520.19,358.85 L521.19,358.36 L522.20,357.85 L523.21,357.35 L524.21,356.84 L525.21,356.32 L526.22,355.81 L527.23,355.28 L528.23,354.76 L529.24,354.22 L530.24,353.69 L531.25,353.15 L532.25,352.61 L533.25,352.06 L534.26,351.51 L535.26,350.95 L536.27,350.40 L537.27,349.84 L538.28,349.27 L539.29,348.70 L540.29,348.13 L541.29,347.55 L542.30,346.98 L543.31,346.40 L544.31,345.81 L545.32,345.22 L546.32,344.63 L547.33,344.04 L548.33,343.44 L549.34,342.84 L550.34,342.24 L551.35,341.64 L552.35,341.03 L553.36,340.42 L554.36,339.81 L555.37,339.20 L556.37,338.58 L557.38,337.97 L558.38,337.35 L559.38,336.72 L560.39,336.10 L561.39,335.47 L562.40,334.85 L563.40,334.22 L564.41,333.59 L565.41,332.95 L566.42,332.32 L567.42,331.68 L568.43,331.04 L569.43,330.41 L570.44,329.77 L571.44,329.12 L572.45,328.48 L573.46,327.84 L574.46,327.19 L575.46,326.55 L576.47,325.90 L577.48,325.25 L578.48,324.61 L579.49,323.96 L580.49,323.31 L581.50,322.66 L582.50,322.00 L583.50,321.35 L584.51,320.70 L585.51,320.05 L586.52,319.39 L587.52,318.74 L588.53,318.09 L589.54,317.43 L590.54,316.78 L591.54,316.12 L592.55,315.47 L593.56,314.81 L594.56,314.16 L595.56,313.50 L596.57,312.85 L597.58,312.19 L598.58,311.54 L599.59,310.88 L600.59,310.23 L601.59,309.57 L602.60,308.92 L603.61,308.26 L604.61,307.61 L605.62,306.95 L606.62,306.30 L607.63,305.65 L608.63,304.99 L609.63,304.34 L610.64,303.69 L611.64,303.04 L612.65,302.39 L613.66,301.74 L614.66,301.09 L615.66,300.44 L616.67,299.79 L617.67,299.14 L618.68,298.49 L619.69,297.84 L620.69,297.20 L621.69,296.55 L622.70,295.90 L623.71,295.26 L624.71,294.61 L625.71,293.97 L626.72,293.33 L627.73,292.69 L628.73,292.04 L629.74,291.40 L630.74,290.76 L631.75,290.12 L632.75,289.49 L633.75,288.85 L634.76,288.21 L635.76,287.57 L636.77,286.94 L637.77,286.30 L638.78,285.67 L639.79,285.04 L640.79,284.41 L641.79,283.77 L642.80,283.14 L643.81,282.51 L644.81,281.88 L645.81,281.26 L646.82,280.63 L647.83,280.00 L648.83,279.37 L649.84,278.75 L650.84,278.12 L651.84,277.50 L652.85,276.88 L653.86,276.26 L654.86,275.63 L655.87,275.01 L656.87,274.39 L657.88,273.77 L658.88,273.16 L659.88,272.54 L660.89,271.92 L661.89,271.30 L662.90,270.69 L663.91,270.07 L664.91,269.46 L665.91,268.85 L666.92,268.23 L667.92,267.62 L668.93,267.01 L669.94,266.40 L670.94,265.79 L671.94,265.18 L672.95,264.57 L673.96,263.96 L674.96,263.35 L675.96,262.75 L676.97,262.14 L677.98,261.54 L678.98,260.93 L679.99,260.33 L680.99,259.72 L682.00,259.12 L683.00,258.52 L684.00,257.91 L685.01,257.31 L686.01,256.71 L687.02,256.11 L688.02,255.51 L689.03,254.91 L690.04,254.31 L691.04,253.71 L692.04,253.12 L693.05,252.52 L694.06,251.92 L695.06,251.32 L696.06,250.73 L697.07,250.13 L698.08,249.54 L699.08,248.94 L700.09,248.35 L701.09,247.75 L702.09,247.16 L703.10,246.57 L704.11,245.97 L705.11,245.38 L706.12,244.79 L707.12,244.20 L708.13,243.60 L709.13,243.01 L710.13,242.42 L711.14,241.83 L712.14,241.24 L713.15,240.65 L714.16,240.06 L715.16,239.47 L716.16,238.88 L717.17,238.29 L718.17,237.71 L719.18,237.12 L720.19,236.53 L721.19,235.94 L722.19,235.35 L723.20,234.77 L724.20,234.18 L725.21,233.59 L726.21,233.01 L727.22,232.42 L728.23,231.83 L729.23,231.25 L730.24,230.66 L731.24,230.08 L732.25,229.49 L733.25,228.91 L734.25,228.32 L735.26,227.74 L736.26,227.15 L737.27,226.57 L738.27,225.98 L739.28,225.40 L740.29,224.81 L741.29,224.23 L742.30,223.65 L743.30,223.06 L744.30,222.48 L745.31,221.89 L746.31,221.31 L747.32,220.73 L748.33,220.14 L749.33,219.56 L750.34,218.98 L751.34,218.40 L752.35,217.81 L753.35,217.23 L754.35,216.65 L755.36,216.07 L756.37,215.48 L757.37,214.90 L758.38,214.32 L759.38,213.74 L760.38,213.15 L761.39,212.57 L762.40,211.99 L763.40,211.41 L764.40,210.83 L765.41,210.24 L766.41,209.66 L767.42,209.08 L768.42,208.50 L769.43,207.92 L770.44,207.34 L771.44,206.75 L772.45,206.17 L773.45,205.59 L774.45,205.01 L775.46,204.43 L776.46,203.85 L777.47,203.27 L778.48,202.69 L779.48,202.10 L780.49,201.52 L781.49,200.94 L782.50,200.36 L783.50,199.78 L784.50,199.20 L785.51,198.62 L786.51,198.04 L787.52,197.46 L788.52,196.88 L789.53,196.29 L790.54,195.71 L791.54,195.13 L792.55,194.55 L793.55,193.97 L794.55,193.39 L795.56,192.81 L796.56,192.23 L797.57,191.65 L798.58,191.07 L799.58,190.49 L800.59,189.91 L801.59,189.33 L802.60,188.74 L803.60,188.16 L804.60,187.58 L805.61,187.00 L806.62,186.42 L807.62,185.84 L808.63,185.26 L809.63,184.68 L810.63,184.10 L811.64,183.52 L812.65,182.94 L813.65,182.36 L814.65,181.78 L815.66,181.20 L816.66,180.62 L817.67,180.04 L818.67,179.46 L819.68,178.87 L820.69,178.29 L821.69,177.71 L822.70,177.13 L823.70,176.55 L824.70,175.97 L825.71,175.39 L826.71,174.81 L827.72,174.23 L828.73,173.65 L829.73,173.07 L830.74,172.49 L831.74,171.91 L832.75,171.33 L833.75,170.75 L834.75,170.17 L835.76,169.59 L836.76,169.01 L837.77,168.43 L838.77,167.85 L839.78,167.26 L840.79,166.68 L841.79,166.10 L842.80,165.52 L843.80,164.94 L844.80,164.36 L845.81,163.78 L846.81,163.20 L847.82,162.62 L848.83,162.04 L849.83,161.46 L850.84,160.88 L851.84,160.30 L852.85,159.72 L853.85,159.14 L854.85,158.56 L855.86,157.98 L856.87,157.40 L857.87,156.82 L858.88,156.24 L859.88,155.66 L860.88,155.07 L861.89,154.49 L862.90,153.91 L863.90,153.33 L864.90,152.75 L865.91,152.17 L866.91,151.59 L867.92,151.01 L868.92,150.43 L869.93,149.85 L870.94,149.27 L871.94,148.69 L872.95,148.11 L873.95,147.53 L874.95,146.95 L875.96,146.37 L876.96,145.79 L877.97,145.21 L878.98,144.63 L879.98,144.05 L880.99,143.47 L881.99,142.89 L883.00,142.30 L884.00,141.72" class="curve"/><text x="460" y="538" class="label" text-anchor="middle">x</text><text x="28" y="280" class="label" transform="rotate(-90 28 280)" text-anchor="middle">f(x)</text></svg>