<svg xmlns="http://www.w3.org/2000/svg" width="920" height="560" viewBox="0 0 920 560" role="img" aria-label="Mish activation curve"><style>.bg{fill:#ffffff}.grid{stroke:#e5e7eb;stroke-width:1}.axis{stroke:#9ca3af;stroke-width:1.4}.tick{font:16px -apple-system,BlinkMacSystemFont,'Segoe UI',Arial,sans-serif;fill:#64748b}.title{font:700 30px -apple-system,BlinkMacSystemFont,'Segoe UI',Arial,sans-serif;fill:#111827}.sub{font:18px -apple-system,BlinkMacSystemFont,'Segoe UI',Arial,sans-serif;fill:#475569}.label{font:17px -apple-system,BlinkMacSystemFont,'Segoe UI',Arial,sans-serif;fill:#475569}.curve{fill:none;stroke:#0891b2;stroke-width:5;stroke-linecap:round;stroke-linejoin:round}</style><rect class="bg" width="100%" height="100%"/><text x="80" y="46" class="title">Mish</text><text x="80" y="72" class="sub">x * tanh(softplus(x))</text><line x1="160.4" y1="86" x2="160.4" y2="490" class="grid"/><text x="160.4" y="520" class="tick" text-anchor="middle">-4</text>
<line x1="321.2" y1="86" x2="321.2" y2="490" class="grid"/><text x="321.2" y="520" class="tick" text-anchor="middle">-2</text>
<line x1="482" y1="86" x2="482" y2="490" class="grid"/><text x="482" y="520" class="tick" text-anchor="middle">0</text>
<line x1="642.8" y1="86" x2="642.8" y2="490" class="grid"/><text x="642.8" y="520" class="tick" text-anchor="middle">2</text>
<line x1="803.6" y1="86" x2="803.6" y2="490" class="grid"/><text x="803.6" y="520" class="tick" text-anchor="middle">4</text>
<line x1="80" y1="466.7816091954023" x2="884" y2="466.7816091954023" class="grid"/><text x="62" y="471.7816091954023" class="tick" text-anchor="end">-2</text>
<line x1="80" y1="373.9080459770115" x2="884" y2="373.9080459770115" class="grid"/><text x="62" y="378.9080459770115" class="tick" text-anchor="end">0</text>
<line x1="80" y1="281.0344827586207" x2="884" y2="281.0344827586207" class="grid"/><text x="62" y="286.0344827586207" class="tick" text-anchor="end">2</text>
<line x1="80" y1="188.16091954022983" x2="884" y2="188.16091954022983" class="grid"/><text x="62" y="193.16091954022983" class="tick" text-anchor="end">4</text>
<line x1="80" y1="95.28735632183907" x2="884" y2="95.28735632183907" class="grid"/><text x="62" y="100.28735632183907" class="tick" text-anchor="end">6</text><line x1="80" y1="373.9080459770115" x2="884" y2="373.9080459770115" class="axis"/><line x1="482" y1="86" x2="482" y2="490" class="axis"/><path d="M80.00,375.47 L81.01,375.48 L82.01,375.50 L83.01,375.51 L84.02,375.53 L85.03,375.55 L86.03,375.56 L87.04,375.58 L88.04,375.60 L89.04,375.61 L90.05,375.63 L91.06,375.65 L92.06,375.66 L93.06,375.68 L94.07,375.70 L95.08,375.72 L96.08,375.73 L97.09,375.75 L98.09,375.77 L99.09,375.79 L100.10,375.81 L101.11,375.83 L102.11,375.85 L103.11,375.86 L104.12,375.88 L105.13,375.90 L106.13,375.92 L107.14,375.94 L108.14,375.96 L109.14,375.98 L110.15,376.00 L111.16,376.02 L112.16,376.04 L113.16,376.07 L114.17,376.09 L115.17,376.11 L116.18,376.13 L117.19,376.15 L118.19,376.17 L119.19,376.19 L120.20,376.22 L121.21,376.24 L122.21,376.26 L123.21,376.28 L124.22,376.31 L125.22,376.33 L126.23,376.35 L127.24,376.38 L128.24,376.40 L129.25,376.43 L130.25,376.45 L131.25,376.47 L132.26,376.50 L133.26,376.52 L134.27,376.55 L135.28,376.57 L136.28,376.60 L137.29,376.62 L138.29,376.65 L139.29,376.68 L140.30,376.70 L141.31,376.73 L142.31,376.76 L143.31,376.78 L144.32,376.81 L145.32,376.84 L146.33,376.87 L147.34,376.89 L148.34,376.92 L149.34,376.95 L150.35,376.98 L151.36,377.01 L152.36,377.04 L153.36,377.07 L154.37,377.10 L155.38,377.13 L156.38,377.16 L157.39,377.19 L158.39,377.22 L159.39,377.25 L160.40,377.28 L161.41,377.31 L162.41,377.34 L163.42,377.37 L164.42,377.41 L165.43,377.44 L166.43,377.47 L167.44,377.50 L168.44,377.54 L169.44,377.57 L170.45,377.60 L171.46,377.64 L172.46,377.67 L173.47,377.71 L174.47,377.74 L175.47,377.78 L176.48,377.81 L177.49,377.85 L178.49,377.88 L179.50,377.92 L180.50,377.96 L181.51,377.99 L182.51,378.03 L183.51,378.07 L184.52,378.10 L185.53,378.14 L186.53,378.18 L187.53,378.22 L188.54,378.26 L189.54,378.30 L190.55,378.33 L191.56,378.37 L192.56,378.41 L193.56,378.45 L194.57,378.49 L195.57,378.53 L196.58,378.58 L197.58,378.62 L198.59,378.66 L199.59,378.70 L200.60,378.74 L201.61,378.78 L202.61,378.83 L203.62,378.87 L204.62,378.91 L205.63,378.96 L206.63,379.00 L207.63,379.04 L208.64,379.09 L209.64,379.13 L210.65,379.18 L211.66,379.22 L212.66,379.27 L213.67,379.32 L214.67,379.36 L215.68,379.41 L216.68,379.46 L217.69,379.50 L218.69,379.55 L219.69,379.60 L220.70,379.65 L221.71,379.69 L222.71,379.74 L223.72,379.79 L224.72,379.84 L225.72,379.89 L226.73,379.94 L227.73,379.99 L228.74,380.04 L229.74,380.09 L230.75,380.14 L231.76,380.20 L232.76,380.25 L233.77,380.30 L234.77,380.35 L235.78,380.40 L236.78,380.46 L237.78,380.51 L238.79,380.56 L239.79,380.62 L240.80,380.67 L241.81,380.73 L242.81,380.78 L243.81,380.84 L244.82,380.89 L245.82,380.95 L246.83,381.00 L247.83,381.06 L248.84,381.11 L249.84,381.17 L250.85,381.23 L251.86,381.28 L252.86,381.34 L253.87,381.40 L254.87,381.46 L255.88,381.52 L256.88,381.57 L257.88,381.63 L258.89,381.69 L259.89,381.75 L260.90,381.81 L261.90,381.87 L262.91,381.93 L263.92,381.99 L264.92,382.05 L265.93,382.11 L266.93,382.17 L267.94,382.23 L268.94,382.30 L269.94,382.36 L270.95,382.42 L271.96,382.48 L272.96,382.54 L273.97,382.61 L274.97,382.67 L275.98,382.73 L276.98,382.79 L277.99,382.86 L278.99,382.92 L280.00,382.98 L281.00,383.05 L282.00,383.11 L283.01,383.18 L284.01,383.24 L285.02,383.30 L286.02,383.37 L287.03,383.43 L288.03,383.50 L289.04,383.56 L290.04,383.63 L291.05,383.69 L292.06,383.76 L293.06,383.82 L294.06,383.89 L295.07,383.95 L296.07,384.02 L297.08,384.08 L298.08,384.15 L299.09,384.21 L300.10,384.28 L301.10,384.34 L302.11,384.41 L303.11,384.47 L304.12,384.54 L305.12,384.60 L306.13,384.67 L307.13,384.73 L308.13,384.80 L309.14,384.86 L310.14,384.93 L311.15,384.99 L312.15,385.06 L313.16,385.12 L314.17,385.19 L315.17,385.25 L316.18,385.32 L317.18,385.38 L318.19,385.44 L319.19,385.51 L320.19,385.57 L321.20,385.63 L322.21,385.70 L323.21,385.76 L324.22,385.82 L325.22,385.88 L326.23,385.94 L327.23,386.01 L328.24,386.07 L329.24,386.13 L330.25,386.19 L331.25,386.25 L332.25,386.31 L333.26,386.37 L334.26,386.42 L335.27,386.48 L336.27,386.54 L337.28,386.60 L338.28,386.65 L339.29,386.71 L340.29,386.76 L341.30,386.82 L342.31,386.87 L343.31,386.93 L344.31,386.98 L345.32,387.03 L346.32,387.08 L347.33,387.13 L348.33,387.18 L349.34,387.23 L350.34,387.28 L351.35,387.33 L352.36,387.37 L353.36,387.42 L354.37,387.46 L355.37,387.51 L356.38,387.55 L357.38,387.59 L358.38,387.63 L359.39,387.67 L360.39,387.71 L361.40,387.75 L362.41,387.79 L363.41,387.82 L364.42,387.86 L365.42,387.89 L366.43,387.92 L367.43,387.95 L368.44,387.98 L369.44,388.01 L370.44,388.04 L371.45,388.06 L372.46,388.09 L373.46,388.11 L374.47,388.13 L375.47,388.15 L376.48,388.17 L377.48,388.18 L378.48,388.20 L379.49,388.21 L380.50,388.22 L381.50,388.23 L382.50,388.24 L383.51,388.24 L384.52,388.25 L385.52,388.25 L386.52,388.25 L387.53,388.25 L388.53,388.24 L389.54,388.24 L390.54,388.23 L391.55,388.22 L392.56,388.21 L393.56,388.19 L394.56,388.18 L395.57,388.16 L396.57,388.14 L397.58,388.11 L398.58,388.09 L399.59,388.06 L400.59,388.03 L401.60,388.00 L402.61,387.96 L403.61,387.92 L404.61,387.88 L405.62,387.84 L406.63,387.79 L407.63,387.74 L408.64,387.69 L409.64,387.64 L410.64,387.58 L411.65,387.52 L412.66,387.46 L413.66,387.39 L414.66,387.32 L415.67,387.25 L416.68,387.17 L417.68,387.09 L418.69,387.01 L419.69,386.93 L420.69,386.84 L421.70,386.75 L422.71,386.65 L423.71,386.55 L424.71,386.45 L425.72,386.35 L426.73,386.24 L427.73,386.13 L428.74,386.01 L429.74,385.89 L430.75,385.77 L431.75,385.64 L432.75,385.51 L433.76,385.37 L434.76,385.24 L435.77,385.09 L436.77,384.95 L437.78,384.80 L438.79,384.64 L439.79,384.49 L440.79,384.32 L441.80,384.16 L442.81,383.99 L443.81,383.81 L444.81,383.64 L445.82,383.45 L446.82,383.27 L447.83,383.08 L448.84,382.88 L449.84,382.68 L450.84,382.48 L451.85,382.27 L452.86,382.06 L453.86,381.84 L454.86,381.62 L455.87,381.39 L456.88,381.16 L457.88,380.93 L458.89,380.69 L459.89,380.44 L460.89,380.19 L461.90,379.94 L462.91,379.68 L463.91,379.42 L464.91,379.15 L465.92,378.88 L466.93,378.61 L467.93,378.33 L468.94,378.04 L469.94,377.75 L470.94,377.46 L471.95,377.16 L472.96,376.85 L473.96,376.55 L474.96,376.23 L475.97,375.91 L476.98,375.59 L477.98,375.26 L478.99,374.93 L479.99,374.60 L481.00,374.25 L482.00,373.91 L483.00,373.56 L484.01,373.20 L485.01,372.84 L486.02,372.48 L487.02,372.11 L488.03,371.74 L489.04,371.36 L490.04,370.97 L491.04,370.59 L492.05,370.20 L493.06,369.80 L494.06,369.40 L495.06,368.99 L496.07,368.58 L497.08,368.17 L498.08,367.75 L499.08,367.33 L500.09,366.90 L501.09,366.47 L502.10,366.03 L503.11,365.59 L504.11,365.15 L505.11,364.70 L506.12,364.25 L507.13,363.79 L508.13,363.33 L509.14,362.87 L510.14,362.40 L511.14,361.93 L512.15,361.45 L513.15,360.97 L514.16,360.49 L515.16,360.00 L516.17,359.51 L517.17,359.01 L518.18,358.51 L519.18,358.01 L520.19,357.51 L521.19,357.00 L522.20,356.48 L523.21,355.97 L524.21,355.45 L525.21,354.92 L526.22,354.40 L527.23,353.87 L528.23,353.34 L529.24,352.80 L530.24,352.26 L531.25,351.72 L532.25,351.18 L533.25,350.63 L534.26,350.08 L535.26,349.53 L536.27,348.97 L537.27,348.41 L538.28,347.85 L539.29,347.29 L540.29,346.72 L541.29,346.15 L542.30,345.58 L543.31,345.01 L544.31,344.43 L545.32,343.85 L546.32,343.27 L547.33,342.69 L548.33,342.11 L549.34,341.52 L550.34,340.93 L551.35,340.34 L552.35,339.75 L553.36,339.16 L554.36,338.56 L555.37,337.96 L556.37,337.36 L557.38,336.76 L558.38,336.16 L559.38,335.56 L560.39,334.95 L561.39,334.34 L562.40,333.74 L563.40,333.13 L564.41,332.52 L565.41,331.90 L566.42,331.29 L567.42,330.68 L568.43,330.06 L569.43,329.44 L570.44,328.83 L571.44,328.21 L572.45,327.59 L573.46,326.97 L574.46,326.35 L575.46,325.72 L576.47,325.10 L577.48,324.48 L578.48,323.85 L579.49,323.23 L580.49,322.60 L581.50,321.97 L582.50,321.35 L583.50,320.72 L584.51,320.09 L585.51,319.46 L586.52,318.84 L587.52,318.21 L588.53,317.58 L589.54,316.95 L590.54,316.32 L591.54,315.69 L592.55,315.06 L593.56,314.42 L594.56,313.79 L595.56,313.16 L596.57,312.53 L597.58,311.90 L598.58,311.27 L599.59,310.64 L600.59,310.00 L601.59,309.37 L602.60,308.74 L603.61,308.11 L604.61,307.48 L605.62,306.84 L606.62,306.21 L607.63,305.58 L608.63,304.95 L609.63,304.32 L610.64,303.69 L611.64,303.06 L612.65,302.43 L613.66,301.79 L614.66,301.16 L615.66,300.53 L616.67,299.90 L617.67,299.27 L618.68,298.64 L619.69,298.02 L620.69,297.39 L621.69,296.76 L622.70,296.13 L623.71,295.50 L624.71,294.87 L625.71,294.25 L626.72,293.62 L627.73,292.99 L628.73,292.37 L629.74,291.74 L630.74,291.11 L631.75,290.49 L632.75,289.86 L633.75,289.24 L634.76,288.62 L635.76,287.99 L636.77,287.37 L637.77,286.75 L638.78,286.12 L639.79,285.50 L640.79,284.88 L641.79,284.26 L642.80,283.64 L643.81,283.02 L644.81,282.40 L645.81,281.78 L646.82,281.16 L647.83,280.54 L648.83,279.92 L649.84,279.30 L650.84,278.68 L651.84,278.07 L652.85,277.45 L653.86,276.83 L654.86,276.22 L655.87,275.60 L656.87,274.99 L657.88,274.37 L658.88,273.76 L659.88,273.15 L660.89,272.53 L661.89,271.92 L662.90,271.31 L663.91,270.70 L664.91,270.08 L665.91,269.47 L666.92,268.86 L667.92,268.25 L668.93,267.64 L669.94,267.03 L670.94,266.42 L671.94,265.81 L672.95,265.21 L673.96,264.60 L674.96,263.99 L675.96,263.38 L676.97,262.78 L677.98,262.17 L678.98,261.56 L679.99,260.96 L680.99,260.35 L682.00,259.75 L683.00,259.14 L684.00,258.54 L685.01,257.94 L686.01,257.33 L687.02,256.73 L688.02,256.13 L689.03,255.52 L690.04,254.92 L691.04,254.32 L692.04,253.72 L693.05,253.12 L694.06,252.52 L695.06,251.92 L696.06,251.32 L697.07,250.72 L698.08,250.12 L699.08,249.52 L700.09,248.92 L701.09,248.32 L702.09,247.72 L703.10,247.13 L704.11,246.53 L705.11,245.93 L706.12,245.33 L707.12,244.74 L708.13,244.14 L709.13,243.54 L710.13,242.95 L711.14,242.35 L712.14,241.76 L713.15,241.16 L714.16,240.57 L715.16,239.97 L716.16,239.38 L717.17,238.78 L718.17,238.19 L719.18,237.60 L720.19,237.00 L721.19,236.41 L722.19,235.82 L723.20,235.22 L724.20,234.63 L725.21,234.04 L726.21,233.45 L727.22,232.85 L728.23,232.26 L729.23,231.67 L730.24,231.08 L731.24,230.49 L732.25,229.90 L733.25,229.31 L734.25,228.72 L735.26,228.13 L736.26,227.54 L737.27,226.95 L738.27,226.36 L739.28,225.77 L740.29,225.18 L741.29,224.59 L742.30,224.00 L743.30,223.41 L744.30,222.82 L745.31,222.23 L746.31,221.64 L747.32,221.05 L748.33,220.47 L749.33,219.88 L750.34,219.29 L751.34,218.70 L752.35,218.11 L753.35,217.53 L754.35,216.94 L755.36,216.35 L756.37,215.76 L757.37,215.18 L758.38,214.59 L759.38,214.00 L760.38,213.42 L761.39,212.83 L762.40,212.24 L763.40,211.66 L764.40,211.07 L765.41,210.49 L766.41,209.90 L767.42,209.31 L768.42,208.73 L769.43,208.14 L770.44,207.56 L771.44,206.97 L772.45,206.39 L773.45,205.80 L774.45,205.22 L775.46,204.63 L776.46,204.05 L777.47,203.46 L778.48,202.88 L779.48,202.29 L780.49,201.71 L781.49,201.12 L782.50,200.54 L783.50,199.95 L784.50,199.37 L785.51,198.79 L786.51,198.20 L787.52,197.62 L788.52,197.03 L789.53,196.45 L790.54,195.87 L791.54,195.28 L792.55,194.70 L793.55,194.11 L794.55,193.53 L795.56,192.95 L796.56,192.36 L797.57,191.78 L798.58,191.20 L799.58,190.61 L800.59,190.03 L801.59,189.45 L802.60,188.86 L803.60,188.28 L804.60,187.70 L805.61,187.12 L806.62,186.53 L807.62,185.95 L808.63,185.37 L809.63,184.78 L810.63,184.20 L811.64,183.62 L812.65,183.04 L813.65,182.45 L814.65,181.87 L815.66,181.29 L816.66,180.71 L817.67,180.12 L818.67,179.54 L819.68,178.96 L820.69,178.38 L821.69,177.79 L822.70,177.21 L823.70,176.63 L824.70,176.05 L825.71,175.47 L826.71,174.88 L827.72,174.30 L828.73,173.72 L829.73,173.14 L830.74,172.56 L831.74,171.97 L832.75,171.39 L833.75,170.81 L834.75,170.23 L835.76,169.65 L836.76,169.06 L837.77,168.48 L838.77,167.90 L839.78,167.32 L840.79,166.74 L841.79,166.16 L842.80,165.57 L843.80,164.99 L844.80,164.41 L845.81,163.83 L846.81,163.25 L847.82,162.67 L848.83,162.09 L849.83,161.50 L850.84,160.92 L851.84,160.34 L852.85,159.76 L853.85,159.18 L854.85,158.60 L855.86,158.02 L856.87,157.43 L857.87,156.85 L858.88,156.27 L859.88,155.69 L860.88,155.11 L861.89,154.53 L862.90,153.95 L863.90,153.37 L864.90,152.78 L865.91,152.20 L866.91,151.62 L867.92,151.04 L868.92,150.46 L869.93,149.88 L870.94,149.30 L871.94,148.72 L872.95,148.14 L873.95,147.55 L874.95,146.97 L875.96,146.39 L876.96,145.81 L877.97,145.23 L878.98,144.65 L879.98,144.07 L880.99,143.49 L881.99,142.91 L883.00,142.33 L884.00,141.74" class="curve"/><text x="460" y="538" class="label" text-anchor="middle">x</text><text x="28" y="280" class="label" transform="rotate(-90 28 280)" text-anchor="middle">f(x)</text></svg>