<svg xmlns="http://www.w3.org/2000/svg" width="920" height="560" viewBox="0 0 920 560" role="img" aria-label="ReLU activation curve"><style>.bg{fill:#ffffff}.grid{stroke:#e5e7eb;stroke-width:1}.axis{stroke:#9ca3af;stroke-width:1.4}.tick{font:16px -apple-system,BlinkMacSystemFont,'Segoe UI',Arial,sans-serif;fill:#64748b}.title{font:700 30px -apple-system,BlinkMacSystemFont,'Segoe UI',Arial,sans-serif;fill:#111827}.sub{font:18px -apple-system,BlinkMacSystemFont,'Segoe UI',Arial,sans-serif;fill:#475569}.label{font:17px -apple-system,BlinkMacSystemFont,'Segoe UI',Arial,sans-serif;fill:#475569}.curve{fill:none;stroke:#1f77b4;stroke-width:5;stroke-linecap:round;stroke-linejoin:round}</style><rect class="bg" width="100%" height="100%"/><text x="80" y="46" class="title">ReLU</text><text x="80" y="72" class="sub">max(0, x)</text><line x1="160.4" y1="86" x2="160.4" y2="490" class="grid"/><text x="160.4" y="520" class="tick" text-anchor="middle">-4</text>
<line x1="321.2" y1="86" x2="321.2" y2="490" class="grid"/><text x="321.2" y="520" class="tick" text-anchor="middle">-2</text>
<line x1="482" y1="86" x2="482" y2="490" class="grid"/><text x="482" y="520" class="tick" text-anchor="middle">0</text>
<line x1="642.8" y1="86" x2="642.8" y2="490" class="grid"/><text x="642.8" y="520" class="tick" text-anchor="middle">2</text>
<line x1="803.6" y1="86" x2="803.6" y2="490" class="grid"/><text x="803.6" y="520" class="tick" text-anchor="middle">4</text>
<line x1="80" y1="466.7816091954023" x2="884" y2="466.7816091954023" class="grid"/><text x="62" y="471.7816091954023" class="tick" text-anchor="end">-2</text>
<line x1="80" y1="373.9080459770115" x2="884" y2="373.9080459770115" class="grid"/><text x="62" y="378.9080459770115" class="tick" text-anchor="end">0</text>
<line x1="80" y1="281.0344827586207" x2="884" y2="281.0344827586207" class="grid"/><text x="62" y="286.0344827586207" class="tick" text-anchor="end">2</text>
<line x1="80" y1="188.16091954022983" x2="884" y2="188.16091954022983" class="grid"/><text x="62" y="193.16091954022983" class="tick" text-anchor="end">4</text>
<line x1="80" y1="95.28735632183907" x2="884" y2="95.28735632183907" class="grid"/><text x="62" y="100.28735632183907" class="tick" text-anchor="end">6</text><line x1="80" y1="373.9080459770115" x2="884" y2="373.9080459770115" class="axis"/><line x1="482" y1="86" x2="482" y2="490" class="axis"/><path d="M80.00,373.91 L81.01,373.91 L82.01,373.91 L83.01,373.91 L84.02,373.91 L85.03,373.91 L86.03,373.91 L87.04,373.91 L88.04,373.91 L89.04,373.91 L90.05,373.91 L91.06,373.91 L92.06,373.91 L93.06,373.91 L94.07,373.91 L95.08,373.91 L96.08,373.91 L97.09,373.91 L98.09,373.91 L99.09,373.91 L100.10,373.91 L101.11,373.91 L102.11,373.91 L103.11,373.91 L104.12,373.91 L105.13,373.91 L106.13,373.91 L107.14,373.91 L108.14,373.91 L109.14,373.91 L110.15,373.91 L111.16,373.91 L112.16,373.91 L113.16,373.91 L114.17,373.91 L115.17,373.91 L116.18,373.91 L117.19,373.91 L118.19,373.91 L119.19,373.91 L120.20,373.91 L121.21,373.91 L122.21,373.91 L123.21,373.91 L124.22,373.91 L125.22,373.91 L126.23,373.91 L127.24,373.91 L128.24,373.91 L129.25,373.91 L130.25,373.91 L131.25,373.91 L132.26,373.91 L133.26,373.91 L134.27,373.91 L135.28,373.91 L136.28,373.91 L137.29,373.91 L138.29,373.91 L139.29,373.91 L140.30,373.91 L141.31,373.91 L142.31,373.91 L143.31,373.91 L144.32,373.91 L145.32,373.91 L146.33,373.91 L147.34,373.91 L148.34,373.91 L149.34,373.91 L150.35,373.91 L151.36,373.91 L152.36,373.91 L153.36,373.91 L154.37,373.91 L155.38,373.91 L156.38,373.91 L157.39,373.91 L158.39,373.91 L159.39,373.91 L160.40,373.91 L161.41,373.91 L162.41,373.91 L163.42,373.91 L164.42,373.91 L165.43,373.91 L166.43,373.91 L167.44,373.91 L168.44,373.91 L169.44,373.91 L170.45,373.91 L171.46,373.91 L172.46,373.91 L173.47,373.91 L174.47,373.91 L175.47,373.91 L176.48,373.91 L177.49,373.91 L178.49,373.91 L179.50,373.91 L180.50,373.91 L181.51,373.91 L182.51,373.91 L183.51,373.91 L184.52,373.91 L185.53,373.91 L186.53,373.91 L187.53,373.91 L188.54,373.91 L189.54,373.91 L190.55,373.91 L191.56,373.91 L192.56,373.91 L193.56,373.91 L194.57,373.91 L195.57,373.91 L196.58,373.91 L197.58,373.91 L198.59,373.91 L199.59,373.91 L200.60,373.91 L201.61,373.91 L202.61,373.91 L203.62,373.91 L204.62,373.91 L205.63,373.91 L206.63,373.91 L207.63,373.91 L208.64,373.91 L209.64,373.91 L210.65,373.91 L211.66,373.91 L212.66,373.91 L213.67,373.91 L214.67,373.91 L215.68,373.91 L216.68,373.91 L217.69,373.91 L218.69,373.91 L219.69,373.91 L220.70,373.91 L221.71,373.91 L222.71,373.91 L223.72,373.91 L224.72,373.91 L225.72,373.91 L226.73,373.91 L227.73,373.91 L228.74,373.91 L229.74,373.91 L230.75,373.91 L231.76,373.91 L232.76,373.91 L233.77,373.91 L234.77,373.91 L235.78,373.91 L236.78,373.91 L237.78,373.91 L238.79,373.91 L239.79,373.91 L240.80,373.91 L241.81,373.91 L242.81,373.91 L243.81,373.91 L244.82,373.91 L245.82,373.91 L246.83,373.91 L247.83,373.91 L248.84,373.91 L249.84,373.91 L250.85,373.91 L251.86,373.91 L252.86,373.91 L253.87,373.91 L254.87,373.91 L255.88,373.91 L256.88,373.91 L257.88,373.91 L258.89,373.91 L259.89,373.91 L260.90,373.91 L261.90,373.91 L262.91,373.91 L263.92,373.91 L264.92,373.91 L265.93,373.91 L266.93,373.91 L267.94,373.91 L268.94,373.91 L269.94,373.91 L270.95,373.91 L271.96,373.91 L272.96,373.91 L273.97,373.91 L274.97,373.91 L275.98,373.91 L276.98,373.91 L277.99,373.91 L278.99,373.91 L280.00,373.91 L281.00,373.91 L282.00,373.91 L283.01,373.91 L284.01,373.91 L285.02,373.91 L286.02,373.91 L287.03,373.91 L288.03,373.91 L289.04,373.91 L290.04,373.91 L291.05,373.91 L292.06,373.91 L293.06,373.91 L294.06,373.91 L295.07,373.91 L296.07,373.91 L297.08,373.91 L298.08,373.91 L299.09,373.91 L300.10,373.91 L301.10,373.91 L302.11,373.91 L303.11,373.91 L304.12,373.91 L305.12,373.91 L306.13,373.91 L307.13,373.91 L308.13,373.91 L309.14,373.91 L310.14,373.91 L311.15,373.91 L312.15,373.91 L313.16,373.91 L314.17,373.91 L315.17,373.91 L316.18,373.91 L317.18,373.91 L318.19,373.91 L319.19,373.91 L320.19,373.91 L321.20,373.91 L322.21,373.91 L323.21,373.91 L324.22,373.91 L325.22,373.91 L326.23,373.91 L327.23,373.91 L328.24,373.91 L329.24,373.91 L330.25,373.91 L331.25,373.91 L332.25,373.91 L333.26,373.91 L334.26,373.91 L335.27,373.91 L336.27,373.91 L337.28,373.91 L338.28,373.91 L339.29,373.91 L340.29,373.91 L341.30,373.91 L342.31,373.91 L343.31,373.91 L344.31,373.91 L345.32,373.91 L346.32,373.91 L347.33,373.91 L348.33,373.91 L349.34,373.91 L350.34,373.91 L351.35,373.91 L352.36,373.91 L353.36,373.91 L354.37,373.91 L355.37,373.91 L356.38,373.91 L357.38,373.91 L358.38,373.91 L359.39,373.91 L360.39,373.91 L361.40,373.91 L362.41,373.91 L363.41,373.91 L364.42,373.91 L365.42,373.91 L366.43,373.91 L367.43,373.91 L368.44,373.91 L369.44,373.91 L370.44,373.91 L371.45,373.91 L372.46,373.91 L373.46,373.91 L374.47,373.91 L375.47,373.91 L376.48,373.91 L377.48,373.91 L378.48,373.91 L379.49,373.91 L380.50,373.91 L381.50,373.91 L382.50,373.91 L383.51,373.91 L384.52,373.91 L385.52,373.91 L386.52,373.91 L387.53,373.91 L388.53,373.91 L389.54,373.91 L390.54,373.91 L391.55,373.91 L392.56,373.91 L393.56,373.91 L394.56,373.91 L395.57,373.91 L396.57,373.91 L397.58,373.91 L398.58,373.91 L399.59,373.91 L400.59,373.91 L401.60,373.91 L402.61,373.91 L403.61,373.91 L404.61,373.91 L405.62,373.91 L406.63,373.91 L407.63,373.91 L408.64,373.91 L409.64,373.91 L410.64,373.91 L411.65,373.91 L412.66,373.91 L413.66,373.91 L414.66,373.91 L415.67,373.91 L416.68,373.91 L417.68,373.91 L418.69,373.91 L419.69,373.91 L420.69,373.91 L421.70,373.91 L422.71,373.91 L423.71,373.91 L424.71,373.91 L425.72,373.91 L426.73,373.91 L427.73,373.91 L428.74,373.91 L429.74,373.91 L430.75,373.91 L431.75,373.91 L432.75,373.91 L433.76,373.91 L434.76,373.91 L435.77,373.91 L436.77,373.91 L437.78,373.91 L438.79,373.91 L439.79,373.91 L440.79,373.91 L441.80,373.91 L442.81,373.91 L443.81,373.91 L444.81,373.91 L445.82,373.91 L446.82,373.91 L447.83,373.91 L448.84,373.91 L449.84,373.91 L450.84,373.91 L451.85,373.91 L452.86,373.91 L453.86,373.91 L454.86,373.91 L455.87,373.91 L456.88,373.91 L457.88,373.91 L458.89,373.91 L459.89,373.91 L460.89,373.91 L461.90,373.91 L462.91,373.91 L463.91,373.91 L464.91,373.91 L465.92,373.91 L466.93,373.91 L467.93,373.91 L468.94,373.91 L469.94,373.91 L470.94,373.91 L471.95,373.91 L472.96,373.91 L473.96,373.91 L474.96,373.91 L475.97,373.91 L476.98,373.91 L477.98,373.91 L478.99,373.91 L479.99,373.91 L481.00,373.91 L482.00,373.91 L483.00,373.33 L484.01,372.75 L485.01,372.17 L486.02,371.59 L487.02,371.01 L488.03,370.43 L489.04,369.84 L490.04,369.26 L491.04,368.68 L492.05,368.10 L493.06,367.52 L494.06,366.94 L495.06,366.36 L496.07,365.78 L497.08,365.20 L498.08,364.62 L499.08,364.04 L500.09,363.46 L501.09,362.88 L502.10,362.30 L503.11,361.72 L504.11,361.14 L505.11,360.56 L506.12,359.98 L507.13,359.40 L508.13,358.82 L509.14,358.24 L510.14,357.66 L511.14,357.07 L512.15,356.49 L513.15,355.91 L514.16,355.33 L515.16,354.75 L516.17,354.17 L517.17,353.59 L518.18,353.01 L519.18,352.43 L520.19,351.85 L521.19,351.27 L522.20,350.69 L523.21,350.11 L524.21,349.53 L525.21,348.95 L526.22,348.37 L527.23,347.79 L528.23,347.21 L529.24,346.63 L530.24,346.05 L531.25,345.47 L532.25,344.89 L533.25,344.30 L534.26,343.72 L535.26,343.14 L536.27,342.56 L537.27,341.98 L538.28,341.40 L539.29,340.82 L540.29,340.24 L541.29,339.66 L542.30,339.08 L543.31,338.50 L544.31,337.92 L545.32,337.34 L546.32,336.76 L547.33,336.18 L548.33,335.60 L549.34,335.02 L550.34,334.44 L551.35,333.86 L552.35,333.28 L553.36,332.70 L554.36,332.11 L555.37,331.53 L556.37,330.95 L557.38,330.37 L558.38,329.79 L559.38,329.21 L560.39,328.63 L561.39,328.05 L562.40,327.47 L563.40,326.89 L564.41,326.31 L565.41,325.73 L566.42,325.15 L567.42,324.57 L568.43,323.99 L569.43,323.41 L570.44,322.83 L571.44,322.25 L572.45,321.67 L573.46,321.09 L574.46,320.51 L575.46,319.93 L576.47,319.34 L577.48,318.76 L578.48,318.18 L579.49,317.60 L580.49,317.02 L581.50,316.44 L582.50,315.86 L583.50,315.28 L584.51,314.70 L585.51,314.12 L586.52,313.54 L587.52,312.96 L588.53,312.38 L589.54,311.80 L590.54,311.22 L591.54,310.64 L592.55,310.06 L593.56,309.48 L594.56,308.90 L595.56,308.32 L596.57,307.74 L597.58,307.16 L598.58,306.57 L599.59,305.99 L600.59,305.41 L601.59,304.83 L602.60,304.25 L603.61,303.67 L604.61,303.09 L605.62,302.51 L606.62,301.93 L607.63,301.35 L608.63,300.77 L609.63,300.19 L610.64,299.61 L611.64,299.03 L612.65,298.45 L613.66,297.87 L614.66,297.29 L615.66,296.71 L616.67,296.13 L617.67,295.55 L618.68,294.97 L619.69,294.39 L620.69,293.80 L621.69,293.22 L622.70,292.64 L623.71,292.06 L624.71,291.48 L625.71,290.90 L626.72,290.32 L627.73,289.74 L628.73,289.16 L629.74,288.58 L630.74,288.00 L631.75,287.42 L632.75,286.84 L633.75,286.26 L634.76,285.68 L635.76,285.10 L636.77,284.52 L637.77,283.94 L638.78,283.36 L639.79,282.78 L640.79,282.20 L641.79,281.61 L642.80,281.03 L643.81,280.45 L644.81,279.87 L645.81,279.29 L646.82,278.71 L647.83,278.13 L648.83,277.55 L649.84,276.97 L650.84,276.39 L651.84,275.81 L652.85,275.23 L653.86,274.65 L654.86,274.07 L655.87,273.49 L656.87,272.91 L657.88,272.33 L658.88,271.75 L659.88,271.17 L660.89,270.59 L661.89,270.01 L662.90,269.43 L663.91,268.84 L664.91,268.26 L665.91,267.68 L666.92,267.10 L667.92,266.52 L668.93,265.94 L669.94,265.36 L670.94,264.78 L671.94,264.20 L672.95,263.62 L673.96,263.04 L674.96,262.46 L675.96,261.88 L676.97,261.30 L677.98,260.72 L678.98,260.14 L679.99,259.56 L680.99,258.98 L682.00,258.40 L683.00,257.82 L684.00,257.24 L685.01,256.66 L686.01,256.07 L687.02,255.49 L688.02,254.91 L689.03,254.33 L690.04,253.75 L691.04,253.17 L692.04,252.59 L693.05,252.01 L694.06,251.43 L695.06,250.85 L696.06,250.27 L697.07,249.69 L698.08,249.11 L699.08,248.53 L700.09,247.95 L701.09,247.37 L702.09,246.79 L703.10,246.21 L704.11,245.63 L705.11,245.05 L706.12,244.47 L707.12,243.89 L708.13,243.30 L709.13,242.72 L710.13,242.14 L711.14,241.56 L712.14,240.98 L713.15,240.40 L714.16,239.82 L715.16,239.24 L716.16,238.66 L717.17,238.08 L718.17,237.50 L719.18,236.92 L720.19,236.34 L721.19,235.76 L722.19,235.18 L723.20,234.60 L724.20,234.02 L725.21,233.44 L726.21,232.86 L727.22,232.28 L728.23,231.70 L729.23,231.11 L730.24,230.53 L731.24,229.95 L732.25,229.37 L733.25,228.79 L734.25,228.21 L735.26,227.63 L736.26,227.05 L737.27,226.47 L738.27,225.89 L739.28,225.31 L740.29,224.73 L741.29,224.15 L742.30,223.57 L743.30,222.99 L744.30,222.41 L745.31,221.83 L746.31,221.25 L747.32,220.67 L748.33,220.09 L749.33,219.51 L750.34,218.93 L751.34,218.34 L752.35,217.76 L753.35,217.18 L754.35,216.60 L755.36,216.02 L756.37,215.44 L757.37,214.86 L758.38,214.28 L759.38,213.70 L760.38,213.12 L761.39,212.54 L762.40,211.96 L763.40,211.38 L764.40,210.80 L765.41,210.22 L766.41,209.64 L767.42,209.06 L768.42,208.48 L769.43,207.90 L770.44,207.32 L771.44,206.74 L772.45,206.16 L773.45,205.57 L774.45,204.99 L775.46,204.41 L776.46,203.83 L777.47,203.25 L778.48,202.67 L779.48,202.09 L780.49,201.51 L781.49,200.93 L782.50,200.35 L783.50,199.77 L784.50,199.19 L785.51,198.61 L786.51,198.03 L787.52,197.45 L788.52,196.87 L789.53,196.29 L790.54,195.71 L791.54,195.13 L792.55,194.55 L793.55,193.97 L794.55,193.39 L795.56,192.80 L796.56,192.22 L797.57,191.64 L798.58,191.06 L799.58,190.48 L800.59,189.90 L801.59,189.32 L802.60,188.74 L803.60,188.16 L804.60,187.58 L805.61,187.00 L806.62,186.42 L807.62,185.84 L808.63,185.26 L809.63,184.68 L810.63,184.10 L811.64,183.52 L812.65,182.94 L813.65,182.36 L814.65,181.78 L815.66,181.20 L816.66,180.61 L817.67,180.03 L818.67,179.45 L819.68,178.87 L820.69,178.29 L821.69,177.71 L822.70,177.13 L823.70,176.55 L824.70,175.97 L825.71,175.39 L826.71,174.81 L827.72,174.23 L828.73,173.65 L829.73,173.07 L830.74,172.49 L831.74,171.91 L832.75,171.33 L833.75,170.75 L834.75,170.17 L835.76,169.59 L836.76,169.01 L837.77,168.43 L838.77,167.84 L839.78,167.26 L840.79,166.68 L841.79,166.10 L842.80,165.52 L843.80,164.94 L844.80,164.36 L845.81,163.78 L846.81,163.20 L847.82,162.62 L848.83,162.04 L849.83,161.46 L850.84,160.88 L851.84,160.30 L852.85,159.72 L853.85,159.14 L854.85,158.56 L855.86,157.98 L856.87,157.40 L857.87,156.82 L858.88,156.24 L859.88,155.66 L860.88,155.07 L861.89,154.49 L862.90,153.91 L863.90,153.33 L864.90,152.75 L865.91,152.17 L866.91,151.59 L867.92,151.01 L868.92,150.43 L869.93,149.85 L870.94,149.27 L871.94,148.69 L872.95,148.11 L873.95,147.53 L874.95,146.95 L875.96,146.37 L876.96,145.79 L877.97,145.21 L878.98,144.63 L879.98,144.05 L880.99,143.47 L881.99,142.89 L883.00,142.30 L884.00,141.72" class="curve"/><text x="460" y="538" class="label" text-anchor="middle">x</text><text x="28" y="280" class="label" transform="rotate(-90 28 280)" text-anchor="middle">f(x)</text></svg>