<svg xmlns="http://www.w3.org/2000/svg" width="1080" height="1120" viewBox="0 0 1080 1120" role="img" aria-label="ReLU family activation curves overview"><style>.miniTitle{font:700 18px -apple-system,BlinkMacSystemFont,'Segoe UI',Arial,sans-serif;fill:#111827}.miniAxis{stroke:#cbd5e1;stroke-width:1}.heading{font:700 34px -apple-system,BlinkMacSystemFont,'PingFang SC','Segoe UI',Arial,sans-serif;fill:#111827}.sub{font:20px -apple-system,BlinkMacSystemFont,'PingFang SC','Segoe UI',Arial,sans-serif;fill:#475569}</style><rect width="100%" height="100%" fill="#f8fafc"/><text x="40" y="48" class="heading">ReLU 系列激活函数曲线速览</text><text x="40" y="78" class="sub">多数小图使用 x ∈ [-5, 5]；ReLU6 横轴延伸到 8 以显示 y = 6 平台</text><g><rect x="40" y="94" width="300" height="220" fill="#fff" stroke="#e5e7eb"/><text x="56" y="120" class="miniTitle">ReLU</text><line x1="74" y1="243.17241379310343" x2="320" y2="243.17241379310343" class="miniAxis"/><line x1="197" y1="132" x2="197" y2="288" class="miniAxis"/><polyline points="74.00,243.17 75.54,243.17 77.08,243.17 78.61,243.17 80.15,243.17 81.69,243.17 83.22,243.17 84.76,243.17 86.30,243.17 87.84,243.17 89.38,243.17 90.91,243.17 92.45,243.17 93.99,243.17 95.53,243.17 97.06,243.17 98.60,243.17 100.14,243.17 101.67,243.17 103.21,243.17 104.75,243.17 106.29,243.17 107.83,243.17 109.36,243.17 110.90,243.17 112.44,243.17 113.97,243.17 115.51,243.17 117.05,243.17 118.59,243.17 120.13,243.17 121.66,243.17 123.20,243.17 124.74,243.17 126.28,243.17 127.81,243.17 129.35,243.17 130.89,243.17 132.43,243.17 133.96,243.17 135.50,243.17 137.04,243.17 138.57,243.17 140.11,243.17 141.65,243.17 143.19,243.17 144.72,243.17 146.26,243.17 147.80,243.17 149.34,243.17 150.88,243.17 152.41,243.17 153.95,243.17 155.49,243.17 157.03,243.17 158.56,243.17 160.10,243.17 161.64,243.17 163.18,243.17 164.71,243.17 166.25,243.17 167.79,243.17 169.32,243.17 170.86,243.17 172.40,243.17 173.94,243.17 175.47,243.17 177.01,243.17 178.55,243.17 180.09,243.17 181.63,243.17 183.16,243.17 184.70,243.17 186.24,243.17 187.78,243.17 189.31,243.17 190.85,243.17 192.39,243.17 193.93,243.17 195.46,243.17 197.00,243.17 198.54,242.05 200.07,240.93 201.61,239.81 203.15,238.69 204.69,237.57 206.22,236.45 207.76,235.33 209.30,234.21 210.84,233.09 212.38,231.97 213.91,230.84 215.45,229.72 216.99,228.60 218.53,227.48 220.06,226.36 221.60,225.24 223.14,224.12 224.68,223.00 226.21,221.88 227.75,220.76 229.29,219.64 230.82,218.52 232.36,217.40 233.90,216.28 235.44,215.16 236.97,214.03 238.51,212.91 240.05,211.79 241.59,210.67 243.13,209.55 244.66,208.43 246.20,207.31 247.74,206.19 249.28,205.07 250.81,203.95 252.35,202.83 253.89,201.71 255.43,200.59 256.96,199.47 258.50,198.34 260.04,197.22 261.57,196.10 263.11,194.98 264.65,193.86 266.19,192.74 267.73,191.62 269.26,190.50 270.80,189.38 272.34,188.26 273.88,187.14 275.41,186.02 276.95,184.90 278.49,183.78 280.02,182.66 281.56,181.53 283.10,180.41 284.64,179.29 286.18,178.17 287.71,177.05 289.25,175.93 290.79,174.81 292.32,173.69 293.86,172.57 295.40,171.45 296.94,170.33 298.48,169.21 300.01,168.09 301.55,166.97 303.09,165.84 304.63,164.72 306.16,163.60 307.70,162.48 309.24,161.36 310.77,160.24 312.31,159.12 313.85,158.00 315.39,156.88 316.93,155.76 318.46,154.64 320.00,153.52" fill="none" stroke="#1f77b4" stroke-width="3" stroke-linecap="round" stroke-linejoin="round"/></g>
<g><rect x="370" y="94" width="300" height="220" fill="#fff" stroke="#e5e7eb"/><text x="386" y="120" class="miniTitle">Leaky ReLU</text><line x1="404" y1="243.17241379310343" x2="650" y2="243.17241379310343" class="miniAxis"/><line x1="527" y1="132" x2="527" y2="288" class="miniAxis"/><polyline points="404.00,252.14 405.54,252.03 407.07,251.91 408.61,251.80 410.15,251.69 411.69,251.58 413.23,251.47 414.76,251.35 416.30,251.24 417.84,251.13 419.38,251.02 420.91,250.91 422.45,250.79 423.99,250.68 425.52,250.57 427.06,250.46 428.60,250.34 430.14,250.23 431.68,250.12 433.21,250.01 434.75,249.90 436.29,249.78 437.82,249.67 439.36,249.56 440.90,249.45 442.44,249.34 443.98,249.22 445.51,249.11 447.05,249.00 448.59,248.89 450.13,248.78 451.66,248.66 453.20,248.55 454.74,248.44 456.27,248.33 457.81,248.22 459.35,248.10 460.89,247.99 462.43,247.88 463.96,247.77 465.50,247.66 467.04,247.54 468.57,247.43 470.11,247.32 471.65,247.21 473.19,247.09 474.73,246.98 476.26,246.87 477.80,246.76 479.34,246.65 480.88,246.53 482.41,246.42 483.95,246.31 485.49,246.20 487.02,246.09 488.56,245.97 490.10,245.86 491.64,245.75 493.18,245.64 494.71,245.53 496.25,245.41 497.79,245.30 499.32,245.19 500.86,245.08 502.40,244.97 503.94,244.85 505.48,244.74 507.01,244.63 508.55,244.52 510.09,244.41 511.63,244.29 513.16,244.18 514.70,244.07 516.24,243.96 517.77,243.84 519.31,243.73 520.85,243.62 522.39,243.51 523.92,243.40 525.46,243.28 527.00,243.17 528.54,242.05 530.08,240.93 531.61,239.81 533.15,238.69 534.69,237.57 536.23,236.45 537.76,235.33 539.30,234.21 540.84,233.09 542.38,231.97 543.91,230.84 545.45,229.72 546.99,228.60 548.52,227.48 550.06,226.36 551.60,225.24 553.14,224.12 554.67,223.00 556.21,221.88 557.75,220.76 559.29,219.64 560.83,218.52 562.36,217.40 563.90,216.28 565.44,215.16 566.98,214.03 568.51,212.91 570.05,211.79 571.59,210.67 573.13,209.55 574.66,208.43 576.20,207.31 577.74,206.19 579.27,205.07 580.81,203.95 582.35,202.83 583.89,201.71 585.42,200.59 586.96,199.47 588.50,198.34 590.04,197.22 591.58,196.10 593.11,194.98 594.65,193.86 596.19,192.74 597.73,191.62 599.26,190.50 600.80,189.38 602.34,188.26 603.88,187.14 605.41,186.02 606.95,184.90 608.49,183.78 610.02,182.66 611.56,181.53 613.10,180.41 614.64,179.29 616.17,178.17 617.71,177.05 619.25,175.93 620.79,174.81 622.33,173.69 623.86,172.57 625.40,171.45 626.94,170.33 628.48,169.21 630.01,168.09 631.55,166.97 633.09,165.84 634.63,164.72 636.16,163.60 637.70,162.48 639.24,161.36 640.77,160.24 642.31,159.12 643.85,158.00 645.39,156.88 646.92,155.76 648.46,154.64 650.00,153.52" fill="none" stroke="#0f766e" stroke-width="3" stroke-linecap="round" stroke-linejoin="round"/></g>
<g><rect x="700" y="94" width="300" height="220" fill="#fff" stroke="#e5e7eb"/><text x="716" y="120" class="miniTitle">PReLU</text><line x1="734" y1="243.17241379310343" x2="980" y2="243.17241379310343" class="miniAxis"/><line x1="857" y1="132" x2="857" y2="288" class="miniAxis"/><polyline points="734.00,265.59 735.54,265.31 737.08,265.03 738.61,264.75 740.15,264.47 741.69,264.19 743.23,263.91 744.76,263.63 746.30,263.34 747.84,263.06 749.38,262.78 750.91,262.50 752.45,262.22 753.99,261.94 755.52,261.66 757.06,261.38 758.60,261.10 760.14,260.82 761.67,260.54 763.21,260.26 764.75,259.98 766.29,259.70 767.83,259.42 769.36,259.14 770.90,258.86 772.44,258.58 773.98,258.30 775.51,258.02 777.05,257.74 778.59,257.46 780.13,257.18 781.66,256.90 783.20,256.62 784.74,256.34 786.27,256.06 787.81,255.78 789.35,255.50 790.89,255.22 792.42,254.94 793.96,254.66 795.50,254.38 797.04,254.10 798.58,253.82 800.11,253.54 801.65,253.26 803.19,252.98 804.73,252.70 806.26,252.42 807.80,252.14 809.34,251.86 810.88,251.58 812.41,251.30 813.95,251.02 815.49,250.74 817.02,250.46 818.56,250.18 820.10,249.90 821.64,249.62 823.17,249.34 824.71,249.06 826.25,248.78 827.79,248.50 829.33,248.22 830.86,247.94 832.40,247.66 833.94,247.38 835.48,247.09 837.01,246.81 838.55,246.53 840.09,246.25 841.63,245.97 843.16,245.69 844.70,245.41 846.24,245.13 847.77,244.85 849.31,244.57 850.85,244.29 852.39,244.01 853.92,243.73 855.46,243.45 857.00,243.17 858.54,242.05 860.08,240.93 861.61,239.81 863.15,238.69 864.69,237.57 866.23,236.45 867.76,235.33 869.30,234.21 870.84,233.09 872.38,231.97 873.91,230.84 875.45,229.72 876.99,228.60 878.52,227.48 880.06,226.36 881.60,225.24 883.14,224.12 884.67,223.00 886.21,221.88 887.75,220.76 889.29,219.64 890.83,218.52 892.36,217.40 893.90,216.28 895.44,215.16 896.98,214.03 898.51,212.91 900.05,211.79 901.59,210.67 903.13,209.55 904.66,208.43 906.20,207.31 907.74,206.19 909.27,205.07 910.81,203.95 912.35,202.83 913.89,201.71 915.42,200.59 916.96,199.47 918.50,198.34 920.04,197.22 921.58,196.10 923.11,194.98 924.65,193.86 926.19,192.74 927.73,191.62 929.26,190.50 930.80,189.38 932.34,188.26 933.88,187.14 935.41,186.02 936.95,184.90 938.49,183.78 940.02,182.66 941.56,181.53 943.10,180.41 944.64,179.29 946.17,178.17 947.71,177.05 949.25,175.93 950.79,174.81 952.33,173.69 953.86,172.57 955.40,171.45 956.94,170.33 958.48,169.21 960.01,168.09 961.55,166.97 963.09,165.84 964.63,164.72 966.16,163.60 967.70,162.48 969.24,161.36 970.77,160.24 972.31,159.12 973.85,158.00 975.39,156.88 976.92,155.76 978.46,154.64 980.00,153.52" fill="none" stroke="#7c3aed" stroke-width="3" stroke-linecap="round" stroke-linejoin="round"/></g>
<g><rect x="40" y="344" width="300" height="220" fill="#fff" stroke="#e5e7eb"/><text x="56" y="370" class="miniTitle">RReLU</text><line x1="74" y1="493.17241379310343" x2="320" y2="493.17241379310343" class="miniAxis"/><line x1="197" y1="382" x2="197" y2="538" class="miniAxis"/><polyline points="74.00,509.31 75.54,509.11 77.08,508.91 78.61,508.71 80.15,508.50 81.69,508.30 83.22,508.10 84.76,507.90 86.30,507.70 87.84,507.49 89.38,507.29 90.91,507.09 92.45,506.89 93.99,506.69 95.53,506.49 97.06,506.28 98.60,506.08 100.14,505.88 101.67,505.68 103.21,505.48 104.75,505.28 106.29,505.07 107.83,504.87 109.36,504.67 110.90,504.47 112.44,504.27 113.97,504.07 115.51,503.86 117.05,503.66 118.59,503.46 120.13,503.26 121.66,503.06 123.20,502.86 124.74,502.65 126.28,502.45 127.81,502.25 129.35,502.05 130.89,501.85 132.43,501.64 133.96,501.44 135.50,501.24 137.04,501.04 138.57,500.84 140.11,500.64 141.65,500.43 143.19,500.23 144.72,500.03 146.26,499.83 147.80,499.63 149.34,499.43 150.88,499.22 152.41,499.02 153.95,498.82 155.49,498.62 157.03,498.42 158.56,498.22 160.10,498.01 161.64,497.81 163.18,497.61 164.71,497.41 166.25,497.21 167.79,497.01 169.32,496.80 170.86,496.60 172.40,496.40 173.94,496.20 175.47,496.00 177.01,495.79 178.55,495.59 180.09,495.39 181.63,495.19 183.16,494.99 184.70,494.79 186.24,494.58 187.78,494.38 189.31,494.18 190.85,493.98 192.39,493.78 193.93,493.58 195.46,493.37 197.00,493.17 198.54,492.05 200.07,490.93 201.61,489.81 203.15,488.69 204.69,487.57 206.22,486.45 207.76,485.33 209.30,484.21 210.84,483.09 212.38,481.97 213.91,480.84 215.45,479.72 216.99,478.60 218.53,477.48 220.06,476.36 221.60,475.24 223.14,474.12 224.68,473.00 226.21,471.88 227.75,470.76 229.29,469.64 230.82,468.52 232.36,467.40 233.90,466.28 235.44,465.16 236.97,464.03 238.51,462.91 240.05,461.79 241.59,460.67 243.13,459.55 244.66,458.43 246.20,457.31 247.74,456.19 249.28,455.07 250.81,453.95 252.35,452.83 253.89,451.71 255.43,450.59 256.96,449.47 258.50,448.34 260.04,447.22 261.57,446.10 263.11,444.98 264.65,443.86 266.19,442.74 267.73,441.62 269.26,440.50 270.80,439.38 272.34,438.26 273.88,437.14 275.41,436.02 276.95,434.90 278.49,433.78 280.02,432.66 281.56,431.53 283.10,430.41 284.64,429.29 286.18,428.17 287.71,427.05 289.25,425.93 290.79,424.81 292.32,423.69 293.86,422.57 295.40,421.45 296.94,420.33 298.48,419.21 300.01,418.09 301.55,416.97 303.09,415.84 304.63,414.72 306.16,413.60 307.70,412.48 309.24,411.36 310.77,410.24 312.31,409.12 313.85,408.00 315.39,406.88 316.93,405.76 318.46,404.64 320.00,403.52" fill="none" stroke="#c2410c" stroke-width="3" stroke-linecap="round" stroke-linejoin="round"/></g>
<g><rect x="370" y="344" width="300" height="220" fill="#fff" stroke="#e5e7eb"/><text x="386" y="370" class="miniTitle">ELU</text><line x1="404" y1="493.17241379310343" x2="650" y2="493.17241379310343" class="miniAxis"/><line x1="527" y1="382" x2="527" y2="538" class="miniAxis"/><polyline points="404.00,510.98 405.54,510.97 407.07,510.97 408.61,510.96 410.15,510.95 411.69,510.94 413.23,510.93 414.76,510.92 416.30,510.90 417.84,510.89 419.38,510.88 420.91,510.86 422.45,510.85 423.99,510.83 425.52,510.81 427.06,510.79 428.60,510.78 430.14,510.75 431.68,510.73 433.21,510.71 434.75,510.68 436.29,510.65 437.82,510.63 439.36,510.59 440.90,510.56 442.44,510.53 443.98,510.49 445.51,510.45 447.05,510.41 448.59,510.36 450.13,510.32 451.66,510.26 453.20,510.21 454.74,510.15 456.27,510.09 457.81,510.03 459.35,509.96 460.89,509.88 462.43,509.80 463.96,509.72 465.50,509.63 467.04,509.54 468.57,509.44 470.11,509.33 471.65,509.21 473.19,509.09 474.73,508.96 476.26,508.82 477.80,508.68 479.34,508.52 480.88,508.35 482.41,508.18 483.95,507.99 485.49,507.79 487.02,507.57 488.56,507.34 490.10,507.10 491.64,506.84 493.18,506.57 494.71,506.28 496.25,505.97 497.79,505.63 499.32,505.28 500.86,504.91 502.40,504.51 503.94,504.08 505.48,503.63 507.01,503.15 508.55,502.63 510.09,502.09 511.63,501.51 513.16,500.89 514.70,500.23 516.24,499.53 517.77,498.78 519.31,497.98 520.85,497.14 522.39,496.24 523.92,495.28 525.46,494.26 527.00,493.17 528.54,492.05 530.08,490.93 531.61,489.81 533.15,488.69 534.69,487.57 536.23,486.45 537.76,485.33 539.30,484.21 540.84,483.09 542.38,481.97 543.91,480.84 545.45,479.72 546.99,478.60 548.52,477.48 550.06,476.36 551.60,475.24 553.14,474.12 554.67,473.00 556.21,471.88 557.75,470.76 559.29,469.64 560.83,468.52 562.36,467.40 563.90,466.28 565.44,465.16 566.98,464.03 568.51,462.91 570.05,461.79 571.59,460.67 573.13,459.55 574.66,458.43 576.20,457.31 577.74,456.19 579.27,455.07 580.81,453.95 582.35,452.83 583.89,451.71 585.42,450.59 586.96,449.47 588.50,448.34 590.04,447.22 591.58,446.10 593.11,444.98 594.65,443.86 596.19,442.74 597.73,441.62 599.26,440.50 600.80,439.38 602.34,438.26 603.88,437.14 605.41,436.02 606.95,434.90 608.49,433.78 610.02,432.66 611.56,431.53 613.10,430.41 614.64,429.29 616.17,428.17 617.71,427.05 619.25,425.93 620.79,424.81 622.33,423.69 623.86,422.57 625.40,421.45 626.94,420.33 628.48,419.21 630.01,418.09 631.55,416.97 633.09,415.84 634.63,414.72 636.16,413.60 637.70,412.48 639.24,411.36 640.77,410.24 642.31,409.12 643.85,408.00 645.39,406.88 646.92,405.76 648.46,404.64 650.00,403.52" fill="none" stroke="#d97706" stroke-width="3" stroke-linecap="round" stroke-linejoin="round"/></g>
<g><rect x="700" y="344" width="300" height="220" fill="#fff" stroke="#e5e7eb"/><text x="716" y="370" class="miniTitle">SELU</text><line x1="734" y1="493.17241379310343" x2="980" y2="493.17241379310343" class="miniAxis"/><line x1="857" y1="382" x2="857" y2="538" class="miniAxis"/><polyline points="734.00,524.48 735.54,524.47 737.08,524.46 738.61,524.44 740.15,524.42 741.69,524.41 743.23,524.39 744.76,524.37 746.30,524.35 747.84,524.32 749.38,524.30 750.91,524.27 752.45,524.25 753.99,524.22 755.52,524.19 757.06,524.15 758.60,524.12 760.14,524.08 761.67,524.04 763.21,524.00 764.75,523.96 766.29,523.91 767.83,523.86 769.36,523.80 770.90,523.74 772.44,523.68 773.98,523.62 775.51,523.55 777.05,523.47 778.59,523.40 780.13,523.31 781.66,523.22 783.20,523.13 784.74,523.03 786.27,522.92 787.81,522.80 789.35,522.68 790.89,522.55 792.42,522.41 793.96,522.27 795.50,522.11 797.04,521.94 798.58,521.76 800.11,521.58 801.65,521.37 803.19,521.16 804.73,520.93 806.26,520.69 807.80,520.43 809.34,520.16 810.88,519.86 812.41,519.55 813.95,519.22 815.49,518.87 817.02,518.49 818.56,518.09 820.10,517.66 821.64,517.21 823.17,516.73 824.71,516.21 826.25,515.67 827.79,515.08 829.33,514.46 830.86,513.80 832.40,513.10 833.94,512.35 835.48,511.56 837.01,510.71 838.55,509.81 840.09,508.85 841.63,507.82 843.16,506.73 844.70,505.58 846.24,504.34 847.77,503.03 849.31,501.63 850.85,500.15 852.39,498.56 853.92,496.88 855.46,495.08 857.00,493.17 858.54,491.99 860.08,490.82 861.61,489.64 863.15,488.46 864.69,487.28 866.23,486.11 867.76,484.93 869.30,483.75 870.84,482.57 872.38,481.40 873.91,480.22 875.45,479.04 876.99,477.86 878.52,476.69 880.06,475.51 881.60,474.33 883.14,473.15 884.67,471.98 886.21,470.80 887.75,469.62 889.29,468.44 890.83,467.27 892.36,466.09 893.90,464.91 895.44,463.73 896.98,462.56 898.51,461.38 900.05,460.20 901.59,459.02 903.13,457.85 904.66,456.67 906.20,455.49 907.74,454.31 909.27,453.14 910.81,451.96 912.35,450.78 913.89,449.60 915.42,448.43 916.96,447.25 918.50,446.07 920.04,444.89 921.58,443.72 923.11,442.54 924.65,441.36 926.19,440.18 927.73,439.01 929.26,437.83 930.80,436.65 932.34,435.47 933.88,434.30 935.41,433.12 936.95,431.94 938.49,430.76 940.02,429.59 941.56,428.41 943.10,427.23 944.64,426.05 946.17,424.88 947.71,423.70 949.25,422.52 950.79,421.34 952.33,420.17 953.86,418.99 955.40,417.81 956.94,416.63 958.48,415.46 960.01,414.28 961.55,413.10 963.09,411.92 964.63,410.75 966.16,409.57 967.70,408.39 969.24,407.21 970.77,406.04 972.31,404.86 973.85,403.68 975.39,402.50 976.92,401.33 978.46,400.15 980.00,398.97" fill="none" stroke="#be123c" stroke-width="3" stroke-linecap="round" stroke-linejoin="round"/></g>
<g><rect x="40" y="594" width="300" height="220" fill="#fff" stroke="#e5e7eb"/><text x="56" y="620" class="miniTitle">ReLU6</text><line x1="74" y1="648.421052631579" x2="320" y2="648.421052631579" stroke="#2563eb" stroke-width="1" stroke-dasharray="4 4" opacity=".5"/><line x1="74" y1="771.578947368421" x2="320" y2="771.578947368421" class="miniAxis"/><line x1="123.2" y1="632" x2="123.2" y2="788" class="miniAxis"/><polyline points="74.00,771.58 76.05,771.58 78.10,771.58 80.15,771.58 82.20,771.58 84.25,771.58 86.30,771.58 88.35,771.58 90.40,771.58 92.45,771.58 94.50,771.58 96.55,771.58 98.60,771.58 100.65,771.58 102.70,771.58 104.75,771.58 106.80,771.58 108.85,771.58 110.90,771.58 112.95,771.58 115.00,771.58 117.05,771.58 119.10,771.58 121.15,771.58 123.20,771.58 125.25,769.87 127.30,768.16 129.35,766.45 131.40,764.74 133.45,763.03 135.50,761.32 137.55,759.61 139.60,757.89 141.65,756.18 143.70,754.47 145.75,752.76 147.80,751.05 149.85,749.34 151.90,747.63 153.95,745.92 156.00,744.21 158.05,742.50 160.10,740.79 162.15,739.08 164.20,737.37 166.25,735.66 168.30,733.95 170.35,732.24 172.40,730.53 174.45,728.82 176.50,727.11 178.55,725.39 180.60,723.68 182.65,721.97 184.70,720.26 186.75,718.55 188.80,716.84 190.85,715.13 192.90,713.42 194.95,711.71 197.00,710.00 199.05,708.29 201.10,706.58 203.15,704.87 205.20,703.16 207.25,701.45 209.30,699.74 211.35,698.03 213.40,696.32 215.45,694.61 217.50,692.89 219.55,691.18 221.60,689.47 223.65,687.76 225.70,686.05 227.75,684.34 229.80,682.63 231.85,680.92 233.90,679.21 235.95,677.50 238.00,675.79 240.05,674.08 242.10,672.37 244.15,670.66 246.20,668.95 248.25,667.24 250.30,665.53 252.35,663.82 254.40,662.11 256.45,660.39 258.50,658.68 260.55,656.97 262.60,655.26 264.65,653.55 266.70,651.84 268.75,650.13 270.80,648.42 272.85,648.42 274.90,648.42 276.95,648.42 279.00,648.42 281.05,648.42 283.10,648.42 285.15,648.42 287.20,648.42 289.25,648.42 291.30,648.42 293.35,648.42 295.40,648.42 297.45,648.42 299.50,648.42 301.55,648.42 303.60,648.42 305.65,648.42 307.70,648.42 309.75,648.42 311.80,648.42 313.85,648.42 315.90,648.42 317.95,648.42 320.00,648.42" fill="none" stroke="#2563eb" stroke-width="3" stroke-linecap="round" stroke-linejoin="round"/></g>
<g><rect x="370" y="594" width="300" height="220" fill="#fff" stroke="#e5e7eb"/><text x="386" y="620" class="miniTitle">Softplus</text><line x1="404" y1="743.1724137931035" x2="650" y2="743.1724137931035" class="miniAxis"/><line x1="527" y1="632" x2="527" y2="788" class="miniAxis"/><polyline points="404.00,743.05 405.54,743.04 407.07,743.04 408.61,743.03 410.15,743.02 411.69,743.01 413.23,743.00 414.76,742.99 416.30,742.97 417.84,742.96 419.38,742.95 420.91,742.93 422.45,742.92 423.99,742.90 425.52,742.88 427.06,742.87 428.60,742.85 430.14,742.83 431.68,742.80 433.21,742.78 434.75,742.76 436.29,742.73 437.82,742.70 439.36,742.67 440.90,742.64 442.44,742.61 443.98,742.57 445.51,742.53 447.05,742.49 448.59,742.45 450.13,742.40 451.66,742.35 453.20,742.30 454.74,742.25 456.27,742.19 457.81,742.13 459.35,742.06 460.89,741.99 462.43,741.92 463.96,741.84 465.50,741.76 467.04,741.67 468.57,741.58 470.11,741.48 471.65,741.38 473.19,741.27 474.73,741.15 476.26,741.03 477.80,740.90 479.34,740.76 480.88,740.61 482.41,740.46 483.95,740.30 485.49,740.13 487.02,739.95 488.56,739.76 490.10,739.56 491.64,739.35 493.18,739.13 494.71,738.90 496.25,738.66 497.79,738.40 499.32,738.13 500.86,737.85 502.40,737.56 503.94,737.25 505.48,736.92 507.01,736.59 508.55,736.24 510.09,735.87 511.63,735.49 513.16,735.09 514.70,734.67 516.24,734.24 517.77,733.79 519.31,733.33 520.85,732.85 522.39,732.35 523.92,731.83 525.46,731.30 527.00,730.74 528.54,730.17 530.08,729.59 531.61,728.98 533.15,728.36 534.69,727.72 536.23,727.07 537.76,726.40 539.30,725.71 540.84,725.00 542.38,724.28 543.91,723.54 545.45,722.79 546.99,722.02 548.52,721.23 550.06,720.44 551.60,719.62 553.14,718.80 554.67,717.96 556.21,717.11 557.75,716.24 559.29,715.36 560.83,714.48 562.36,713.58 563.90,712.66 565.44,711.74 566.98,710.81 568.51,709.87 570.05,708.92 571.59,707.96 573.13,706.99 574.66,706.02 576.20,705.03 577.74,704.04 579.27,703.05 580.81,702.04 582.35,701.03 583.89,700.01 585.42,698.99 586.96,697.96 588.50,696.93 590.04,695.89 591.58,694.85 593.11,693.80 594.65,692.75 596.19,691.70 597.73,690.64 599.26,689.57 600.80,688.51 602.34,687.44 603.88,686.37 605.41,685.29 606.95,684.21 608.49,683.13 610.02,682.05 611.56,680.97 613.10,679.88 614.64,678.79 616.17,677.70 617.71,676.61 619.25,675.51 620.79,674.42 622.33,673.32 623.86,672.22 625.40,671.12 626.94,670.02 628.48,668.92 630.01,667.82 631.55,666.71 633.09,665.61 634.63,664.50 636.16,663.39 637.70,662.28 639.24,661.18 640.77,660.07 642.31,658.96 643.85,657.85 645.39,656.73 646.92,655.62 648.46,654.51 650.00,653.40" fill="none" stroke="#16a34a" stroke-width="3" stroke-linecap="round" stroke-linejoin="round"/></g>
<g><rect x="700" y="594" width="300" height="220" fill="#fff" stroke="#e5e7eb"/><text x="716" y="620" class="miniTitle">GELU</text><line x1="734" y1="743.1724137931035" x2="980" y2="743.1724137931035" class="miniAxis"/><line x1="857" y1="632" x2="857" y2="788" class="miniAxis"/><polyline points="734.00,743.17 735.54,743.17 737.08,743.17 738.61,743.17 740.15,743.17 741.69,743.17 743.23,743.17 744.76,743.17 746.30,743.17 747.84,743.17 749.38,743.17 750.91,743.17 752.45,743.17 753.99,743.17 755.52,743.17 757.06,743.17 758.60,743.17 760.14,743.17 761.67,743.17 763.21,743.18 764.75,743.18 766.29,743.18 767.83,743.18 769.36,743.18 770.90,743.18 772.44,743.19 773.98,743.19 775.51,743.19 777.05,743.20 778.59,743.21 780.13,743.22 781.66,743.23 783.20,743.24 784.74,743.25 786.27,743.27 787.81,743.29 789.35,743.31 790.89,743.34 792.42,743.37 793.96,743.40 795.50,743.44 797.04,743.49 798.58,743.54 800.11,743.60 801.65,743.66 803.19,743.73 804.73,743.81 806.26,743.89 807.80,743.99 809.34,744.09 810.88,744.19 812.41,744.31 813.95,744.43 815.49,744.56 817.02,744.69 818.56,744.83 820.10,744.97 821.64,745.12 823.17,745.26 824.71,745.40 826.25,745.54 827.79,745.68 829.33,745.80 830.86,745.92 832.40,746.02 833.94,746.10 835.48,746.17 837.01,746.21 838.55,746.22 840.09,746.20 841.63,746.15 843.16,746.07 844.70,745.94 846.24,745.77 847.77,745.55 849.31,745.29 850.85,744.97 852.39,744.60 853.92,744.18 855.46,743.70 857.00,743.17 858.54,742.58 860.08,741.94 861.61,741.24 863.15,740.49 864.69,739.68 866.23,738.83 867.76,737.92 869.30,736.97 870.84,735.98 872.38,734.95 873.91,733.88 875.45,732.77 876.99,731.64 878.52,730.48 880.06,729.29 881.60,728.09 883.14,726.87 884.67,725.63 886.21,724.39 887.75,723.13 889.29,721.87 890.83,720.61 892.36,719.34 893.90,718.08 895.44,716.81 896.98,715.56 898.51,714.30 900.05,713.05 901.59,711.81 903.13,710.57 904.66,709.35 906.20,708.12 907.74,706.91 909.27,705.71 910.81,704.51 912.35,703.32 913.89,702.13 915.42,700.95 916.96,699.78 918.50,698.62 920.04,697.45 921.58,696.30 923.11,695.15 924.65,694.00 926.19,692.86 927.73,691.72 929.26,690.58 930.80,689.44 932.34,688.31 933.88,687.18 935.41,686.05 936.95,684.92 938.49,683.80 940.02,682.67 941.56,681.55 943.10,680.42 944.64,679.30 946.17,678.18 947.71,677.06 949.25,675.93 950.79,674.81 952.33,673.69 953.86,672.57 955.40,671.45 956.94,670.33 958.48,669.21 960.01,668.09 961.55,666.97 963.09,665.85 964.63,664.72 966.16,663.60 967.70,662.48 969.24,661.36 970.77,660.24 972.31,659.12 973.85,658.00 975.39,656.88 976.92,655.76 978.46,654.64 980.00,653.52" fill="none" stroke="#9333ea" stroke-width="3" stroke-linecap="round" stroke-linejoin="round"/></g>
<g><rect x="40" y="844" width="300" height="220" fill="#fff" stroke="#e5e7eb"/><text x="56" y="870" class="miniTitle">SiLU / Swish</text><line x1="74" y1="993.1724137931035" x2="320" y2="993.1724137931035" class="miniAxis"/><line x1="197" y1="882" x2="197" y2="1038" class="miniAxis"/><polyline points="74.00,993.77 75.54,993.80 77.08,993.83 78.61,993.87 80.15,993.90 81.69,993.94 83.22,993.98 84.76,994.02 86.30,994.06 87.84,994.10 89.38,994.15 90.91,994.19 92.45,994.24 93.99,994.30 95.53,994.35 97.06,994.40 98.60,994.46 100.14,994.52 101.67,994.59 103.21,994.65 104.75,994.72 106.29,994.79 107.83,994.86 109.36,994.93 110.90,995.01 112.44,995.09 113.97,995.17 115.51,995.26 117.05,995.35 118.59,995.44 120.13,995.53 121.66,995.63 123.20,995.72 124.74,995.82 126.28,995.93 127.81,996.03 129.35,996.14 130.89,996.24 132.43,996.35 133.96,996.46 135.50,996.57 137.04,996.68 138.57,996.80 140.11,996.91 141.65,997.02 143.19,997.13 144.72,997.24 146.26,997.34 147.80,997.45 149.34,997.55 150.88,997.64 152.41,997.73 153.95,997.82 155.49,997.90 157.03,997.97 158.56,998.03 160.10,998.08 161.64,998.12 163.18,998.15 164.71,998.16 166.25,998.16 167.79,998.15 169.32,998.12 170.86,998.07 172.40,997.99 173.94,997.90 175.47,997.79 177.01,997.65 178.55,997.49 180.09,997.30 181.63,997.08 183.16,996.83 184.70,996.56 186.24,996.25 187.78,995.91 189.31,995.54 190.85,995.14 192.39,994.70 193.93,994.22 195.46,993.72 197.00,993.17 198.54,992.59 200.07,991.98 201.61,991.33 203.15,990.65 204.69,989.94 206.22,989.19 207.76,988.41 209.30,987.59 210.84,986.75 212.38,985.87 213.91,984.97 215.45,984.04 216.99,983.08 218.53,982.10 220.06,981.09 221.60,980.06 223.14,979.01 224.68,977.94 226.21,976.86 227.75,975.75 229.29,974.63 230.82,973.49 232.36,972.34 233.90,971.18 235.44,970.01 236.97,968.83 238.51,967.64 240.05,966.44 241.59,965.23 243.13,964.02 244.66,962.81 246.20,961.59 247.74,960.36 249.28,959.13 250.81,957.91 252.35,956.67 253.89,955.44 255.43,954.21 256.96,952.98 258.50,951.75 260.04,950.51 261.57,949.28 263.11,948.05 264.65,946.82 266.19,945.60 267.73,944.37 269.26,943.15 270.80,941.93 272.34,940.71 273.88,939.50 275.41,938.28 276.95,937.07 278.49,935.86 280.02,934.66 281.56,933.45 283.10,932.25 284.64,931.06 286.18,929.86 287.71,928.67 289.25,927.48 290.79,926.29 292.32,925.10 293.86,923.92 295.40,922.74 296.94,921.56 298.48,920.38 300.01,919.21 301.55,918.04 303.09,916.87 304.63,915.70 306.16,914.53 307.70,913.37 309.24,912.21 310.77,911.05 312.31,909.89 313.85,908.73 315.39,907.58 316.93,906.42 318.46,905.27 320.00,904.12" fill="none" stroke="#db2777" stroke-width="3" stroke-linecap="round" stroke-linejoin="round"/></g>
<g><rect x="370" y="844" width="300" height="220" fill="#fff" stroke="#e5e7eb"/><text x="386" y="870" class="miniTitle">Mish</text><line x1="404" y1="993.1724137931035" x2="650" y2="993.1724137931035" class="miniAxis"/><line x1="527" y1="882" x2="527" y2="1038" class="miniAxis"/><polyline points="404.00,993.77 405.54,993.81 407.07,993.84 408.61,993.87 410.15,993.91 411.69,993.94 413.23,993.98 414.76,994.02 416.30,994.06 417.84,994.11 419.38,994.15 420.91,994.20 422.45,994.25 423.99,994.30 425.52,994.36 427.06,994.41 428.60,994.47 430.14,994.54 431.68,994.60 433.21,994.67 434.75,994.74 436.29,994.81 437.82,994.88 439.36,994.96 440.90,995.04 442.44,995.12 443.98,995.21 445.51,995.30 447.05,995.39 448.59,995.48 450.13,995.58 451.66,995.68 453.20,995.78 454.74,995.89 456.27,996.00 457.81,996.11 459.35,996.22 460.89,996.34 462.43,996.46 463.96,996.58 465.50,996.70 467.04,996.83 468.57,996.95 470.11,997.08 471.65,997.20 473.19,997.33 474.73,997.45 476.26,997.58 477.80,997.70 479.34,997.82 480.88,997.94 482.41,998.05 483.95,998.16 485.49,998.26 487.02,998.35 488.56,998.44 490.10,998.52 491.64,998.58 493.18,998.64 494.71,998.68 496.25,998.70 497.79,998.71 499.32,998.70 500.86,998.67 502.40,998.61 503.94,998.53 505.48,998.43 507.01,998.29 508.55,998.13 510.09,997.93 511.63,997.70 513.16,997.44 514.70,997.13 516.24,996.79 517.77,996.40 519.31,995.97 520.85,995.50 522.39,994.99 523.92,994.43 525.46,993.82 527.00,993.17 528.54,992.48 530.08,991.74 531.61,990.96 533.15,990.13 534.69,989.27 536.23,988.36 537.76,987.42 539.30,986.44 540.84,985.43 542.38,984.39 543.91,983.33 545.45,982.23 546.99,981.12 548.52,979.98 550.06,978.83 551.60,977.66 553.14,976.48 554.67,975.29 556.21,974.08 557.75,972.88 559.29,971.66 560.83,970.45 562.36,969.23 563.90,968.01 565.44,966.79 566.98,965.57 568.51,964.35 570.05,963.14 571.59,961.93 573.13,960.72 574.66,959.52 576.20,958.32 577.74,957.12 579.27,955.93 580.81,954.74 582.35,953.55 583.89,952.37 585.42,951.20 586.96,950.03 588.50,948.86 590.04,947.69 591.58,946.53 593.11,945.37 594.65,944.22 596.19,943.06 597.73,941.91 599.26,940.77 600.80,939.62 602.34,938.48 603.88,937.34 605.41,936.20 606.95,935.06 608.49,933.92 610.02,932.79 611.56,931.65 613.10,930.52 614.64,929.39 616.17,928.26 617.71,927.13 619.25,926.00 620.79,924.87 622.33,923.75 623.86,922.62 625.40,921.49 626.94,920.37 628.48,919.24 630.01,918.12 631.55,917.00 633.09,915.87 634.63,914.75 636.16,913.63 637.70,912.50 639.24,911.38 640.77,910.26 642.31,909.13 643.85,908.01 645.39,906.89 646.92,905.77 648.46,904.65 650.00,903.53" fill="none" stroke="#0891b2" stroke-width="3" stroke-linecap="round" stroke-linejoin="round"/></g></svg>