<svg xmlns="http://www.w3.org/2000/svg" width="920" height="560" viewBox="0 0 920 560" role="img" aria-label="ReLU6 activation curve"><style>.bg{fill:#ffffff}.grid{stroke:#e5e7eb;stroke-width:1}.axis{stroke:#9ca3af;stroke-width:1.4}.tick{font:16px -apple-system,BlinkMacSystemFont,'Segoe UI',Arial,sans-serif;fill:#64748b}.title{font:700 30px -apple-system,BlinkMacSystemFont,'Segoe UI',Arial,sans-serif;fill:#111827}.sub{font:18px -apple-system,BlinkMacSystemFont,'Segoe UI',Arial,sans-serif;fill:#475569}.label{font:17px -apple-system,BlinkMacSystemFont,'Segoe UI',Arial,sans-serif;fill:#475569}.note{font:16px -apple-system,BlinkMacSystemFont,'Segoe UI',Arial,sans-serif;fill:#2563eb}.curve{fill:none;stroke:#2563eb;stroke-width:5;stroke-linecap:round;stroke-linejoin:round}.clip{stroke:#2563eb;stroke-width:1.5;stroke-dasharray:6 6;opacity:.55}</style><rect class="bg" width="100%" height="100%"/><text x="80" y="46" class="title">ReLU6</text><text x="80" y="72" class="sub">clipped at y = 6</text><line x1="80" y1="86" x2="80" y2="490" class="grid"/><text x="80" y="520" class="tick" text-anchor="middle">-2</text>
<line x1="240.8" y1="86" x2="240.8" y2="490" class="grid"/><text x="240.8" y="520" class="tick" text-anchor="middle">0</text>
<line x1="401.6" y1="86" x2="401.6" y2="490" class="grid"/><text x="401.6" y="520" class="tick" text-anchor="middle">2</text>
<line x1="562.4" y1="86" x2="562.4" y2="490" class="grid"/><text x="562.4" y="520" class="tick" text-anchor="middle">4</text>
<line x1="723.2" y1="86" x2="723.2" y2="490" class="grid"/><text x="723.2" y="520" class="tick" text-anchor="middle">6</text>
<line x1="884" y1="86" x2="884" y2="490" class="grid"/><text x="884" y="520" class="tick" text-anchor="middle">8</text>
<line x1="80" y1="447.4736842105263" x2="884" y2="447.4736842105263" class="grid"/><text x="62" y="452.4736842105263" class="tick" text-anchor="end">0</text>
<line x1="80" y1="341.1578947368421" x2="884" y2="341.1578947368421" class="grid"/><text x="62" y="346.1578947368421" class="tick" text-anchor="end">2</text>
<line x1="80" y1="234.84210526315792" x2="884" y2="234.84210526315792" class="grid"/><text x="62" y="239.84210526315792" class="tick" text-anchor="end">4</text>
<line x1="80" y1="128.5263157894737" x2="884" y2="128.5263157894737" class="grid"/><text x="62" y="133.5263157894737" class="tick" text-anchor="end">6</text><line x1="80" y1="447.4736842105263" x2="884" y2="447.4736842105263" class="axis"/><line x1="240.8" y1="86" x2="240.8" y2="490" class="axis"/><line x1="80" y1="128.5263157894737" x2="884" y2="128.5263157894737" class="clip"/><polyline points="80.00,447.47 83.35,447.47 86.70,447.47 90.05,447.47 93.40,447.47 96.75,447.47 100.10,447.47 103.45,447.47 106.80,447.47 110.15,447.47 113.50,447.47 116.85,447.47 120.20,447.47 123.55,447.47 126.90,447.47 130.25,447.47 133.60,447.47 136.95,447.47 140.30,447.47 143.65,447.47 147.00,447.47 150.35,447.47 153.70,447.47 157.05,447.47 160.40,447.47 163.75,447.47 167.10,447.47 170.45,447.47 173.80,447.47 177.15,447.47 180.50,447.47 183.85,447.47 187.20,447.47 190.55,447.47 193.90,447.47 197.25,447.47 200.60,447.47 203.95,447.47 207.30,447.47 210.65,447.47 214.00,447.47 217.35,447.47 220.70,447.47 224.05,447.47 227.40,447.47 230.75,447.47 234.10,447.47 237.45,447.47 240.80,447.47 244.15,445.26 247.50,443.04 250.85,440.83 254.20,438.61 257.55,436.40 260.90,434.18 264.25,431.97 267.60,429.75 270.95,427.54 274.30,425.32 277.65,423.11 281.00,420.89 284.35,418.68 287.70,416.46 291.05,414.25 294.40,412.04 297.75,409.82 301.10,407.61 304.45,405.39 307.80,403.18 311.15,400.96 314.50,398.75 317.85,396.53 321.20,394.32 324.55,392.10 327.90,389.89 331.25,387.67 334.60,385.46 337.95,383.24 341.30,381.03 344.65,378.81 348.00,376.60 351.35,374.38 354.70,372.17 358.05,369.95 361.40,367.74 364.75,365.52 368.10,363.31 371.45,361.09 374.80,358.88 378.15,356.66 381.50,354.45 384.85,352.23 388.20,350.02 391.55,347.80 394.90,345.59 398.25,343.37 401.60,341.16 404.95,338.94 408.30,336.73 411.65,334.51 415.00,332.30 418.35,330.08 421.70,327.87 425.05,325.65 428.40,323.44 431.75,321.22 435.10,319.01 438.45,316.79 441.80,314.58 445.15,312.36 448.50,310.15 451.85,307.93 455.20,305.72 458.55,303.50 461.90,301.29 465.25,299.07 468.60,296.86 471.95,294.64 475.30,292.43 478.65,290.21 482.00,288.00 485.35,285.79 488.70,283.57 492.05,281.36 495.40,279.14 498.75,276.93 502.10,274.71 505.45,272.50 508.80,270.28 512.15,268.07 515.50,265.85 518.85,263.64 522.20,261.42 525.55,259.21 528.90,256.99 532.25,254.78 535.60,252.56 538.95,250.35 542.30,248.13 545.65,245.92 549.00,243.70 552.35,241.49 555.70,239.27 559.05,237.06 562.40,234.84 565.75,232.63 569.10,230.41 572.45,228.20 575.80,225.98 579.15,223.77 582.50,221.55 585.85,219.34 589.20,217.12 592.55,214.91 595.90,212.69 599.25,210.48 602.60,208.26 605.95,206.05 609.30,203.83 612.65,201.62 616.00,199.40 619.35,197.19 622.70,194.97 626.05,192.76 629.40,190.54 632.75,188.33 636.10,186.11 639.45,183.90 642.80,181.68 646.15,179.47 649.50,177.25 652.85,175.04 656.20,172.82 659.55,170.61 662.90,168.39 666.25,166.18 669.60,163.96 672.95,161.75 676.30,159.54 679.65,157.32 683.00,155.11 686.35,152.89 689.70,150.68 693.05,148.46 696.40,146.25 699.75,144.03 703.10,141.82 706.45,139.60 709.80,137.39 713.15,135.17 716.50,132.96 719.85,130.74 723.20,128.53 726.55,128.53 729.90,128.53 733.25,128.53 736.60,128.53 739.95,128.53 743.30,128.53 746.65,128.53 750.00,128.53 753.35,128.53 756.70,128.53 760.05,128.53 763.40,128.53 766.75,128.53 770.10,128.53 773.45,128.53 776.80,128.53 780.15,128.53 783.50,128.53 786.85,128.53 790.20,128.53 793.55,128.53 796.90,128.53 800.25,128.53 803.60,128.53 806.95,128.53 810.30,128.53 813.65,128.53 817.00,128.53 820.35,128.53 823.70,128.53 827.05,128.53 830.40,128.53 833.75,128.53 837.10,128.53 840.45,128.53 843.80,128.53 847.15,128.53 850.50,128.53 853.85,128.53 857.20,128.53 860.55,128.53 863.90,128.53 867.25,128.53 870.60,128.53 873.95,128.53 877.30,128.53 880.65,128.53 884.00,128.53" class="curve"/><text x="744" y="116.5263157894737" class="note" text-anchor="end">cap at 6</text><text x="460" y="538" class="label" text-anchor="middle">x</text><text x="28" y="280" class="label" transform="rotate(-90 28 280)" text-anchor="middle">f(x)</text></svg>
