<svg xmlns="http://www.w3.org/2000/svg" width="920" height="560" viewBox="0 0 920 560" role="img" aria-label="RReLU activation curve"><style>.bg{fill:#ffffff}.grid{stroke:#e5e7eb;stroke-width:1}.axis{stroke:#9ca3af;stroke-width:1.4}.tick{font:16px -apple-system,BlinkMacSystemFont,'Segoe UI',Arial,sans-serif;fill:#64748b}.title{font:700 30px -apple-system,BlinkMacSystemFont,'Segoe UI',Arial,sans-serif;fill:#111827}.sub{font:18px -apple-system,BlinkMacSystemFont,'Segoe UI',Arial,sans-serif;fill:#475569}.label{font:17px -apple-system,BlinkMacSystemFont,'Segoe UI',Arial,sans-serif;fill:#475569}.curve{fill:none;stroke:#c2410c;stroke-width:5;stroke-linecap:round;stroke-linejoin:round}</style><rect class="bg" width="100%" height="100%"/><text x="80" y="46" class="title">RReLU</text><text x="80" y="72" class="sub">random slope, sample a = 0.18</text><line x1="160.4" y1="86" x2="160.4" y2="490" class="grid"/><text x="160.4" y="520" class="tick" text-anchor="middle">-4</text>
<line x1="321.2" y1="86" x2="321.2" y2="490" class="grid"/><text x="321.2" y="520" class="tick" text-anchor="middle">-2</text>
<line x1="482" y1="86" x2="482" y2="490" class="grid"/><text x="482" y="520" class="tick" text-anchor="middle">0</text>
<line x1="642.8" y1="86" x2="642.8" y2="490" class="grid"/><text x="642.8" y="520" class="tick" text-anchor="middle">2</text>
<line x1="803.6" y1="86" x2="803.6" y2="490" class="grid"/><text x="803.6" y="520" class="tick" text-anchor="middle">4</text>
<line x1="80" y1="466.7816091954023" x2="884" y2="466.7816091954023" class="grid"/><text x="62" y="471.7816091954023" class="tick" text-anchor="end">-2</text>
<line x1="80" y1="373.9080459770115" x2="884" y2="373.9080459770115" class="grid"/><text x="62" y="378.9080459770115" class="tick" text-anchor="end">0</text>
<line x1="80" y1="281.0344827586207" x2="884" y2="281.0344827586207" class="grid"/><text x="62" y="286.0344827586207" class="tick" text-anchor="end">2</text>
<line x1="80" y1="188.16091954022983" x2="884" y2="188.16091954022983" class="grid"/><text x="62" y="193.16091954022983" class="tick" text-anchor="end">4</text>
<line x1="80" y1="95.28735632183907" x2="884" y2="95.28735632183907" class="grid"/><text x="62" y="100.28735632183907" class="tick" text-anchor="end">6</text><line x1="80" y1="373.9080459770115" x2="884" y2="373.9080459770115" class="axis"/><line x1="482" y1="86" x2="482" y2="490" class="axis"/><path d="M80.00,415.70 L81.01,415.60 L82.01,415.49 L83.01,415.39 L84.02,415.28 L85.03,415.18 L86.03,415.07 L87.04,414.97 L88.04,414.87 L89.04,414.76 L90.05,414.66 L91.06,414.55 L92.06,414.45 L93.06,414.34 L94.07,414.24 L95.08,414.13 L96.08,414.03 L97.09,413.92 L98.09,413.82 L99.09,413.72 L100.10,413.61 L101.11,413.51 L102.11,413.40 L103.11,413.30 L104.12,413.19 L105.13,413.09 L106.13,412.98 L107.14,412.88 L108.14,412.78 L109.14,412.67 L110.15,412.57 L111.16,412.46 L112.16,412.36 L113.16,412.25 L114.17,412.15 L115.17,412.04 L116.18,411.94 L117.19,411.84 L118.19,411.73 L119.19,411.63 L120.20,411.52 L121.21,411.42 L122.21,411.31 L123.21,411.21 L124.22,411.10 L125.22,411.00 L126.23,410.89 L127.24,410.79 L128.24,410.69 L129.25,410.58 L130.25,410.48 L131.25,410.37 L132.26,410.27 L133.26,410.16 L134.27,410.06 L135.28,409.95 L136.28,409.85 L137.29,409.75 L138.29,409.64 L139.29,409.54 L140.30,409.43 L141.31,409.33 L142.31,409.22 L143.31,409.12 L144.32,409.01 L145.32,408.91 L146.33,408.81 L147.34,408.70 L148.34,408.60 L149.34,408.49 L150.35,408.39 L151.36,408.28 L152.36,408.18 L153.36,408.07 L154.37,407.97 L155.38,407.86 L156.38,407.76 L157.39,407.66 L158.39,407.55 L159.39,407.45 L160.40,407.34 L161.41,407.24 L162.41,407.13 L163.42,407.03 L164.42,406.92 L165.43,406.82 L166.43,406.72 L167.44,406.61 L168.44,406.51 L169.44,406.40 L170.45,406.30 L171.46,406.19 L172.46,406.09 L173.47,405.98 L174.47,405.88 L175.47,405.78 L176.48,405.67 L177.49,405.57 L178.49,405.46 L179.50,405.36 L180.50,405.25 L181.51,405.15 L182.51,405.04 L183.51,404.94 L184.52,404.83 L185.53,404.73 L186.53,404.63 L187.53,404.52 L188.54,404.42 L189.54,404.31 L190.55,404.21 L191.56,404.10 L192.56,404.00 L193.56,403.89 L194.57,403.79 L195.57,403.69 L196.58,403.58 L197.58,403.48 L198.59,403.37 L199.59,403.27 L200.60,403.16 L201.61,403.06 L202.61,402.95 L203.62,402.85 L204.62,402.75 L205.63,402.64 L206.63,402.54 L207.63,402.43 L208.64,402.33 L209.64,402.22 L210.65,402.12 L211.66,402.01 L212.66,401.91 L213.67,401.80 L214.67,401.70 L215.68,401.60 L216.68,401.49 L217.69,401.39 L218.69,401.28 L219.69,401.18 L220.70,401.07 L221.71,400.97 L222.71,400.86 L223.72,400.76 L224.72,400.66 L225.72,400.55 L226.73,400.45 L227.73,400.34 L228.74,400.24 L229.74,400.13 L230.75,400.03 L231.76,399.92 L232.76,399.82 L233.77,399.72 L234.77,399.61 L235.78,399.51 L236.78,399.40 L237.78,399.30 L238.79,399.19 L239.79,399.09 L240.80,398.98 L241.81,398.88 L242.81,398.77 L243.81,398.67 L244.82,398.57 L245.82,398.46 L246.83,398.36 L247.83,398.25 L248.84,398.15 L249.84,398.04 L250.85,397.94 L251.86,397.83 L252.86,397.73 L253.87,397.63 L254.87,397.52 L255.88,397.42 L256.88,397.31 L257.88,397.21 L258.89,397.10 L259.89,397.00 L260.90,396.89 L261.90,396.79 L262.91,396.69 L263.92,396.58 L264.92,396.48 L265.93,396.37 L266.93,396.27 L267.94,396.16 L268.94,396.06 L269.94,395.95 L270.95,395.85 L271.96,395.74 L272.96,395.64 L273.97,395.54 L274.97,395.43 L275.98,395.33 L276.98,395.22 L277.99,395.12 L278.99,395.01 L280.00,394.91 L281.00,394.80 L282.00,394.70 L283.01,394.60 L284.01,394.49 L285.02,394.39 L286.02,394.28 L287.03,394.18 L288.03,394.07 L289.04,393.97 L290.04,393.86 L291.05,393.76 L292.06,393.66 L293.06,393.55 L294.06,393.45 L295.07,393.34 L296.07,393.24 L297.08,393.13 L298.08,393.03 L299.09,392.92 L300.10,392.82 L301.10,392.71 L302.11,392.61 L303.11,392.51 L304.12,392.40 L305.12,392.30 L306.13,392.19 L307.13,392.09 L308.13,391.98 L309.14,391.88 L310.14,391.77 L311.15,391.67 L312.15,391.57 L313.16,391.46 L314.17,391.36 L315.17,391.25 L316.18,391.15 L317.18,391.04 L318.19,390.94 L319.19,390.83 L320.19,390.73 L321.20,390.63 L322.21,390.52 L323.21,390.42 L324.22,390.31 L325.22,390.21 L326.23,390.10 L327.23,390.00 L328.24,389.89 L329.24,389.79 L330.25,389.68 L331.25,389.58 L332.25,389.48 L333.26,389.37 L334.26,389.27 L335.27,389.16 L336.27,389.06 L337.28,388.95 L338.28,388.85 L339.29,388.74 L340.29,388.64 L341.30,388.54 L342.31,388.43 L343.31,388.33 L344.31,388.22 L345.32,388.12 L346.32,388.01 L347.33,387.91 L348.33,387.80 L349.34,387.70 L350.34,387.60 L351.35,387.49 L352.36,387.39 L353.36,387.28 L354.37,387.18 L355.37,387.07 L356.38,386.97 L357.38,386.86 L358.38,386.76 L359.39,386.65 L360.39,386.55 L361.40,386.45 L362.41,386.34 L363.41,386.24 L364.42,386.13 L365.42,386.03 L366.43,385.92 L367.43,385.82 L368.44,385.71 L369.44,385.61 L370.44,385.51 L371.45,385.40 L372.46,385.30 L373.46,385.19 L374.47,385.09 L375.47,384.98 L376.48,384.88 L377.48,384.77 L378.48,384.67 L379.49,384.57 L380.50,384.46 L381.50,384.36 L382.50,384.25 L383.51,384.15 L384.52,384.04 L385.52,383.94 L386.52,383.83 L387.53,383.73 L388.53,383.62 L389.54,383.52 L390.54,383.42 L391.55,383.31 L392.56,383.21 L393.56,383.10 L394.56,383.00 L395.57,382.89 L396.57,382.79 L397.58,382.68 L398.58,382.58 L399.59,382.48 L400.59,382.37 L401.60,382.27 L402.61,382.16 L403.61,382.06 L404.61,381.95 L405.62,381.85 L406.63,381.74 L407.63,381.64 L408.64,381.54 L409.64,381.43 L410.64,381.33 L411.65,381.22 L412.66,381.12 L413.66,381.01 L414.66,380.91 L415.67,380.80 L416.68,380.70 L417.68,380.59 L418.69,380.49 L419.69,380.39 L420.69,380.28 L421.70,380.18 L422.71,380.07 L423.71,379.97 L424.71,379.86 L425.72,379.76 L426.73,379.65 L427.73,379.55 L428.74,379.45 L429.74,379.34 L430.75,379.24 L431.75,379.13 L432.75,379.03 L433.76,378.92 L434.76,378.82 L435.77,378.71 L436.77,378.61 L437.78,378.51 L438.79,378.40 L439.79,378.30 L440.79,378.19 L441.80,378.09 L442.81,377.98 L443.81,377.88 L444.81,377.77 L445.82,377.67 L446.82,377.56 L447.83,377.46 L448.84,377.36 L449.84,377.25 L450.84,377.15 L451.85,377.04 L452.86,376.94 L453.86,376.83 L454.86,376.73 L455.87,376.62 L456.88,376.52 L457.88,376.42 L458.89,376.31 L459.89,376.21 L460.89,376.10 L461.90,376.00 L462.91,375.89 L463.91,375.79 L464.91,375.68 L465.92,375.58 L466.93,375.48 L467.93,375.37 L468.94,375.27 L469.94,375.16 L470.94,375.06 L471.95,374.95 L472.96,374.85 L473.96,374.74 L474.96,374.64 L475.97,374.53 L476.98,374.43 L477.98,374.33 L478.99,374.22 L479.99,374.12 L481.00,374.01 L482.00,373.91 L483.00,373.33 L484.01,372.75 L485.01,372.17 L486.02,371.59 L487.02,371.01 L488.03,370.43 L489.04,369.84 L490.04,369.26 L491.04,368.68 L492.05,368.10 L493.06,367.52 L494.06,366.94 L495.06,366.36 L496.07,365.78 L497.08,365.20 L498.08,364.62 L499.08,364.04 L500.09,363.46 L501.09,362.88 L502.10,362.30 L503.11,361.72 L504.11,361.14 L505.11,360.56 L506.12,359.98 L507.13,359.40 L508.13,358.82 L509.14,358.24 L510.14,357.66 L511.14,357.07 L512.15,356.49 L513.15,355.91 L514.16,355.33 L515.16,354.75 L516.17,354.17 L517.17,353.59 L518.18,353.01 L519.18,352.43 L520.19,351.85 L521.19,351.27 L522.20,350.69 L523.21,350.11 L524.21,349.53 L525.21,348.95 L526.22,348.37 L527.23,347.79 L528.23,347.21 L529.24,346.63 L530.24,346.05 L531.25,345.47 L532.25,344.89 L533.25,344.30 L534.26,343.72 L535.26,343.14 L536.27,342.56 L537.27,341.98 L538.28,341.40 L539.29,340.82 L540.29,340.24 L541.29,339.66 L542.30,339.08 L543.31,338.50 L544.31,337.92 L545.32,337.34 L546.32,336.76 L547.33,336.18 L548.33,335.60 L549.34,335.02 L550.34,334.44 L551.35,333.86 L552.35,333.28 L553.36,332.70 L554.36,332.11 L555.37,331.53 L556.37,330.95 L557.38,330.37 L558.38,329.79 L559.38,329.21 L560.39,328.63 L561.39,328.05 L562.40,327.47 L563.40,326.89 L564.41,326.31 L565.41,325.73 L566.42,325.15 L567.42,324.57 L568.43,323.99 L569.43,323.41 L570.44,322.83 L571.44,322.25 L572.45,321.67 L573.46,321.09 L574.46,320.51 L575.46,319.93 L576.47,319.34 L577.48,318.76 L578.48,318.18 L579.49,317.60 L580.49,317.02 L581.50,316.44 L582.50,315.86 L583.50,315.28 L584.51,314.70 L585.51,314.12 L586.52,313.54 L587.52,312.96 L588.53,312.38 L589.54,311.80 L590.54,311.22 L591.54,310.64 L592.55,310.06 L593.56,309.48 L594.56,308.90 L595.56,308.32 L596.57,307.74 L597.58,307.16 L598.58,306.57 L599.59,305.99 L600.59,305.41 L601.59,304.83 L602.60,304.25 L603.61,303.67 L604.61,303.09 L605.62,302.51 L606.62,301.93 L607.63,301.35 L608.63,300.77 L609.63,300.19 L610.64,299.61 L611.64,299.03 L612.65,298.45 L613.66,297.87 L614.66,297.29 L615.66,296.71 L616.67,296.13 L617.67,295.55 L618.68,294.97 L619.69,294.39 L620.69,293.80 L621.69,293.22 L622.70,292.64 L623.71,292.06 L624.71,291.48 L625.71,290.90 L626.72,290.32 L627.73,289.74 L628.73,289.16 L629.74,288.58 L630.74,288.00 L631.75,287.42 L632.75,286.84 L633.75,286.26 L634.76,285.68 L635.76,285.10 L636.77,284.52 L637.77,283.94 L638.78,283.36 L639.79,282.78 L640.79,282.20 L641.79,281.61 L642.80,281.03 L643.81,280.45 L644.81,279.87 L645.81,279.29 L646.82,278.71 L647.83,278.13 L648.83,277.55 L649.84,276.97 L650.84,276.39 L651.84,275.81 L652.85,275.23 L653.86,274.65 L654.86,274.07 L655.87,273.49 L656.87,272.91 L657.88,272.33 L658.88,271.75 L659.88,271.17 L660.89,270.59 L661.89,270.01 L662.90,269.43 L663.91,268.84 L664.91,268.26 L665.91,267.68 L666.92,267.10 L667.92,266.52 L668.93,265.94 L669.94,265.36 L670.94,264.78 L671.94,264.20 L672.95,263.62 L673.96,263.04 L674.96,262.46 L675.96,261.88 L676.97,261.30 L677.98,260.72 L678.98,260.14 L679.99,259.56 L680.99,258.98 L682.00,258.40 L683.00,257.82 L684.00,257.24 L685.01,256.66 L686.01,256.07 L687.02,255.49 L688.02,254.91 L689.03,254.33 L690.04,253.75 L691.04,253.17 L692.04,252.59 L693.05,252.01 L694.06,251.43 L695.06,250.85 L696.06,250.27 L697.07,249.69 L698.08,249.11 L699.08,248.53 L700.09,247.95 L701.09,247.37 L702.09,246.79 L703.10,246.21 L704.11,245.63 L705.11,245.05 L706.12,244.47 L707.12,243.89 L708.13,243.30 L709.13,242.72 L710.13,242.14 L711.14,241.56 L712.14,240.98 L713.15,240.40 L714.16,239.82 L715.16,239.24 L716.16,238.66 L717.17,238.08 L718.17,237.50 L719.18,236.92 L720.19,236.34 L721.19,235.76 L722.19,235.18 L723.20,234.60 L724.20,234.02 L725.21,233.44 L726.21,232.86 L727.22,232.28 L728.23,231.70 L729.23,231.11 L730.24,230.53 L731.24,229.95 L732.25,229.37 L733.25,228.79 L734.25,228.21 L735.26,227.63 L736.26,227.05 L737.27,226.47 L738.27,225.89 L739.28,225.31 L740.29,224.73 L741.29,224.15 L742.30,223.57 L743.30,222.99 L744.30,222.41 L745.31,221.83 L746.31,221.25 L747.32,220.67 L748.33,220.09 L749.33,219.51 L750.34,218.93 L751.34,218.34 L752.35,217.76 L753.35,217.18 L754.35,216.60 L755.36,216.02 L756.37,215.44 L757.37,214.86 L758.38,214.28 L759.38,213.70 L760.38,213.12 L761.39,212.54 L762.40,211.96 L763.40,211.38 L764.40,210.80 L765.41,210.22 L766.41,209.64 L767.42,209.06 L768.42,208.48 L769.43,207.90 L770.44,207.32 L771.44,206.74 L772.45,206.16 L773.45,205.57 L774.45,204.99 L775.46,204.41 L776.46,203.83 L777.47,203.25 L778.48,202.67 L779.48,202.09 L780.49,201.51 L781.49,200.93 L782.50,200.35 L783.50,199.77 L784.50,199.19 L785.51,198.61 L786.51,198.03 L787.52,197.45 L788.52,196.87 L789.53,196.29 L790.54,195.71 L791.54,195.13 L792.55,194.55 L793.55,193.97 L794.55,193.39 L795.56,192.80 L796.56,192.22 L797.57,191.64 L798.58,191.06 L799.58,190.48 L800.59,189.90 L801.59,189.32 L802.60,188.74 L803.60,188.16 L804.60,187.58 L805.61,187.00 L806.62,186.42 L807.62,185.84 L808.63,185.26 L809.63,184.68 L810.63,184.10 L811.64,183.52 L812.65,182.94 L813.65,182.36 L814.65,181.78 L815.66,181.20 L816.66,180.61 L817.67,180.03 L818.67,179.45 L819.68,178.87 L820.69,178.29 L821.69,177.71 L822.70,177.13 L823.70,176.55 L824.70,175.97 L825.71,175.39 L826.71,174.81 L827.72,174.23 L828.73,173.65 L829.73,173.07 L830.74,172.49 L831.74,171.91 L832.75,171.33 L833.75,170.75 L834.75,170.17 L835.76,169.59 L836.76,169.01 L837.77,168.43 L838.77,167.84 L839.78,167.26 L840.79,166.68 L841.79,166.10 L842.80,165.52 L843.80,164.94 L844.80,164.36 L845.81,163.78 L846.81,163.20 L847.82,162.62 L848.83,162.04 L849.83,161.46 L850.84,160.88 L851.84,160.30 L852.85,159.72 L853.85,159.14 L854.85,158.56 L855.86,157.98 L856.87,157.40 L857.87,156.82 L858.88,156.24 L859.88,155.66 L860.88,155.07 L861.89,154.49 L862.90,153.91 L863.90,153.33 L864.90,152.75 L865.91,152.17 L866.91,151.59 L867.92,151.01 L868.92,150.43 L869.93,149.85 L870.94,149.27 L871.94,148.69 L872.95,148.11 L873.95,147.53 L874.95,146.95 L875.96,146.37 L876.96,145.79 L877.97,145.21 L878.98,144.63 L879.98,144.05 L880.99,143.47 L881.99,142.89 L883.00,142.30 L884.00,141.72" class="curve"/><text x="460" y="538" class="label" text-anchor="middle">x</text><text x="28" y="280" class="label" transform="rotate(-90 28 280)" text-anchor="middle">f(x)</text></svg>