<svg xmlns="http://www.w3.org/2000/svg" width="920" height="560" viewBox="0 0 920 560" role="img" aria-label="SELU activation curve"><style>.bg{fill:#ffffff}.grid{stroke:#e5e7eb;stroke-width:1}.axis{stroke:#9ca3af;stroke-width:1.4}.tick{font:16px -apple-system,BlinkMacSystemFont,'Segoe UI',Arial,sans-serif;fill:#64748b}.title{font:700 30px -apple-system,BlinkMacSystemFont,'Segoe UI',Arial,sans-serif;fill:#111827}.sub{font:18px -apple-system,BlinkMacSystemFont,'Segoe UI',Arial,sans-serif;fill:#475569}.label{font:17px -apple-system,BlinkMacSystemFont,'Segoe UI',Arial,sans-serif;fill:#475569}.curve{fill:none;stroke:#be123c;stroke-width:5;stroke-linecap:round;stroke-linejoin:round}</style><rect class="bg" width="100%" height="100%"/><text x="80" y="46" class="title">SELU</text><text x="80" y="72" class="sub">scaled ELU</text><line x1="160.4" y1="86" x2="160.4" y2="490" class="grid"/><text x="160.4" y="520" class="tick" text-anchor="middle">-4</text>
<line x1="321.2" y1="86" x2="321.2" y2="490" class="grid"/><text x="321.2" y="520" class="tick" text-anchor="middle">-2</text>
<line x1="482" y1="86" x2="482" y2="490" class="grid"/><text x="482" y="520" class="tick" text-anchor="middle">0</text>
<line x1="642.8" y1="86" x2="642.8" y2="490" class="grid"/><text x="642.8" y="520" class="tick" text-anchor="middle">2</text>
<line x1="803.6" y1="86" x2="803.6" y2="490" class="grid"/><text x="803.6" y="520" class="tick" text-anchor="middle">4</text>
<line x1="80" y1="466.7816091954023" x2="884" y2="466.7816091954023" class="grid"/><text x="62" y="471.7816091954023" class="tick" text-anchor="end">-2</text>
<line x1="80" y1="373.9080459770115" x2="884" y2="373.9080459770115" class="grid"/><text x="62" y="378.9080459770115" class="tick" text-anchor="end">0</text>
<line x1="80" y1="281.0344827586207" x2="884" y2="281.0344827586207" class="grid"/><text x="62" y="286.0344827586207" class="tick" text-anchor="end">2</text>
<line x1="80" y1="188.16091954022983" x2="884" y2="188.16091954022983" class="grid"/><text x="62" y="193.16091954022983" class="tick" text-anchor="end">4</text>
<line x1="80" y1="95.28735632183907" x2="884" y2="95.28735632183907" class="grid"/><text x="62" y="100.28735632183907" class="tick" text-anchor="end">6</text><line x1="80" y1="373.9080459770115" x2="884" y2="373.9080459770115" class="axis"/><line x1="482" y1="86" x2="482" y2="490" class="axis"/><path d="M80.00,455.00 L81.01,454.99 L82.01,454.98 L83.01,454.98 L84.02,454.97 L85.03,454.96 L86.03,454.96 L87.04,454.95 L88.04,454.94 L89.04,454.93 L90.05,454.93 L91.06,454.92 L92.06,454.91 L93.06,454.90 L94.07,454.89 L95.08,454.88 L96.08,454.88 L97.09,454.87 L98.09,454.86 L99.09,454.85 L100.10,454.84 L101.11,454.83 L102.11,454.82 L103.11,454.82 L104.12,454.81 L105.13,454.80 L106.13,454.79 L107.14,454.78 L108.14,454.77 L109.14,454.76 L110.15,454.75 L111.16,454.74 L112.16,454.73 L113.16,454.72 L114.17,454.71 L115.17,454.70 L116.18,454.69 L117.19,454.67 L118.19,454.66 L119.19,454.65 L120.20,454.64 L121.21,454.63 L122.21,454.62 L123.21,454.61 L124.22,454.60 L125.22,454.58 L126.23,454.57 L127.24,454.56 L128.24,454.55 L129.25,454.53 L130.25,454.52 L131.25,454.51 L132.26,454.49 L133.26,454.48 L134.27,454.47 L135.28,454.45 L136.28,454.44 L137.29,454.43 L138.29,454.41 L139.29,454.40 L140.30,454.38 L141.31,454.37 L142.31,454.35 L143.31,454.34 L144.32,454.32 L145.32,454.31 L146.33,454.29 L147.34,454.28 L148.34,454.26 L149.34,454.25 L150.35,454.23 L151.36,454.21 L152.36,454.20 L153.36,454.18 L154.37,454.16 L155.38,454.14 L156.38,454.13 L157.39,454.11 L158.39,454.09 L159.39,454.07 L160.40,454.05 L161.41,454.03 L162.41,454.02 L163.42,454.00 L164.42,453.98 L165.43,453.96 L166.43,453.94 L167.44,453.92 L168.44,453.90 L169.44,453.88 L170.45,453.85 L171.46,453.83 L172.46,453.81 L173.47,453.79 L174.47,453.77 L175.47,453.74 L176.48,453.72 L177.49,453.70 L178.49,453.68 L179.50,453.65 L180.50,453.63 L181.51,453.60 L182.51,453.58 L183.51,453.56 L184.52,453.53 L185.53,453.50 L186.53,453.48 L187.53,453.45 L188.54,453.43 L189.54,453.40 L190.55,453.37 L191.56,453.35 L192.56,453.32 L193.56,453.29 L194.57,453.26 L195.57,453.23 L196.58,453.20 L197.58,453.17 L198.59,453.14 L199.59,453.11 L200.60,453.08 L201.61,453.05 L202.61,453.02 L203.62,452.99 L204.62,452.96 L205.63,452.92 L206.63,452.89 L207.63,452.86 L208.64,452.82 L209.64,452.79 L210.65,452.75 L211.66,452.72 L212.66,452.68 L213.67,452.65 L214.67,452.61 L215.68,452.57 L216.68,452.54 L217.69,452.50 L218.69,452.46 L219.69,452.42 L220.70,452.38 L221.71,452.34 L222.71,452.30 L223.72,452.26 L224.72,452.22 L225.72,452.18 L226.73,452.14 L227.73,452.09 L228.74,452.05 L229.74,452.01 L230.75,451.96 L231.76,451.92 L232.76,451.87 L233.77,451.82 L234.77,451.78 L235.78,451.73 L236.78,451.68 L237.78,451.63 L238.79,451.58 L239.79,451.53 L240.80,451.48 L241.81,451.43 L242.81,451.38 L243.81,451.33 L244.82,451.28 L245.82,451.22 L246.83,451.17 L247.83,451.11 L248.84,451.06 L249.84,451.00 L250.85,450.94 L251.86,450.88 L252.86,450.83 L253.87,450.77 L254.87,450.71 L255.88,450.65 L256.88,450.58 L257.88,450.52 L258.89,450.46 L259.89,450.39 L260.90,450.33 L261.90,450.26 L262.91,450.20 L263.92,450.13 L264.92,450.06 L265.93,449.99 L266.93,449.92 L267.94,449.85 L268.94,449.78 L269.94,449.71 L270.95,449.63 L271.96,449.56 L272.96,449.48 L273.97,449.41 L274.97,449.33 L275.98,449.25 L276.98,449.17 L277.99,449.09 L278.99,449.01 L280.00,448.93 L281.00,448.85 L282.00,448.76 L283.01,448.68 L284.01,448.59 L285.02,448.50 L286.02,448.41 L287.03,448.33 L288.03,448.23 L289.04,448.14 L290.04,448.05 L291.05,447.95 L292.06,447.86 L293.06,447.76 L294.06,447.66 L295.07,447.57 L296.07,447.47 L297.08,447.36 L298.08,447.26 L299.09,447.16 L300.10,447.05 L301.10,446.94 L302.11,446.84 L303.11,446.73 L304.12,446.61 L305.12,446.50 L306.13,446.39 L307.13,446.27 L308.13,446.16 L309.14,446.04 L310.14,445.92 L311.15,445.80 L312.15,445.68 L313.16,445.55 L314.17,445.43 L315.17,445.30 L316.18,445.17 L317.18,445.04 L318.19,444.91 L319.19,444.77 L320.19,444.64 L321.20,444.50 L322.21,444.36 L323.21,444.22 L324.22,444.08 L325.22,443.93 L326.23,443.79 L327.23,443.64 L328.24,443.49 L329.24,443.34 L330.25,443.18 L331.25,443.03 L332.25,442.87 L333.26,442.71 L334.26,442.55 L335.27,442.39 L336.27,442.22 L337.28,442.05 L338.28,441.88 L339.29,441.71 L340.29,441.54 L341.30,441.36 L342.31,441.18 L343.31,441.00 L344.31,440.82 L345.32,440.63 L346.32,440.45 L347.33,440.26 L348.33,440.06 L349.34,439.87 L350.34,439.67 L351.35,439.47 L352.36,439.27 L353.36,439.07 L354.37,438.86 L355.37,438.65 L356.38,438.44 L357.38,438.22 L358.38,438.00 L359.39,437.78 L360.39,437.56 L361.40,437.33 L362.41,437.10 L363.41,436.87 L364.42,436.64 L365.42,436.40 L366.43,436.16 L367.43,435.91 L368.44,435.67 L369.44,435.42 L370.44,435.16 L371.45,434.91 L372.46,434.65 L373.46,434.38 L374.47,434.12 L375.47,433.85 L376.48,433.58 L377.48,433.30 L378.48,433.02 L379.49,432.74 L380.50,432.45 L381.50,432.16 L382.50,431.86 L383.51,431.57 L384.52,431.26 L385.52,430.96 L386.52,430.65 L387.53,430.34 L388.53,430.02 L389.54,429.70 L390.54,429.37 L391.55,429.04 L392.56,428.71 L393.56,428.37 L394.56,428.03 L395.57,427.68 L396.57,427.33 L397.58,426.98 L398.58,426.62 L399.59,426.26 L400.59,425.89 L401.60,425.51 L402.61,425.14 L403.61,424.75 L404.61,424.37 L405.62,423.97 L406.63,423.58 L407.63,423.18 L408.64,422.77 L409.64,422.36 L410.64,421.94 L411.65,421.52 L412.66,421.09 L413.66,420.65 L414.66,420.22 L415.67,419.77 L416.68,419.32 L417.68,418.87 L418.69,418.40 L419.69,417.94 L420.69,417.46 L421.70,416.98 L422.71,416.50 L423.71,416.01 L424.71,415.51 L425.72,415.01 L426.73,414.50 L427.73,413.98 L428.74,413.46 L429.74,412.93 L430.75,412.39 L431.75,411.85 L432.75,411.30 L433.76,410.74 L434.76,410.18 L435.77,409.61 L436.77,409.03 L437.78,408.45 L438.79,407.85 L439.79,407.25 L440.79,406.65 L441.80,406.03 L442.81,405.41 L443.81,404.78 L444.81,404.14 L445.82,403.49 L446.82,402.84 L447.83,402.17 L448.84,401.50 L449.84,400.82 L450.84,400.13 L451.85,399.44 L452.86,398.73 L453.86,398.02 L454.86,397.29 L455.87,396.56 L456.88,395.82 L457.88,395.07 L458.89,394.31 L459.89,393.54 L460.89,392.76 L461.90,391.97 L462.91,391.17 L463.91,390.36 L464.91,389.54 L465.92,388.71 L466.93,387.87 L467.93,387.01 L468.94,386.15 L469.94,385.28 L470.94,384.40 L471.95,383.50 L472.96,382.59 L473.96,381.68 L474.96,380.75 L475.97,379.81 L476.98,378.85 L477.98,377.89 L478.99,376.91 L479.99,375.92 L481.00,374.92 L482.00,373.91 L483.00,373.30 L484.01,372.69 L485.01,372.08 L486.02,371.47 L487.02,370.86 L488.03,370.25 L489.04,369.64 L490.04,369.03 L491.04,368.42 L492.05,367.81 L493.06,367.20 L494.06,366.59 L495.06,365.98 L496.07,365.37 L497.08,364.76 L498.08,364.15 L499.08,363.54 L500.09,362.93 L501.09,362.32 L502.10,361.71 L503.11,361.10 L504.11,360.49 L505.11,359.88 L506.12,359.27 L507.13,358.66 L508.13,358.05 L509.14,357.44 L510.14,356.83 L511.14,356.22 L512.15,355.61 L513.15,355.00 L514.16,354.39 L515.16,353.78 L516.17,353.17 L517.17,352.56 L518.18,351.95 L519.18,351.34 L520.19,350.73 L521.19,350.12 L522.20,349.51 L523.21,348.90 L524.21,348.29 L525.21,347.68 L526.22,347.07 L527.23,346.46 L528.23,345.85 L529.24,345.24 L530.24,344.63 L531.25,344.02 L532.25,343.41 L533.25,342.80 L534.26,342.19 L535.26,341.58 L536.27,340.97 L537.27,340.36 L538.28,339.75 L539.29,339.14 L540.29,338.53 L541.29,337.92 L542.30,337.31 L543.31,336.70 L544.31,336.09 L545.32,335.48 L546.32,334.88 L547.33,334.27 L548.33,333.66 L549.34,333.05 L550.34,332.44 L551.35,331.83 L552.35,331.22 L553.36,330.61 L554.36,330.00 L555.37,329.39 L556.37,328.78 L557.38,328.17 L558.38,327.56 L559.38,326.95 L560.39,326.34 L561.39,325.73 L562.40,325.12 L563.40,324.51 L564.41,323.90 L565.41,323.29 L566.42,322.68 L567.42,322.07 L568.43,321.46 L569.43,320.85 L570.44,320.24 L571.44,319.63 L572.45,319.02 L573.46,318.41 L574.46,317.80 L575.46,317.19 L576.47,316.58 L577.48,315.97 L578.48,315.36 L579.49,314.75 L580.49,314.14 L581.50,313.53 L582.50,312.92 L583.50,312.31 L584.51,311.70 L585.51,311.09 L586.52,310.48 L587.52,309.87 L588.53,309.26 L589.54,308.65 L590.54,308.04 L591.54,307.43 L592.55,306.82 L593.56,306.21 L594.56,305.60 L595.56,304.99 L596.57,304.38 L597.58,303.77 L598.58,303.16 L599.59,302.55 L600.59,301.94 L601.59,301.33 L602.60,300.72 L603.61,300.11 L604.61,299.50 L605.62,298.89 L606.62,298.28 L607.63,297.67 L608.63,297.06 L609.63,296.45 L610.64,295.84 L611.64,295.23 L612.65,294.62 L613.66,294.01 L614.66,293.40 L615.66,292.79 L616.67,292.18 L617.67,291.57 L618.68,290.96 L619.69,290.35 L620.69,289.74 L621.69,289.13 L622.70,288.52 L623.71,287.91 L624.71,287.30 L625.71,286.69 L626.72,286.08 L627.73,285.47 L628.73,284.86 L629.74,284.25 L630.74,283.64 L631.75,283.03 L632.75,282.42 L633.75,281.81 L634.76,281.20 L635.76,280.59 L636.77,279.99 L637.77,279.38 L638.78,278.77 L639.79,278.16 L640.79,277.55 L641.79,276.94 L642.80,276.33 L643.81,275.72 L644.81,275.11 L645.81,274.50 L646.82,273.89 L647.83,273.28 L648.83,272.67 L649.84,272.06 L650.84,271.45 L651.84,270.84 L652.85,270.23 L653.86,269.62 L654.86,269.01 L655.87,268.40 L656.87,267.79 L657.88,267.18 L658.88,266.57 L659.88,265.96 L660.89,265.35 L661.89,264.74 L662.90,264.13 L663.91,263.52 L664.91,262.91 L665.91,262.30 L666.92,261.69 L667.92,261.08 L668.93,260.47 L669.94,259.86 L670.94,259.25 L671.94,258.64 L672.95,258.03 L673.96,257.42 L674.96,256.81 L675.96,256.20 L676.97,255.59 L677.98,254.98 L678.98,254.37 L679.99,253.76 L680.99,253.15 L682.00,252.54 L683.00,251.93 L684.00,251.32 L685.01,250.71 L686.01,250.10 L687.02,249.49 L688.02,248.88 L689.03,248.27 L690.04,247.66 L691.04,247.05 L692.04,246.44 L693.05,245.83 L694.06,245.22 L695.06,244.61 L696.06,244.00 L697.07,243.39 L698.08,242.78 L699.08,242.17 L700.09,241.56 L701.09,240.95 L702.09,240.34 L703.10,239.73 L704.11,239.12 L705.11,238.51 L706.12,237.90 L707.12,237.29 L708.13,236.68 L709.13,236.07 L710.13,235.46 L711.14,234.85 L712.14,234.24 L713.15,233.63 L714.16,233.02 L715.16,232.41 L716.16,231.80 L717.17,231.19 L718.17,230.58 L719.18,229.97 L720.19,229.36 L721.19,228.75 L722.19,228.14 L723.20,227.53 L724.20,226.92 L725.21,226.31 L726.21,225.70 L727.22,225.09 L728.23,224.49 L729.23,223.88 L730.24,223.27 L731.24,222.66 L732.25,222.05 L733.25,221.44 L734.25,220.83 L735.26,220.22 L736.26,219.61 L737.27,219.00 L738.27,218.39 L739.28,217.78 L740.29,217.17 L741.29,216.56 L742.30,215.95 L743.30,215.34 L744.30,214.73 L745.31,214.12 L746.31,213.51 L747.32,212.90 L748.33,212.29 L749.33,211.68 L750.34,211.07 L751.34,210.46 L752.35,209.85 L753.35,209.24 L754.35,208.63 L755.36,208.02 L756.37,207.41 L757.37,206.80 L758.38,206.19 L759.38,205.58 L760.38,204.97 L761.39,204.36 L762.40,203.75 L763.40,203.14 L764.40,202.53 L765.41,201.92 L766.41,201.31 L767.42,200.70 L768.42,200.09 L769.43,199.48 L770.44,198.87 L771.44,198.26 L772.45,197.65 L773.45,197.04 L774.45,196.43 L775.46,195.82 L776.46,195.21 L777.47,194.60 L778.48,193.99 L779.48,193.38 L780.49,192.77 L781.49,192.16 L782.50,191.55 L783.50,190.94 L784.50,190.33 L785.51,189.72 L786.51,189.11 L787.52,188.50 L788.52,187.89 L789.53,187.28 L790.54,186.67 L791.54,186.06 L792.55,185.45 L793.55,184.84 L794.55,184.23 L795.56,183.62 L796.56,183.01 L797.57,182.40 L798.58,181.79 L799.58,181.18 L800.59,180.57 L801.59,179.96 L802.60,179.35 L803.60,178.74 L804.60,178.13 L805.61,177.52 L806.62,176.91 L807.62,176.30 L808.63,175.69 L809.63,175.08 L810.63,174.47 L811.64,173.86 L812.65,173.25 L813.65,172.64 L814.65,172.03 L815.66,171.42 L816.66,170.81 L817.67,170.20 L818.67,169.60 L819.68,168.99 L820.69,168.38 L821.69,167.77 L822.70,167.16 L823.70,166.55 L824.70,165.94 L825.71,165.33 L826.71,164.72 L827.72,164.11 L828.73,163.50 L829.73,162.89 L830.74,162.28 L831.74,161.67 L832.75,161.06 L833.75,160.45 L834.75,159.84 L835.76,159.23 L836.76,158.62 L837.77,158.01 L838.77,157.40 L839.78,156.79 L840.79,156.18 L841.79,155.57 L842.80,154.96 L843.80,154.35 L844.80,153.74 L845.81,153.13 L846.81,152.52 L847.82,151.91 L848.83,151.30 L849.83,150.69 L850.84,150.08 L851.84,149.47 L852.85,148.86 L853.85,148.25 L854.85,147.64 L855.86,147.03 L856.87,146.42 L857.87,145.81 L858.88,145.20 L859.88,144.59 L860.88,143.98 L861.89,143.37 L862.90,142.76 L863.90,142.15 L864.90,141.54 L865.91,140.93 L866.91,140.32 L867.92,139.71 L868.92,139.10 L869.93,138.49 L870.94,137.88 L871.94,137.27 L872.95,136.66 L873.95,136.05 L874.95,135.44 L875.96,134.83 L876.96,134.22 L877.97,133.61 L878.98,133.00 L879.98,132.39 L880.99,131.78 L881.99,131.17 L883.00,130.56 L884.00,129.95" class="curve"/><text x="460" y="538" class="label" text-anchor="middle">x</text><text x="28" y="280" class="label" transform="rotate(-90 28 280)" text-anchor="middle">f(x)</text></svg>