<svg xmlns="http://www.w3.org/2000/svg" width="920" height="560" viewBox="0 0 920 560" role="img" aria-label="SiLU / Swish activation curve"><style>.bg{fill:#ffffff}.grid{stroke:#e5e7eb;stroke-width:1}.axis{stroke:#9ca3af;stroke-width:1.4}.tick{font:16px -apple-system,BlinkMacSystemFont,'Segoe UI',Arial,sans-serif;fill:#64748b}.title{font:700 30px -apple-system,BlinkMacSystemFont,'Segoe UI',Arial,sans-serif;fill:#111827}.sub{font:18px -apple-system,BlinkMacSystemFont,'Segoe UI',Arial,sans-serif;fill:#475569}.label{font:17px -apple-system,BlinkMacSystemFont,'Segoe UI',Arial,sans-serif;fill:#475569}.curve{fill:none;stroke:#db2777;stroke-width:5;stroke-linecap:round;stroke-linejoin:round}</style><rect class="bg" width="100%" height="100%"/><text x="80" y="46" class="title">SiLU / Swish</text><text x="80" y="72" class="sub">x * sigmoid(x)</text><line x1="160.4" y1="86" x2="160.4" y2="490" class="grid"/><text x="160.4" y="520" class="tick" text-anchor="middle">-4</text>
<line x1="321.2" y1="86" x2="321.2" y2="490" class="grid"/><text x="321.2" y="520" class="tick" text-anchor="middle">-2</text>
<line x1="482" y1="86" x2="482" y2="490" class="grid"/><text x="482" y="520" class="tick" text-anchor="middle">0</text>
<line x1="642.8" y1="86" x2="642.8" y2="490" class="grid"/><text x="642.8" y="520" class="tick" text-anchor="middle">2</text>
<line x1="803.6" y1="86" x2="803.6" y2="490" class="grid"/><text x="803.6" y="520" class="tick" text-anchor="middle">4</text>
<line x1="80" y1="466.7816091954023" x2="884" y2="466.7816091954023" class="grid"/><text x="62" y="471.7816091954023" class="tick" text-anchor="end">-2</text>
<line x1="80" y1="373.9080459770115" x2="884" y2="373.9080459770115" class="grid"/><text x="62" y="378.9080459770115" class="tick" text-anchor="end">0</text>
<line x1="80" y1="281.0344827586207" x2="884" y2="281.0344827586207" class="grid"/><text x="62" y="286.0344827586207" class="tick" text-anchor="end">2</text>
<line x1="80" y1="188.16091954022983" x2="884" y2="188.16091954022983" class="grid"/><text x="62" y="193.16091954022983" class="tick" text-anchor="end">4</text>
<line x1="80" y1="95.28735632183907" x2="884" y2="95.28735632183907" class="grid"/><text x="62" y="100.28735632183907" class="tick" text-anchor="end">6</text><line x1="80" y1="373.9080459770115" x2="884" y2="373.9080459770115" class="axis"/><line x1="482" y1="86" x2="482" y2="490" class="axis"/><path d="M80.00,375.46 L81.01,375.48 L82.01,375.49 L83.01,375.51 L84.02,375.52 L85.03,375.54 L86.03,375.56 L87.04,375.57 L88.04,375.59 L89.04,375.61 L90.05,375.62 L91.06,375.64 L92.06,375.66 L93.06,375.67 L94.07,375.69 L95.08,375.71 L96.08,375.73 L97.09,375.75 L98.09,375.76 L99.09,375.78 L100.10,375.80 L101.11,375.82 L102.11,375.84 L103.11,375.86 L104.12,375.88 L105.13,375.89 L106.13,375.91 L107.14,375.93 L108.14,375.95 L109.14,375.97 L110.15,375.99 L111.16,376.01 L112.16,376.03 L113.16,376.05 L114.17,376.08 L115.17,376.10 L116.18,376.12 L117.19,376.14 L118.19,376.16 L119.19,376.18 L120.20,376.20 L121.21,376.23 L122.21,376.25 L123.21,376.27 L124.22,376.29 L125.22,376.32 L126.23,376.34 L127.24,376.36 L128.24,376.39 L129.25,376.41 L130.25,376.43 L131.25,376.46 L132.26,376.48 L133.26,376.51 L134.27,376.53 L135.28,376.56 L136.28,376.58 L137.29,376.61 L138.29,376.63 L139.29,376.66 L140.30,376.68 L141.31,376.71 L142.31,376.74 L143.31,376.76 L144.32,376.79 L145.32,376.82 L146.33,376.84 L147.34,376.87 L148.34,376.90 L149.34,376.93 L150.35,376.95 L151.36,376.98 L152.36,377.01 L153.36,377.04 L154.37,377.07 L155.38,377.10 L156.38,377.13 L157.39,377.16 L158.39,377.19 L159.39,377.22 L160.40,377.25 L161.41,377.28 L162.41,377.31 L163.42,377.34 L164.42,377.37 L165.43,377.40 L166.43,377.44 L167.44,377.47 L168.44,377.50 L169.44,377.53 L170.45,377.57 L171.46,377.60 L172.46,377.63 L173.47,377.67 L174.47,377.70 L175.47,377.73 L176.48,377.77 L177.49,377.80 L178.49,377.84 L179.50,377.87 L180.50,377.91 L181.51,377.94 L182.51,377.98 L183.51,378.02 L184.52,378.05 L185.53,378.09 L186.53,378.13 L187.53,378.16 L188.54,378.20 L189.54,378.24 L190.55,378.28 L191.56,378.32 L192.56,378.35 L193.56,378.39 L194.57,378.43 L195.57,378.47 L196.58,378.51 L197.58,378.55 L198.59,378.59 L199.59,378.63 L200.60,378.67 L201.61,378.71 L202.61,378.75 L203.62,378.80 L204.62,378.84 L205.63,378.88 L206.63,378.92 L207.63,378.96 L208.64,379.01 L209.64,379.05 L210.65,379.09 L211.66,379.14 L212.66,379.18 L213.67,379.23 L214.67,379.27 L215.68,379.31 L216.68,379.36 L217.69,379.40 L218.69,379.45 L219.69,379.50 L220.70,379.54 L221.71,379.59 L222.71,379.63 L223.72,379.68 L224.72,379.73 L225.72,379.78 L226.73,379.82 L227.73,379.87 L228.74,379.92 L229.74,379.97 L230.75,380.02 L231.76,380.06 L232.76,380.11 L233.77,380.16 L234.77,380.21 L235.78,380.26 L236.78,380.31 L237.78,380.36 L238.79,380.41 L239.79,380.46 L240.80,380.51 L241.81,380.57 L242.81,380.62 L243.81,380.67 L244.82,380.72 L245.82,380.77 L246.83,380.83 L247.83,380.88 L248.84,380.93 L249.84,380.98 L250.85,381.04 L251.86,381.09 L252.86,381.14 L253.87,381.20 L254.87,381.25 L255.88,381.31 L256.88,381.36 L257.88,381.42 L258.89,381.47 L259.89,381.53 L260.90,381.58 L261.90,381.64 L262.91,381.69 L263.92,381.75 L264.92,381.80 L265.93,381.86 L266.93,381.92 L267.94,381.97 L268.94,382.03 L269.94,382.09 L270.95,382.14 L271.96,382.20 L272.96,382.26 L273.97,382.31 L274.97,382.37 L275.98,382.43 L276.98,382.48 L277.99,382.54 L278.99,382.60 L280.00,382.66 L281.00,382.71 L282.00,382.77 L283.01,382.83 L284.01,382.89 L285.02,382.95 L286.02,383.00 L287.03,383.06 L288.03,383.12 L289.04,383.18 L290.04,383.24 L291.05,383.29 L292.06,383.35 L293.06,383.41 L294.06,383.47 L295.07,383.52 L296.07,383.58 L297.08,383.64 L298.08,383.70 L299.09,383.76 L300.10,383.81 L301.10,383.87 L302.11,383.93 L303.11,383.98 L304.12,384.04 L305.12,384.10 L306.13,384.16 L307.13,384.21 L308.13,384.27 L309.14,384.32 L310.14,384.38 L311.15,384.44 L312.15,384.49 L313.16,384.55 L314.17,384.60 L315.17,384.66 L316.18,384.71 L317.18,384.77 L318.19,384.82 L319.19,384.87 L320.19,384.93 L321.20,384.98 L322.21,385.03 L323.21,385.08 L324.22,385.14 L325.22,385.19 L326.23,385.24 L327.23,385.29 L328.24,385.34 L329.24,385.39 L330.25,385.44 L331.25,385.49 L332.25,385.53 L333.26,385.58 L334.26,385.63 L335.27,385.67 L336.27,385.72 L337.28,385.76 L338.28,385.81 L339.29,385.85 L340.29,385.90 L341.30,385.94 L342.31,385.98 L343.31,386.02 L344.31,386.06 L345.32,386.10 L346.32,386.14 L347.33,386.18 L348.33,386.22 L349.34,386.25 L350.34,386.29 L351.35,386.32 L352.36,386.36 L353.36,386.39 L354.37,386.42 L355.37,386.45 L356.38,386.48 L357.38,386.51 L358.38,386.54 L359.39,386.56 L360.39,386.59 L361.40,386.61 L362.41,386.64 L363.41,386.66 L364.42,386.68 L365.42,386.70 L366.43,386.72 L367.43,386.74 L368.44,386.75 L369.44,386.77 L370.44,386.78 L371.45,386.79 L372.46,386.80 L373.46,386.81 L374.47,386.82 L375.47,386.83 L376.48,386.83 L377.48,386.84 L378.48,386.84 L379.49,386.84 L380.50,386.84 L381.50,386.83 L382.50,386.83 L383.51,386.82 L384.52,386.82 L385.52,386.81 L386.52,386.80 L387.53,386.78 L388.53,386.77 L389.54,386.75 L390.54,386.73 L391.55,386.71 L392.56,386.69 L393.56,386.66 L394.56,386.64 L395.57,386.61 L396.57,386.58 L397.58,386.55 L398.58,386.51 L399.59,386.48 L400.59,386.44 L401.60,386.40 L402.61,386.35 L403.61,386.31 L404.61,386.26 L405.62,386.21 L406.63,386.16 L407.63,386.10 L408.64,386.05 L409.64,385.99 L410.64,385.93 L411.65,385.86 L412.66,385.80 L413.66,385.73 L414.66,385.66 L415.67,385.58 L416.68,385.50 L417.68,385.43 L418.69,385.34 L419.69,385.26 L420.69,385.17 L421.70,385.08 L422.71,384.99 L423.71,384.89 L424.71,384.79 L425.72,384.69 L426.73,384.59 L427.73,384.48 L428.74,384.37 L429.74,384.26 L430.75,384.15 L431.75,384.03 L432.75,383.91 L433.76,383.78 L434.76,383.65 L435.77,383.52 L436.77,383.39 L437.78,383.25 L438.79,383.11 L439.79,382.97 L440.79,382.82 L441.80,382.67 L442.81,382.52 L443.81,382.37 L444.81,382.21 L445.82,382.04 L446.82,381.88 L447.83,381.71 L448.84,381.54 L449.84,381.36 L450.84,381.18 L451.85,381.00 L452.86,380.82 L453.86,380.63 L454.86,380.43 L455.87,380.24 L456.88,380.04 L457.88,379.84 L458.89,379.63 L459.89,379.42 L460.89,379.21 L461.90,378.99 L462.91,378.77 L463.91,378.55 L464.91,378.32 L465.92,378.09 L466.93,377.85 L467.93,377.62 L468.94,377.38 L469.94,377.13 L470.94,376.88 L471.95,376.63 L472.96,376.37 L473.96,376.11 L474.96,375.85 L475.97,375.58 L476.98,375.31 L477.98,375.04 L478.99,374.76 L479.99,374.48 L481.00,374.20 L482.00,373.91 L483.00,373.62 L484.01,373.32 L485.01,373.02 L486.02,372.72 L487.02,372.41 L488.03,372.10 L489.04,371.79 L490.04,371.47 L491.04,371.15 L492.05,370.82 L493.06,370.50 L494.06,370.16 L495.06,369.83 L496.07,369.49 L497.08,369.15 L498.08,368.80 L499.08,368.45 L500.09,368.10 L501.09,367.74 L502.10,367.38 L503.11,367.02 L504.11,366.65 L505.11,366.28 L506.12,365.91 L507.13,365.53 L508.13,365.15 L509.14,364.76 L510.14,364.37 L511.14,363.98 L512.15,363.59 L513.15,363.19 L514.16,362.79 L515.16,362.38 L516.17,361.97 L517.17,361.56 L518.18,361.15 L519.18,360.73 L520.19,360.31 L521.19,359.88 L522.20,359.46 L523.21,359.02 L524.21,358.59 L525.21,358.15 L526.22,357.71 L527.23,357.27 L528.23,356.82 L529.24,356.37 L530.24,355.92 L531.25,355.46 L532.25,355.00 L533.25,354.54 L534.26,354.08 L535.26,353.61 L536.27,353.14 L537.27,352.66 L538.28,352.19 L539.29,351.71 L540.29,351.23 L541.29,350.74 L542.30,350.25 L543.31,349.76 L544.31,349.27 L545.32,348.77 L546.32,348.28 L547.33,347.77 L548.33,347.27 L549.34,346.76 L550.34,346.26 L551.35,345.74 L552.35,345.23 L553.36,344.71 L554.36,344.20 L555.37,343.67 L556.37,343.15 L557.38,342.62 L558.38,342.10 L559.38,341.57 L560.39,341.03 L561.39,340.50 L562.40,339.96 L563.40,339.42 L564.41,338.88 L565.41,338.33 L566.42,337.79 L567.42,337.24 L568.43,336.69 L569.43,336.14 L570.44,335.58 L571.44,335.03 L572.45,334.47 L573.46,333.91 L574.46,333.35 L575.46,332.78 L576.47,332.22 L577.48,331.65 L578.48,331.08 L579.49,330.51 L580.49,329.94 L581.50,329.36 L582.50,328.79 L583.50,328.21 L584.51,327.63 L585.51,327.05 L586.52,326.47 L587.52,325.88 L588.53,325.30 L589.54,324.71 L590.54,324.12 L591.54,323.53 L592.55,322.94 L593.56,322.35 L594.56,321.76 L595.56,321.16 L596.57,320.57 L597.58,319.97 L598.58,319.37 L599.59,318.77 L600.59,318.17 L601.59,317.56 L602.60,316.96 L603.61,316.35 L604.61,315.75 L605.62,315.14 L606.62,314.53 L607.63,313.92 L608.63,313.31 L609.63,312.70 L610.64,312.09 L611.64,311.48 L612.65,310.86 L613.66,310.25 L614.66,309.63 L615.66,309.01 L616.67,308.40 L617.67,307.78 L618.68,307.16 L619.69,306.54 L620.69,305.92 L621.69,305.30 L622.70,304.67 L623.71,304.05 L624.71,303.43 L625.71,302.80 L626.72,302.18 L627.73,301.55 L628.73,300.93 L629.74,300.30 L630.74,299.67 L631.75,299.04 L632.75,298.42 L633.75,297.79 L634.76,297.16 L635.76,296.53 L636.77,295.90 L637.77,295.27 L638.78,294.63 L639.79,294.00 L640.79,293.37 L641.79,292.74 L642.80,292.11 L643.81,291.47 L644.81,290.84 L645.81,290.20 L646.82,289.57 L647.83,288.94 L648.83,288.30 L649.84,287.67 L650.84,287.03 L651.84,286.39 L652.85,285.76 L653.86,285.12 L654.86,284.49 L655.87,283.85 L656.87,283.21 L657.88,282.57 L658.88,281.94 L659.88,281.30 L660.89,280.66 L661.89,280.03 L662.90,279.39 L663.91,278.75 L664.91,278.11 L665.91,277.47 L666.92,276.84 L667.92,276.20 L668.93,275.56 L669.94,274.92 L670.94,274.28 L671.94,273.64 L672.95,273.01 L673.96,272.37 L674.96,271.73 L675.96,271.09 L676.97,270.45 L677.98,269.81 L678.98,269.18 L679.99,268.54 L680.99,267.90 L682.00,267.26 L683.00,266.62 L684.00,265.98 L685.01,265.35 L686.01,264.71 L687.02,264.07 L688.02,263.43 L689.03,262.80 L690.04,262.16 L691.04,261.52 L692.04,260.88 L693.05,260.25 L694.06,259.61 L695.06,258.97 L696.06,258.33 L697.07,257.70 L698.08,257.06 L699.08,256.42 L700.09,255.79 L701.09,255.15 L702.09,254.52 L703.10,253.88 L704.11,253.24 L705.11,252.61 L706.12,251.97 L707.12,251.34 L708.13,250.70 L709.13,250.07 L710.13,249.43 L711.14,248.80 L712.14,248.17 L713.15,247.53 L714.16,246.90 L715.16,246.26 L716.16,245.63 L717.17,245.00 L718.17,244.37 L719.18,243.73 L720.19,243.10 L721.19,242.47 L722.19,241.84 L723.20,241.20 L724.20,240.57 L725.21,239.94 L726.21,239.31 L727.22,238.68 L728.23,238.05 L729.23,237.42 L730.24,236.79 L731.24,236.16 L732.25,235.53 L733.25,234.90 L734.25,234.27 L735.26,233.64 L736.26,233.01 L737.27,232.39 L738.27,231.76 L739.28,231.13 L740.29,230.50 L741.29,229.88 L742.30,229.25 L743.30,228.62 L744.30,228.00 L745.31,227.37 L746.31,226.74 L747.32,226.12 L748.33,225.49 L749.33,224.87 L750.34,224.24 L751.34,223.62 L752.35,222.99 L753.35,222.37 L754.35,221.75 L755.36,221.12 L756.37,220.50 L757.37,219.88 L758.38,219.25 L759.38,218.63 L760.38,218.01 L761.39,217.39 L762.40,216.76 L763.40,216.14 L764.40,215.52 L765.41,214.90 L766.41,214.28 L767.42,213.66 L768.42,213.04 L769.43,212.42 L770.44,211.80 L771.44,211.18 L772.45,210.56 L773.45,209.94 L774.45,209.33 L775.46,208.71 L776.46,208.09 L777.47,207.47 L778.48,206.85 L779.48,206.24 L780.49,205.62 L781.49,205.00 L782.50,204.39 L783.50,203.77 L784.50,203.16 L785.51,202.54 L786.51,201.92 L787.52,201.31 L788.52,200.69 L789.53,200.08 L790.54,199.47 L791.54,198.85 L792.55,198.24 L793.55,197.62 L794.55,197.01 L795.56,196.40 L796.56,195.78 L797.57,195.17 L798.58,194.56 L799.58,193.95 L800.59,193.34 L801.59,192.72 L802.60,192.11 L803.60,191.50 L804.60,190.89 L805.61,190.28 L806.62,189.67 L807.62,189.06 L808.63,188.45 L809.63,187.84 L810.63,187.23 L811.64,186.62 L812.65,186.01 L813.65,185.40 L814.65,184.79 L815.66,184.19 L816.66,183.58 L817.67,182.97 L818.67,182.36 L819.68,181.76 L820.69,181.15 L821.69,180.54 L822.70,179.93 L823.70,179.33 L824.70,178.72 L825.71,178.11 L826.71,177.51 L827.72,176.90 L828.73,176.30 L829.73,175.69 L830.74,175.09 L831.74,174.48 L832.75,173.88 L833.75,173.27 L834.75,172.67 L835.76,172.06 L836.76,171.46 L837.77,170.86 L838.77,170.25 L839.78,169.65 L840.79,169.05 L841.79,168.44 L842.80,167.84 L843.80,167.24 L844.80,166.64 L845.81,166.03 L846.81,165.43 L847.82,164.83 L848.83,164.23 L849.83,163.63 L850.84,163.03 L851.84,162.42 L852.85,161.82 L853.85,161.22 L854.85,160.62 L855.86,160.02 L856.87,159.42 L857.87,158.82 L858.88,158.22 L859.88,157.62 L860.88,157.02 L861.89,156.42 L862.90,155.82 L863.90,155.23 L864.90,154.63 L865.91,154.03 L866.91,153.43 L867.92,152.83 L868.92,152.23 L869.93,151.63 L870.94,151.04 L871.94,150.44 L872.95,149.84 L873.95,149.24 L874.95,148.65 L875.96,148.05 L876.96,147.45 L877.97,146.86 L878.98,146.26 L879.98,145.66 L880.99,145.07 L881.99,144.47 L883.00,143.87 L884.00,143.28" class="curve"/><text x="460" y="538" class="label" text-anchor="middle">x</text><text x="28" y="280" class="label" transform="rotate(-90 28 280)" text-anchor="middle">f(x)</text></svg>