<svg xmlns="http://www.w3.org/2000/svg" width="920" height="560" viewBox="0 0 920 560" role="img" aria-label="Softplus activation curve"><style>.bg{fill:#ffffff}.grid{stroke:#e5e7eb;stroke-width:1}.axis{stroke:#9ca3af;stroke-width:1.4}.tick{font:16px -apple-system,BlinkMacSystemFont,'Segoe UI',Arial,sans-serif;fill:#64748b}.title{font:700 30px -apple-system,BlinkMacSystemFont,'Segoe UI',Arial,sans-serif;fill:#111827}.sub{font:18px -apple-system,BlinkMacSystemFont,'Segoe UI',Arial,sans-serif;fill:#475569}.label{font:17px -apple-system,BlinkMacSystemFont,'Segoe UI',Arial,sans-serif;fill:#475569}.curve{fill:none;stroke:#16a34a;stroke-width:5;stroke-linecap:round;stroke-linejoin:round}</style><rect class="bg" width="100%" height="100%"/><text x="80" y="46" class="title">Softplus</text><text x="80" y="72" class="sub">smooth ReLU</text><line x1="160.4" y1="86" x2="160.4" y2="490" class="grid"/><text x="160.4" y="520" class="tick" text-anchor="middle">-4</text>
<line x1="321.2" y1="86" x2="321.2" y2="490" class="grid"/><text x="321.2" y="520" class="tick" text-anchor="middle">-2</text>
<line x1="482" y1="86" x2="482" y2="490" class="grid"/><text x="482" y="520" class="tick" text-anchor="middle">0</text>
<line x1="642.8" y1="86" x2="642.8" y2="490" class="grid"/><text x="642.8" y="520" class="tick" text-anchor="middle">2</text>
<line x1="803.6" y1="86" x2="803.6" y2="490" class="grid"/><text x="803.6" y="520" class="tick" text-anchor="middle">4</text>
<line x1="80" y1="466.7816091954023" x2="884" y2="466.7816091954023" class="grid"/><text x="62" y="471.7816091954023" class="tick" text-anchor="end">-2</text>
<line x1="80" y1="373.9080459770115" x2="884" y2="373.9080459770115" class="grid"/><text x="62" y="378.9080459770115" class="tick" text-anchor="end">0</text>
<line x1="80" y1="281.0344827586207" x2="884" y2="281.0344827586207" class="grid"/><text x="62" y="286.0344827586207" class="tick" text-anchor="end">2</text>
<line x1="80" y1="188.16091954022983" x2="884" y2="188.16091954022983" class="grid"/><text x="62" y="193.16091954022983" class="tick" text-anchor="end">4</text>
<line x1="80" y1="95.28735632183907" x2="884" y2="95.28735632183907" class="grid"/><text x="62" y="100.28735632183907" class="tick" text-anchor="end">6</text><line x1="80" y1="373.9080459770115" x2="884" y2="373.9080459770115" class="axis"/><line x1="482" y1="86" x2="482" y2="490" class="axis"/><path d="M80.00,373.60 L81.01,373.59 L82.01,373.59 L83.01,373.58 L84.02,373.58 L85.03,373.58 L86.03,373.57 L87.04,373.57 L88.04,373.56 L89.04,373.56 L90.05,373.55 L91.06,373.55 L92.06,373.55 L93.06,373.54 L94.07,373.54 L95.08,373.53 L96.08,373.53 L97.09,373.52 L98.09,373.52 L99.09,373.51 L100.10,373.51 L101.11,373.50 L102.11,373.50 L103.11,373.49 L104.12,373.49 L105.13,373.48 L106.13,373.48 L107.14,373.47 L108.14,373.47 L109.14,373.46 L110.15,373.46 L111.16,373.45 L112.16,373.44 L113.16,373.44 L114.17,373.43 L115.17,373.43 L116.18,373.42 L117.19,373.41 L118.19,373.41 L119.19,373.40 L120.20,373.40 L121.21,373.39 L122.21,373.38 L123.21,373.38 L124.22,373.37 L125.22,373.36 L126.23,373.36 L127.24,373.35 L128.24,373.34 L129.25,373.33 L130.25,373.33 L131.25,373.32 L132.26,373.31 L133.26,373.31 L134.27,373.30 L135.28,373.29 L136.28,373.28 L137.29,373.27 L138.29,373.27 L139.29,373.26 L140.30,373.25 L141.31,373.24 L142.31,373.23 L143.31,373.23 L144.32,373.22 L145.32,373.21 L146.33,373.20 L147.34,373.19 L148.34,373.18 L149.34,373.17 L150.35,373.16 L151.36,373.15 L152.36,373.14 L153.36,373.14 L154.37,373.13 L155.38,373.12 L156.38,373.11 L157.39,373.10 L158.39,373.09 L159.39,373.08 L160.40,373.07 L161.41,373.05 L162.41,373.04 L163.42,373.03 L164.42,373.02 L165.43,373.01 L166.43,373.00 L167.44,372.99 L168.44,372.98 L169.44,372.97 L170.45,372.95 L171.46,372.94 L172.46,372.93 L173.47,372.92 L174.47,372.91 L175.47,372.89 L176.48,372.88 L177.49,372.87 L178.49,372.85 L179.50,372.84 L180.50,372.83 L181.51,372.82 L182.51,372.80 L183.51,372.79 L184.52,372.77 L185.53,372.76 L186.53,372.75 L187.53,372.73 L188.54,372.72 L189.54,372.70 L190.55,372.69 L191.56,372.67 L192.56,372.66 L193.56,372.64 L194.57,372.62 L195.57,372.61 L196.58,372.59 L197.58,372.58 L198.59,372.56 L199.59,372.54 L200.60,372.53 L201.61,372.51 L202.61,372.49 L203.62,372.47 L204.62,372.46 L205.63,372.44 L206.63,372.42 L207.63,372.40 L208.64,372.38 L209.64,372.36 L210.65,372.35 L211.66,372.33 L212.66,372.31 L213.67,372.29 L214.67,372.27 L215.68,372.25 L216.68,372.23 L217.69,372.21 L218.69,372.18 L219.69,372.16 L220.70,372.14 L221.71,372.12 L222.71,372.10 L223.72,372.08 L224.72,372.05 L225.72,372.03 L226.73,372.01 L227.73,371.98 L228.74,371.96 L229.74,371.94 L230.75,371.91 L231.76,371.89 L232.76,371.86 L233.77,371.84 L234.77,371.81 L235.78,371.79 L236.78,371.76 L237.78,371.73 L238.79,371.71 L239.79,371.68 L240.80,371.65 L241.81,371.62 L242.81,371.60 L243.81,371.57 L244.82,371.54 L245.82,371.51 L246.83,371.48 L247.83,371.45 L248.84,371.42 L249.84,371.39 L250.85,371.36 L251.86,371.33 L252.86,371.30 L253.87,371.26 L254.87,371.23 L255.88,371.20 L256.88,371.17 L257.88,371.13 L258.89,371.10 L259.89,371.07 L260.90,371.03 L261.90,371.00 L262.91,370.96 L263.92,370.92 L264.92,370.89 L265.93,370.85 L266.93,370.81 L267.94,370.78 L268.94,370.74 L269.94,370.70 L270.95,370.66 L271.96,370.62 L272.96,370.58 L273.97,370.54 L274.97,370.50 L275.98,370.46 L276.98,370.42 L277.99,370.37 L278.99,370.33 L280.00,370.29 L281.00,370.24 L282.00,370.20 L283.01,370.16 L284.01,370.11 L285.02,370.06 L286.02,370.02 L287.03,369.97 L288.03,369.92 L289.04,369.88 L290.04,369.83 L291.05,369.78 L292.06,369.73 L293.06,369.68 L294.06,369.63 L295.07,369.58 L296.07,369.52 L297.08,369.47 L298.08,369.42 L299.09,369.36 L300.10,369.31 L301.10,369.25 L302.11,369.20 L303.11,369.14 L304.12,369.09 L305.12,369.03 L306.13,368.97 L307.13,368.91 L308.13,368.85 L309.14,368.79 L310.14,368.73 L311.15,368.67 L312.15,368.61 L313.16,368.54 L314.17,368.48 L315.17,368.42 L316.18,368.35 L317.18,368.28 L318.19,368.22 L319.19,368.15 L320.19,368.08 L321.20,368.01 L322.21,367.94 L323.21,367.87 L324.22,367.80 L325.22,367.73 L326.23,367.66 L327.23,367.58 L328.24,367.51 L329.24,367.44 L330.25,367.36 L331.25,367.28 L332.25,367.21 L333.26,367.13 L334.26,367.05 L335.27,366.97 L336.27,366.89 L337.28,366.80 L338.28,366.72 L339.29,366.64 L340.29,366.55 L341.30,366.47 L342.31,366.38 L343.31,366.29 L344.31,366.21 L345.32,366.12 L346.32,366.03 L347.33,365.94 L348.33,365.84 L349.34,365.75 L350.34,365.66 L351.35,365.56 L352.36,365.47 L353.36,365.37 L354.37,365.27 L355.37,365.17 L356.38,365.07 L357.38,364.97 L358.38,364.87 L359.39,364.76 L360.39,364.66 L361.40,364.56 L362.41,364.45 L363.41,364.34 L364.42,364.23 L365.42,364.12 L366.43,364.01 L367.43,363.90 L368.44,363.79 L369.44,363.67 L370.44,363.56 L371.45,363.44 L372.46,363.32 L373.46,363.20 L374.47,363.08 L375.47,362.96 L376.48,362.84 L377.48,362.72 L378.48,362.59 L379.49,362.47 L380.50,362.34 L381.50,362.21 L382.50,362.08 L383.51,361.95 L384.52,361.82 L385.52,361.68 L386.52,361.55 L387.53,361.41 L388.53,361.27 L389.54,361.13 L390.54,360.99 L391.55,360.85 L392.56,360.71 L393.56,360.57 L394.56,360.42 L395.57,360.27 L396.57,360.12 L397.58,359.97 L398.58,359.82 L399.59,359.67 L400.59,359.52 L401.60,359.36 L402.61,359.20 L403.61,359.05 L404.61,358.89 L405.62,358.73 L406.63,358.56 L407.63,358.40 L408.64,358.23 L409.64,358.07 L410.64,357.90 L411.65,357.73 L412.66,357.56 L413.66,357.38 L414.66,357.21 L415.67,357.03 L416.68,356.85 L417.68,356.68 L418.69,356.49 L419.69,356.31 L420.69,356.13 L421.70,355.94 L422.71,355.76 L423.71,355.57 L424.71,355.38 L425.72,355.19 L426.73,354.99 L427.73,354.80 L428.74,354.60 L429.74,354.40 L430.75,354.20 L431.75,354.00 L432.75,353.80 L433.76,353.59 L434.76,353.39 L435.77,353.18 L436.77,352.97 L437.78,352.76 L438.79,352.54 L439.79,352.33 L440.79,352.11 L441.80,351.89 L442.81,351.67 L443.81,351.45 L444.81,351.23 L445.82,351.00 L446.82,350.78 L447.83,350.55 L448.84,350.32 L449.84,350.09 L450.84,349.85 L451.85,349.62 L452.86,349.38 L453.86,349.14 L454.86,348.90 L455.87,348.66 L456.88,348.41 L457.88,348.17 L458.89,347.92 L459.89,347.67 L460.89,347.42 L461.90,347.16 L462.91,346.91 L463.91,346.65 L464.91,346.39 L465.92,346.13 L466.93,345.87 L467.93,345.61 L468.94,345.34 L469.94,345.07 L470.94,344.80 L471.95,344.53 L472.96,344.26 L473.96,343.98 L474.96,343.71 L475.97,343.43 L476.98,343.15 L477.98,342.87 L478.99,342.58 L479.99,342.30 L481.00,342.01 L482.00,341.72 L483.00,341.43 L484.01,341.14 L485.01,340.84 L486.02,340.55 L487.02,340.25 L488.03,339.95 L489.04,339.64 L490.04,339.34 L491.04,339.04 L492.05,338.73 L493.06,338.42 L494.06,338.11 L495.06,337.79 L496.07,337.48 L497.08,337.16 L498.08,336.85 L499.08,336.52 L500.09,336.20 L501.09,335.88 L502.10,335.55 L503.11,335.23 L504.11,334.90 L505.11,334.57 L506.12,334.23 L507.13,333.90 L508.13,333.56 L509.14,333.23 L510.14,332.89 L511.14,332.55 L512.15,332.20 L513.15,331.86 L514.16,331.51 L515.16,331.16 L516.17,330.81 L517.17,330.46 L518.18,330.11 L519.18,329.75 L520.19,329.39 L521.19,329.04 L522.20,328.68 L523.21,328.31 L524.21,327.95 L525.21,327.58 L526.22,327.22 L527.23,326.85 L528.23,326.48 L529.24,326.10 L530.24,325.73 L531.25,325.35 L532.25,324.98 L533.25,324.60 L534.26,324.22 L535.26,323.84 L536.27,323.45 L537.27,323.07 L538.28,322.68 L539.29,322.29 L540.29,321.90 L541.29,321.51 L542.30,321.12 L543.31,320.72 L544.31,320.32 L545.32,319.93 L546.32,319.53 L547.33,319.12 L548.33,318.72 L549.34,318.32 L550.34,317.91 L551.35,317.50 L552.35,317.10 L553.36,316.68 L554.36,316.27 L555.37,315.86 L556.37,315.44 L557.38,315.03 L558.38,314.61 L559.38,314.19 L560.39,313.77 L561.39,313.35 L562.40,312.92 L563.40,312.50 L564.41,312.07 L565.41,311.64 L566.42,311.22 L567.42,310.78 L568.43,310.35 L569.43,309.92 L570.44,309.48 L571.44,309.05 L572.45,308.61 L573.46,308.17 L574.46,307.73 L575.46,307.29 L576.47,306.85 L577.48,306.40 L578.48,305.96 L579.49,305.51 L580.49,305.06 L581.50,304.61 L582.50,304.16 L583.50,303.71 L584.51,303.26 L585.51,302.80 L586.52,302.35 L587.52,301.89 L588.53,301.43 L589.54,300.97 L590.54,300.51 L591.54,300.05 L592.55,299.59 L593.56,299.13 L594.56,298.66 L595.56,298.19 L596.57,297.73 L597.58,297.26 L598.58,296.79 L599.59,296.32 L600.59,295.85 L601.59,295.37 L602.60,294.90 L603.61,294.42 L604.61,293.95 L605.62,293.47 L606.62,292.99 L607.63,292.51 L608.63,292.03 L609.63,291.55 L610.64,291.07 L611.64,290.59 L612.65,290.10 L613.66,289.62 L614.66,289.13 L615.66,288.64 L616.67,288.15 L617.67,287.66 L618.68,287.17 L619.69,286.68 L620.69,286.19 L621.69,285.70 L622.70,285.20 L623.71,284.71 L624.71,284.21 L625.71,283.72 L626.72,283.22 L627.73,282.72 L628.73,282.22 L629.74,281.72 L630.74,281.22 L631.75,280.72 L632.75,280.21 L633.75,279.71 L634.76,279.21 L635.76,278.70 L636.77,278.19 L637.77,277.69 L638.78,277.18 L639.79,276.67 L640.79,276.16 L641.79,275.65 L642.80,275.14 L643.81,274.63 L644.81,274.12 L645.81,273.60 L646.82,273.09 L647.83,272.57 L648.83,272.06 L649.84,271.54 L650.84,271.03 L651.84,270.51 L652.85,269.99 L653.86,269.47 L654.86,268.95 L655.87,268.43 L656.87,267.91 L657.88,267.39 L658.88,266.87 L659.88,266.34 L660.89,265.82 L661.89,265.30 L662.90,264.77 L663.91,264.25 L664.91,263.72 L665.91,263.19 L666.92,262.67 L667.92,262.14 L668.93,261.61 L669.94,261.08 L670.94,260.55 L671.94,260.02 L672.95,259.49 L673.96,258.96 L674.96,258.43 L675.96,257.89 L676.97,257.36 L677.98,256.83 L678.98,256.29 L679.99,255.76 L680.99,255.22 L682.00,254.69 L683.00,254.15 L684.00,253.62 L685.01,253.08 L686.01,252.54 L687.02,252.00 L688.02,251.46 L689.03,250.93 L690.04,250.39 L691.04,249.85 L692.04,249.30 L693.05,248.76 L694.06,248.22 L695.06,247.68 L696.06,247.14 L697.07,246.60 L698.08,246.05 L699.08,245.51 L700.09,244.96 L701.09,244.42 L702.09,243.87 L703.10,243.33 L704.11,242.78 L705.11,242.24 L706.12,241.69 L707.12,241.14 L708.13,240.60 L709.13,240.05 L710.13,239.50 L711.14,238.95 L712.14,238.40 L713.15,237.85 L714.16,237.30 L715.16,236.75 L716.16,236.20 L717.17,235.65 L718.17,235.10 L719.18,234.55 L720.19,234.00 L721.19,233.45 L722.19,232.89 L723.20,232.34 L724.20,231.79 L725.21,231.23 L726.21,230.68 L727.22,230.13 L728.23,229.57 L729.23,229.02 L730.24,228.46 L731.24,227.91 L732.25,227.35 L733.25,226.80 L734.25,226.24 L735.26,225.68 L736.26,225.13 L737.27,224.57 L738.27,224.01 L739.28,223.46 L740.29,222.90 L741.29,222.34 L742.30,221.78 L743.30,221.22 L744.30,220.66 L745.31,220.10 L746.31,219.54 L747.32,218.98 L748.33,218.42 L749.33,217.86 L750.34,217.30 L751.34,216.74 L752.35,216.18 L753.35,215.62 L754.35,215.06 L755.36,214.50 L756.37,213.94 L757.37,213.37 L758.38,212.81 L759.38,212.25 L760.38,211.69 L761.39,211.12 L762.40,210.56 L763.40,210.00 L764.40,209.43 L765.41,208.87 L766.41,208.31 L767.42,207.74 L768.42,207.18 L769.43,206.61 L770.44,206.05 L771.44,205.48 L772.45,204.92 L773.45,204.35 L774.45,203.79 L775.46,203.22 L776.46,202.66 L777.47,202.09 L778.48,201.52 L779.48,200.96 L780.49,200.39 L781.49,199.82 L782.50,199.26 L783.50,198.69 L784.50,198.12 L785.51,197.56 L786.51,196.99 L787.52,196.42 L788.52,195.85 L789.53,195.29 L790.54,194.72 L791.54,194.15 L792.55,193.58 L793.55,193.01 L794.55,192.44 L795.56,191.87 L796.56,191.31 L797.57,190.74 L798.58,190.17 L799.58,189.60 L800.59,189.03 L801.59,188.46 L802.60,187.89 L803.60,187.32 L804.60,186.75 L805.61,186.18 L806.62,185.61 L807.62,185.04 L808.63,184.47 L809.63,183.90 L810.63,183.32 L811.64,182.75 L812.65,182.18 L813.65,181.61 L814.65,181.04 L815.66,180.47 L816.66,179.90 L817.67,179.33 L818.67,178.75 L819.68,178.18 L820.69,177.61 L821.69,177.04 L822.70,176.47 L823.70,175.89 L824.70,175.32 L825.71,174.75 L826.71,174.18 L827.72,173.60 L828.73,173.03 L829.73,172.46 L830.74,171.89 L831.74,171.31 L832.75,170.74 L833.75,170.17 L834.75,169.59 L835.76,169.02 L836.76,168.45 L837.77,167.87 L838.77,167.30 L839.78,166.73 L840.79,166.15 L841.79,165.58 L842.80,165.00 L843.80,164.43 L844.80,163.86 L845.81,163.28 L846.81,162.71 L847.82,162.13 L848.83,161.56 L849.83,160.98 L850.84,160.41 L851.84,159.83 L852.85,159.26 L853.85,158.68 L854.85,158.11 L855.86,157.54 L856.87,156.96 L857.87,156.39 L858.88,155.81 L859.88,155.23 L860.88,154.66 L861.89,154.08 L862.90,153.51 L863.90,152.93 L864.90,152.36 L865.91,151.78 L866.91,151.21 L867.92,150.63 L868.92,150.06 L869.93,149.48 L870.94,148.90 L871.94,148.33 L872.95,147.75 L873.95,147.18 L874.95,146.60 L875.96,146.02 L876.96,145.45 L877.97,144.87 L878.98,144.29 L879.98,143.72 L880.99,143.14 L881.99,142.57 L883.00,141.99 L884.00,141.41" class="curve"/><text x="460" y="538" class="label" text-anchor="middle">x</text><text x="28" y="280" class="label" transform="rotate(-90 28 280)" text-anchor="middle">f(x)</text></svg>